<svg width="186" height="91" viewBox="0 0 186 91" fill="none" xmlns="http://www.w3.org/2000/svg">
<path d="M14 17.9C14.9 18.4 16.4 18.9 18.4 19.4C20.7 20 22.5 20.7 24 21.4C25.5 22.1 26.7 23.1 27.8 24.4C28.9 25.7 29.4 27.5 29.4 29.7C29.4 32.5 28.5 34.8 26.6 36.5C24.7 38.2 22.2 39.3 19.2 39.7V46.7H12.4V39.6C10.2 39.3 8.10001 38.7 6.10001 37.8C4.10001 37 2.30001 35.9 0.700012 34.7L4.30001 27.4C5.90001 28.8 7.90001 30 10.3 31C12.6 32 14.7 32.4 16.3 32.4C17.3 32.4 18.2 32.2 18.7 31.8C19.3 31.4 19.6 30.8 19.6 30.1C19.6 29.2 19.1 28.5 18.2 28.1C17.2 27.6 15.8 27.1 13.8 26.6C11.6 26 9.70001 25.4 8.20001 24.8C6.70001 24.2 5.50001 23.2 4.40001 21.9C3.30001 20.6 2.80001 18.9 2.80001 16.7C2.80001 14.1 3.70001 11.9 5.40001 10.2C7.10001 8.5 9.50001 7.3 12.5 6.8V0H19.3V6.6C21.2 6.8 23.1 7.3 24.9 7.9C26.7 8.5 28.3 9.3 29.7 10.2L26 17.6C24.3 16.6 22.4 15.7 20.3 15C18.2 14.3 16.6 13.9 15.2 13.9C14.4 13.9 13.7 14.1 13.2 14.4C12.7 14.7 12.5 15.2 12.5 15.8C12.6 16.8 13.1 17.4 14 17.9Z" fill="white"/>
<path d="M37.8467 69.2203L61.9726 66.1823C62.6081 69.5583 63.6803 71.9413 65.1894 73.3313C66.6986 74.7213 68.5452 75.4163 70.7295 75.4163C74.6214 75.4163 77.6595 73.4503 79.8437 69.5183C81.4323 66.6193 82.6237 60.4833 83.418 51.1113C80.5189 54.0898 77.5404 56.2743 74.4824 57.6643C71.4245 59.0543 67.89 59.7493 63.8789 59.7493C56.0553 59.7493 49.443 56.9693 44.042 51.4091C38.6807 45.8492 36 38.82 36 30.3213C36 24.5231 37.3701 19.2412 40.1103 14.4755C42.8506 9.7099 46.6234 6.1158 51.4287 3.6933C56.234 1.2311 62.2705 0 69.5381 0C78.2751 0 85.2845 1.5091 90.5665 4.5273C95.8485 7.5058 100.058 12.2714 103.196 18.8242C106.373 25.3372 107.961 33.955 107.961 44.6777C107.961 60.4443 104.644 72.0003 98.0125 79.3473C91.3805 86.6553 82.1868 90.3083 70.4316 90.3083C63.4818 90.3083 58.0013 89.5143 53.9902 87.9253C49.9792 86.2973 46.6432 83.9343 43.9824 80.8373C41.3216 77.7393 39.2764 73.8673 37.8467 69.2203ZM82.5244 30.2617C82.5244 25.5358 81.333 21.8424 78.9502 19.1816C76.5674 16.4811 73.6683 15.1308 70.2529 15.1308C67.0361 15.1308 64.3555 16.3421 62.2109 18.7646C60.1061 21.1871 59.0537 24.8209 59.0537 29.666C59.0537 34.5507 60.1458 38.2838 62.3301 40.8652C64.554 43.4466 67.3141 44.7373 70.6103 44.7373C74.0257 44.7373 76.8652 43.4863 79.1289 40.9843C81.3926 38.4824 82.5244 34.9082 82.5244 30.2617Z" fill="white"/>
<path d="M114 44.7968C114 28.1966 116.978 16.5804 122.936 9.9482C128.932 3.316 138.047 0 150.278 0C156.156 0 160.981 0.734702 164.754 2.2041C168.527 3.6338 171.604 5.5201 173.987 7.8632C176.37 10.1666 178.237 12.609 179.587 15.1904C180.977 17.7321 182.089 20.7106 182.923 24.1259C184.551 30.639 185.365 37.43 185.365 44.499C185.365 60.3443 182.685 71.9413 177.323 79.2883C171.962 86.6353 162.728 90.3083 149.623 90.3083C142.276 90.3083 136.339 89.1373 131.811 86.7943C127.284 84.4513 123.571 81.0153 120.672 76.4883C118.567 73.2713 116.919 68.8833 115.727 63.3233C114.576 57.7233 114 51.5481 114 44.7968ZM138.066 44.8564C138.066 55.9763 139.039 63.5813 140.985 67.6723C142.971 71.7223 145.83 73.7483 149.563 73.7483C152.026 73.7483 154.15 72.8943 155.937 71.1863C157.764 69.4393 159.095 66.6993 159.929 62.9653C160.802 59.2323 161.239 53.4147 161.239 45.5117C161.239 33.9153 160.246 26.1315 158.261 22.1601C156.315 18.1491 153.376 16.1435 149.444 16.1435C145.433 16.1435 142.534 18.1888 140.747 22.2793C138.96 26.33 138.066 33.8558 138.066 44.8564Z" fill="white"/>
</svg>
