<svg width="400" viewBox="0 0 590 183" fill="none" xmlns="http://www.w3.org/2000/svg">
<path d="M28.4 37.8C30.3 38.8 33.3 39.9 37.5 41C42.2 42.3 46.1 43.7 49.2 45.1C52.3 46.5 54.9 48.6 57.2 51.4C59.5 54.2 60.6 57.9 60.6 62.5C60.6 68.4 58.6 73.2 54.7 76.7C50.8 80.3 45.6 82.5 39.3 83.4V98H24.9V83.2C20.4 82.5 16 81.3 11.8 79.5C7.60001 77.7 3.90001 75.6 0.700012 73L8.10001 57.9C11.5 60.8 15.6 63.3 20.5 65.3C25.4 67.3 29.6 68.3 33.1 68.3C35.3 68.3 37 67.9 38.2 67.1C39.4 66.3 40 65.1 40 63.6C40 61.8 39 60.3 37 59.4C35 58.4 32 57.4 27.8 56.3C23.2 55.1 19.3 53.8 16.2 52.5C13.1 51.2 10.5 49.2 8.30001 46.4C6.10001 43.7 5.00001 40.1 5.00001 35.6C5.00001 30.2 6.80001 25.7 10.3 22C13.8 18.4 18.7 16 25 14.9V0.899994H39.2V14.7C43.2 15.2 47.1 16.1 50.8 17.4C54.5 18.7 57.8 20.3 60.7 22.1L53.3 37.4C49.7 35.3 45.8 33.5 41.6 32.1C37.3 30.6 33.8 29.9 31.1 29.9C29.4 29.9 28 30.2 27 30.9C26 31.6 25.5 32.5 25.5 33.8C25.5 35.4 26.5 36.8 28.4 37.8Z" fill="white"/>
<path d="M176.016 9.5V177.5H130.406V51.5H129.422L92.6719 73.4844V34.7656L134.016 9.5H176.016Z" fill="white"/>
<path d="M265.202 182.094C249.944 182.039 236.764 178.512 225.663 171.512C214.561 164.512 206.002 154.422 199.987 141.242C193.971 128.062 190.991 112.258 191.045 93.8281C191.1 75.3438 194.108 59.6484 200.069 46.7422C206.084 33.8359 214.616 24.0195 225.663 17.293C236.764 10.5664 249.944 7.20312 265.202 7.20312C280.459 7.20312 293.639 10.5938 304.741 17.375C315.842 24.1016 324.401 33.918 330.416 46.8242C336.432 59.7305 339.413 75.3984 339.358 93.8281C339.358 112.367 336.35 128.227 330.334 141.406C324.319 154.586 315.76 164.676 304.659 171.676C293.612 178.621 280.459 182.094 265.202 182.094ZM265.202 145.016C273.077 145.016 279.53 140.914 284.561 132.711C289.647 124.453 292.163 111.492 292.108 93.8281C292.108 82.2891 290.959 72.8555 288.663 65.5273C286.366 58.1992 283.194 52.7852 279.147 49.2852C275.1 45.7305 270.452 43.9531 265.202 43.9531C257.327 43.9531 250.901 47.9453 245.924 55.9297C240.948 63.9141 238.405 76.5469 238.295 93.8281C238.241 105.586 239.362 115.266 241.659 122.867C243.956 130.414 247.127 135.992 251.174 139.602C255.276 143.211 259.952 145.016 265.202 145.016Z" fill="white"/>
<path d="M409.554 179.797C396.647 179.797 385.19 177.527 375.183 172.988C365.229 168.395 357.382 162.078 351.64 154.039C345.952 146 343.054 136.758 342.944 126.312H387.241C387.405 132.109 389.647 136.73 393.968 140.176C398.343 143.621 403.538 145.344 409.554 145.344C414.202 145.344 418.304 144.359 421.858 142.391C425.413 140.367 428.202 137.523 430.226 133.859C432.249 130.195 433.233 125.93 433.179 121.063C433.233 116.141 432.249 111.875 430.226 108.266C428.202 104.602 425.413 101.785 421.858 99.8164C418.304 97.793 414.202 96.7812 409.554 96.7812C404.741 96.7812 400.284 97.957 396.183 100.309C392.136 102.605 389.155 105.805 387.241 109.906L347.21 102.031L353.772 9.5H466.647V45.9219H391.179L387.897 83H388.882C391.507 77.9141 396.046 73.7031 402.499 70.3672C408.952 66.9766 416.444 65.2813 424.976 65.2813C434.983 65.2813 443.897 67.6055 451.718 72.2539C459.593 76.9023 465.8 83.3281 470.339 91.5313C474.933 99.6797 477.202 109.086 477.147 119.75C477.202 131.453 474.413 141.844 468.78 150.922C463.202 159.945 455.354 167.027 445.237 172.168C435.12 177.254 423.226 179.797 409.554 179.797Z" fill="white"/>
</svg>
