<svg width="249" height="71" viewBox="0 0 249 71" fill="none" xmlns="http://www.w3.org/2000/svg">
<path d="M39.4317 16.5579C19.634 16.5579 9.0899 8.01246 9.0899 8.01246C9.0899 15.1458 25.7219 15.0241 32.8568 23.4965C34.2449 25.1521 35.2433 27.9762 35.9982 32.2368C38.2628 33.308 40.4788 34.1844 42.5243 34.9879C43.3766 29.1935 44.4237 25.1277 45.8361 23.4965C53.0928 15.1215 70.0657 15.1702 70.0657 8.01246C70.0657 8.01246 59.205 16.5579 39.4317 16.5579Z" fill="white"/>
<path d="M39.4317 14.6346C42.4039 14.6346 44.8134 12.2257 44.8134 9.25411C44.8134 6.28256 42.4039 3.87363 39.4317 3.87363C36.4595 3.87363 34.05 6.28256 34.05 9.25411C34.05 12.2257 36.4595 14.6346 39.4317 14.6346Z" fill="white"/>
<path d="M36.8505 52.3709C31.688 54.6107 27.6213 57.8731 28.3762 65.1039C29.959 60.819 32.8081 58.4087 37.167 56.5828C37.0696 55.195 36.9722 53.8073 36.8505 52.3709Z" fill="white"/>
<path d="M24.2121 26.1746C20.5351 39.6866 47.6138 40.1492 47.6138 46.3574C47.6138 48.4999 45.7387 49.6929 42.1104 51.1293C41.9886 52.6631 41.8425 54.1725 41.7451 55.6333C48.3443 53.15 53.8721 51.3971 53.8721 46.0653C53.8721 36.546 37.581 37.885 24.2121 26.1746Z" fill="white"/>
<path d="M41.8182 43.1194C40.6006 53.8804 39.9918 65.0309 39.5048 70.2896C38.5307 63.8866 38.1168 51.6892 36.8992 41.2691C38.6038 41.9265 40.3084 42.5351 41.8182 43.1194Z" fill="white"/>
<path d="M48.6609 25.4686C48.9287 25.6633 49.2209 25.8337 49.5375 25.9798C49.8297 26.1259 50.1463 26.272 50.4872 26.3694C50.8281 26.4667 51.1447 26.5641 51.4613 26.6372C51.7778 26.7102 52.1188 26.7346 52.4597 26.7346H52.5814L52.7032 26.7102C52.7519 26.7102 52.7762 26.7102 52.8249 26.6859L52.9467 26.6615C53.0198 26.6372 53.1172 26.6128 53.1902 26.5885C53.2633 26.5641 53.3607 26.5398 53.4337 26.5154C53.7503 26.3937 54.0425 26.2476 54.3104 26.0772C54.5783 25.9068 54.8461 25.6877 55.0409 25.4442C55.2357 25.2008 55.4062 24.9329 55.5036 24.6164L55.601 24.3243L55.8445 24.5191C55.9906 24.6408 56.2098 24.7138 56.429 24.7382C56.6481 24.7625 56.8916 24.7625 57.1351 24.7625C57.5978 24.7382 58.0848 24.6408 58.5719 24.5434C59.0346 24.446 59.5216 24.2999 59.9843 24.1539C60.4469 24.0078 60.9096 23.813 61.3479 23.6183C61.5671 23.5209 61.7619 23.4235 61.9567 23.2774C62.1515 23.1557 62.322 22.9853 62.5168 22.8392C62.8821 22.5227 63.1986 22.1818 63.4909 21.8167C63.7831 21.4515 64.0509 21.0619 64.2701 20.648C64.3675 20.4533 64.4649 20.2342 64.538 20.015C64.611 19.8203 64.6354 19.6012 64.6597 19.4064L64.6841 18.8708L65.2442 18.9682C65.3903 18.9925 65.6094 18.9925 65.8042 18.9438C66.0234 18.9195 66.2426 18.8464 66.4617 18.7734C66.9 18.6273 67.3627 18.4326 67.801 18.2378C68.2394 18.0187 68.6533 17.7996 69.0673 17.5318C69.2621 17.41 69.4813 17.2639 69.6518 17.1422C69.8222 17.0205 70.017 16.8501 70.1631 16.7283L70.2118 16.6796C70.2362 16.6553 70.2362 16.631 70.2605 16.631L70.3579 16.5092L70.4553 16.3875L70.5041 16.3145L70.5527 16.2414C70.6258 16.144 70.6745 16.0466 70.7476 15.9493C70.8206 15.8519 70.8693 15.7545 70.918 15.6328C71.1372 15.2189 71.3563 14.7807 71.5512 14.3424C71.746 13.9042 71.8921 13.4416 72.0138 13.0034C72.0382 12.9547 72.0382 12.8817 72.0625 12.833L72.1112 12.6626C72.1112 12.6139 72.1356 12.5408 72.1599 12.4921L72.1843 12.3217L72.2086 12.2487V12.2V12.1513L72.233 12.0052C72.233 11.9809 72.233 11.9565 72.233 11.9322V11.8591C72.233 11.8104 72.233 11.7617 72.233 11.7374L72.2573 11.2018L72.7687 10.9827C73.0853 10.8609 73.3775 10.6418 73.621 10.3984C73.8889 10.1306 74.0837 9.81406 74.2785 9.47322C74.4733 9.13238 74.6438 8.74284 74.7655 8.3533C74.9116 7.96377 75.0091 7.54989 75.1065 7.11166C75.2039 6.67343 75.2769 6.25955 75.35 5.82132C75.423 5.38309 75.4717 4.94486 75.5204 4.50663C75.6178 3.63018 75.6665 2.72937 75.6665 1.82857C75.6665 1.70684 75.6665 1.60946 75.6665 1.48773V1.39034V1.34165C75.6665 1.34165 75.6665 1.3173 75.6665 1.34165C75.6665 1.43903 75.6909 1.58511 75.7639 1.75553C75.837 1.92595 75.9831 2.09638 76.1536 2.19376C76.324 2.29114 76.4701 2.31549 76.5675 2.33984C76.6893 2.33984 76.7624 2.33984 76.8354 2.33984C76.9085 2.31549 76.9572 2.31549 77.0302 2.29114C77.1033 2.2668 77.1033 2.24245 77.1033 2.2668L77.0546 2.29114L76.9815 2.33984L76.3484 2.65633L76.0318 2.80241C75.9344 2.8511 75.8126 2.8998 75.7152 2.94849L75.0578 3.24064C74.8386 3.33802 74.6194 3.43541 74.4003 3.53279L73.7428 3.82494C73.5236 3.92233 73.3045 3.99537 73.0853 4.09275C72.8661 4.19013 72.647 4.28752 72.4278 4.36056C70.6745 5.04224 68.8969 5.67524 67.0949 6.21086C66.6322 6.33258 66.1939 6.47866 65.7312 6.60039C65.2685 6.72212 64.8302 6.84385 64.3675 6.96558C63.9048 7.08731 63.4665 7.1847 63.0038 7.30643L62.322 7.4525L61.6401 7.59858C59.8138 7.98811 57.9631 8.30461 56.1124 8.57242L53.3607 8.96195C53.1415 8.9863 52.898 9.03499 52.6788 9.05934C52.5571 9.08368 52.4597 9.10803 52.3379 9.13238C52.2405 9.15672 52.1188 9.18107 52.0213 9.20541C51.6317 9.3028 51.2665 9.47322 50.9012 9.69234C50.1706 10.1549 49.5375 10.7879 49.0018 11.4939C48.7339 11.8591 48.4904 12.2243 48.2712 12.6139C48.1738 12.8086 48.0764 13.0034 47.979 13.2225C47.906 13.4173 47.8329 13.6364 47.8086 13.8312L47.3702 13.8068C47.3702 13.539 47.4433 13.2955 47.492 13.0764C47.5651 12.833 47.6381 12.6139 47.7355 12.3947C47.8329 12.1756 47.9303 11.9565 48.0521 11.7374C48.1738 11.5183 48.2956 11.3235 48.4173 11.1044C48.5391 10.9096 48.6852 10.7149 48.8313 10.4958C48.9774 10.301 49.1235 10.1062 49.294 9.9358C49.4645 9.74103 49.6349 9.57061 49.8054 9.40018C50.0002 9.22976 50.1706 9.08368 50.3898 8.93761C50.5846 8.79153 50.8038 8.64546 51.0473 8.52373L51.2178 8.42634C51.2665 8.402 51.3395 8.37765 51.3882 8.3533C51.4369 8.32896 51.51 8.30461 51.583 8.28027C51.6561 8.25592 51.7048 8.23157 51.7778 8.20723C51.8996 8.18288 52.0213 8.13419 52.1431 8.10984C52.2649 8.0855 52.3866 8.03681 52.484 8.01246C52.7275 7.96377 52.9467 7.91508 53.1659 7.84204C54.0912 7.64727 54.9922 7.47685 55.8932 7.28208C56.7942 7.08731 57.6952 6.89254 58.5962 6.69778C59.4972 6.50301 60.3982 6.25955 61.2749 6.04043C62.1759 5.82132 63.0525 5.55351 63.9292 5.31005C64.8058 5.04224 65.6825 4.77444 66.5591 4.48229C66.7783 4.40925 66.9975 4.33621 67.2166 4.26317C67.4358 4.19014 67.6549 4.1171 67.8741 4.04406C68.3124 3.89798 68.7264 3.72756 69.1647 3.58148L69.7979 3.33802L70.431 3.09456C70.8693 2.92414 71.2833 2.75372 71.6973 2.5833C72.1112 2.41287 72.5496 2.21811 72.9635 2.02334L73.5967 1.73119C73.7915 1.6338 74.0106 1.53642 74.2298 1.43903L74.8386 1.14688C74.936 1.09819 75.0334 1.0495 75.1552 1.00081L75.4474 0.854729L76.0562 0.53823L76.1292 0.489538L76.1779 0.465193C76.1779 0.465193 76.1779 0.465192 76.2753 0.4165C76.3484 0.392154 76.3971 0.367808 76.4945 0.343462C76.5675 0.319116 76.6649 0.319116 76.7867 0.343462C76.9085 0.343462 77.0546 0.392154 77.225 0.489538C77.3955 0.586922 77.5416 0.757345 77.639 0.952113C77.7121 1.12254 77.7364 1.26861 77.7364 1.39034V1.41469V1.46338V1.56076C77.7364 1.68249 77.7364 1.80422 77.7364 1.92595C77.7364 2.41287 77.7121 2.87545 77.6877 3.36237C77.6634 3.84929 77.6147 4.31186 77.566 4.79878C77.4442 5.74828 77.2981 6.72212 77.0302 7.67162C76.9085 8.15854 76.738 8.62111 76.5432 9.08368C76.3484 9.54626 76.1292 10.0332 75.837 10.4714C75.6909 10.6905 75.5448 10.9096 75.3743 11.1288C75.2769 11.2261 75.1795 11.3235 75.1065 11.4453C75.0578 11.4939 75.0091 11.5426 74.9604 11.5913C74.9116 11.64 74.8629 11.6887 74.8142 11.7374C74.4003 12.1026 73.8645 12.4191 73.3288 12.5895L73.8645 11.8348C73.8402 12.1756 73.7915 12.4678 73.7184 12.7599L73.6697 12.9547C73.6454 13.0277 73.621 13.0764 73.5967 13.1495L73.5236 13.3442C73.4993 13.4173 73.4749 13.466 73.4506 13.539C73.2558 14.0503 73.0609 14.5372 72.8174 15.0241C72.5739 15.4867 72.3304 15.9736 72.0382 16.4118C71.9651 16.5336 71.8921 16.631 71.819 16.7527C71.746 16.8744 71.6729 16.9718 71.5755 17.0935L71.5025 17.1909L71.4294 17.2883L71.2833 17.4587C71.2346 17.5074 71.1859 17.5804 71.1128 17.6291C71.0885 17.6535 71.0641 17.6778 71.0398 17.7022L70.9424 17.7752C70.7232 17.97 70.4797 18.1404 70.2605 18.2865C70.0414 18.4326 69.7979 18.5786 69.5787 18.7004C69.116 18.9682 68.6533 19.1873 68.1663 19.4064C67.6793 19.6012 67.1923 19.7959 66.6565 19.942C66.3887 20.015 66.1208 20.0637 65.8286 20.1124C65.7555 20.1124 65.6825 20.1368 65.6094 20.1368C65.5364 20.1368 65.4633 20.1368 65.3903 20.1368H65.2685C65.2198 20.1368 65.1954 20.1368 65.1467 20.1368C65.0737 20.1368 64.9763 20.1124 64.9032 20.0881L65.4877 19.6499C65.4633 19.942 65.3903 20.2342 65.2929 20.502C65.1954 20.7698 65.0737 21.0132 64.9276 21.2567C64.6597 21.7193 64.3431 22.1332 64.0022 22.547C63.6613 22.9366 63.2717 23.3018 62.8821 23.6426C62.6873 23.813 62.4681 23.9591 62.2246 24.1052C62.1028 24.1782 62.0054 24.2513 61.8593 24.3C61.7132 24.3486 61.6158 24.4217 61.494 24.4704C61.007 24.6651 60.5443 24.8356 60.033 24.9573C59.5459 25.1034 59.0589 25.2251 58.5475 25.3225C58.0361 25.4199 57.5248 25.4929 57.0134 25.4929C56.7455 25.4929 56.4777 25.4929 56.2098 25.4199C56.1367 25.4199 56.0637 25.3955 56.015 25.3712C55.9906 25.3712 55.9419 25.3468 55.9176 25.3468C55.8932 25.3468 55.8445 25.3225 55.8202 25.3225C55.6984 25.2738 55.5523 25.2008 55.4305 25.079L55.7715 24.9816C55.6497 25.3225 55.4305 25.639 55.187 25.9068C54.9435 26.1746 54.6513 26.3937 54.3347 26.5641C54.0182 26.7346 53.7016 26.8806 53.3607 26.978C53.2633 27.0024 53.1902 27.0267 53.1172 27.051C53.0198 27.0754 52.9467 27.0997 52.8493 27.0997L52.7275 27.1241C52.6788 27.1241 52.6301 27.1241 52.6058 27.1484L52.4597 27.1728H52.3379C51.9727 27.1728 51.6317 27.1241 51.2908 27.0267C50.9499 26.9293 50.6333 26.8319 50.3168 26.7102C50.0002 26.5885 49.6836 26.4181 49.3914 26.272C49.0992 26.1016 48.807 25.9068 48.5391 25.712L48.6609 25.4686Z" fill="white"/>
<path d="M29.886 25.5416C29.6181 25.7607 29.3259 25.9311 29.0337 26.1016C28.7414 26.272 28.4249 26.4181 28.1083 26.5398C27.7917 26.6615 27.4508 26.7832 27.1342 26.8563C26.7933 26.9293 26.4524 27.0024 26.0871 27.0024H25.9654L25.8193 26.978C25.7706 26.978 25.7219 26.978 25.6975 26.9537H25.5271C25.4297 26.9537 25.3566 26.905 25.2592 26.905C25.1618 26.8806 25.0887 26.8563 25.0157 26.8319C24.6748 26.7346 24.3582 26.5885 24.0416 26.4181C23.7251 26.2476 23.4328 26.0285 23.1893 25.7607C22.9458 25.4929 22.7266 25.1764 22.6049 24.8356L22.9458 24.9329C22.8241 25.0303 22.7023 25.1277 22.5562 25.1764C22.5318 25.1764 22.4831 25.2008 22.4588 25.2008C22.4344 25.2008 22.3857 25.2251 22.3614 25.2251C22.2883 25.2494 22.2396 25.2494 22.1666 25.2738C21.8987 25.3225 21.6308 25.3468 21.363 25.3468C20.8516 25.3468 20.3402 25.2738 19.8288 25.1764C19.3175 25.079 18.8304 24.9573 18.3434 24.8112C17.8564 24.6651 17.3693 24.5191 16.8823 24.3243C16.7606 24.2756 16.6388 24.2269 16.517 24.1539C16.3953 24.0808 16.2735 24.0321 16.1518 23.9591C15.9326 23.813 15.7135 23.667 15.4943 23.4965C15.0803 23.1557 14.715 22.8148 14.3741 22.401C14.0332 22.0114 13.7166 21.5975 13.4488 21.1106C13.327 20.8672 13.1809 20.6237 13.0835 20.3559C12.9861 20.0881 12.913 19.7959 12.8887 19.5038L13.4731 19.942C13.3757 19.9664 13.3027 19.9907 13.2296 19.9907C13.1809 19.9907 13.1566 19.9907 13.1079 19.9907H12.9861C12.913 19.9907 12.84 19.9907 12.7669 19.9907C12.6939 19.9907 12.6208 19.9907 12.5478 19.9664C12.2556 19.942 11.9877 19.869 11.7198 19.7959C11.2085 19.6499 10.6971 19.4551 10.21 19.2603C9.72302 19.0656 9.26034 18.8221 8.79766 18.5543C8.55415 18.4326 8.33499 18.2865 8.11583 18.1404C7.89666 17.9943 7.65315 17.8483 7.43399 17.6291L7.33658 17.5561C7.31223 17.5318 7.28788 17.5074 7.26353 17.4831C7.21482 17.4344 7.16612 17.3857 7.09307 17.3126L6.94696 17.1422L6.87391 17.0448L6.80085 16.9475C6.70345 16.8501 6.63039 16.7283 6.55734 16.6066C6.48428 16.4849 6.41123 16.3875 6.33817 16.2658C6.04596 15.8032 5.80244 15.3406 5.55893 14.878C5.31542 14.4155 5.12061 13.9285 4.9258 13.3929C4.90144 13.3199 4.87709 13.2712 4.85274 13.1982L4.77969 13.0034C4.75534 12.9304 4.73098 12.8817 4.70663 12.8086L4.65793 12.6139C4.58488 12.3461 4.53617 12.0296 4.51182 11.6887L5.04755 12.4434C4.48747 12.2487 3.97609 11.9565 3.56212 11.5913C3.51342 11.5426 3.46471 11.4939 3.41601 11.4453C3.36731 11.3966 3.3186 11.3479 3.2699 11.2992C3.1725 11.2018 3.07509 11.1044 3.00204 10.9827C2.83158 10.7636 2.66112 10.5444 2.53936 10.3253C2.24714 9.8871 2.02798 9.40018 1.83317 8.93761C1.63836 8.47504 1.4679 7.98811 1.34614 7.52554C1.07828 6.57605 0.907819 5.60221 0.810413 4.65271C0.761711 4.16579 0.713008 3.70322 0.688657 3.21629C0.664305 2.72937 0.639954 2.2668 0.639954 1.77988C0.639954 1.65815 0.639954 1.53642 0.639954 1.41469V1.31731V1.26861V1.24427C0.639954 1.12254 0.664305 0.97646 0.737359 0.806038C0.810414 0.635616 0.980873 0.440848 1.15133 0.343464C1.32179 0.24608 1.4679 0.221734 1.58966 0.197388C1.71141 0.197388 1.80882 0.197388 1.88187 0.197388C1.97928 0.221734 2.02798 0.24608 2.10104 0.270427C2.17409 0.294773 2.19844 0.319118 2.19844 0.319118L2.24714 0.343464L2.3202 0.392157L2.92898 0.708655L3.2212 0.85473C3.31861 0.903423 3.41601 0.952115 3.53777 1.00081L4.14655 1.29296C4.34136 1.39034 4.56053 1.48773 4.77969 1.58511L5.41282 1.87726C5.8268 2.07203 6.24077 2.24245 6.67909 2.43722C7.09307 2.60764 7.53139 2.80241 7.94537 2.94849L8.5785 3.19195L9.21164 3.43541C9.64996 3.60583 10.0639 3.75191 10.5023 3.89798C10.7214 3.97102 10.9406 4.04406 11.1597 4.1171C11.3789 4.19014 11.5981 4.26317 11.8172 4.33621C12.6939 4.62836 13.5705 4.89617 14.4472 5.16398C15.3238 5.43178 16.2248 5.67524 17.1015 5.89436C17.9781 6.11347 18.8791 6.35693 19.7801 6.5517C20.6811 6.74647 21.5821 6.94124 22.4831 7.136C23.3841 7.33077 24.3095 7.50119 25.2105 7.69596C25.4296 7.74466 25.6732 7.79335 25.8923 7.86638C26.0141 7.89073 26.1115 7.91508 26.2332 7.96377C26.355 7.98812 26.4768 8.03681 26.5985 8.06115C26.6472 8.0855 26.7203 8.10984 26.7933 8.13419C26.842 8.15854 26.9151 8.18288 26.9881 8.20723C27.0368 8.23158 27.1099 8.25592 27.1586 8.28027L27.3291 8.37765C27.5482 8.49938 27.7674 8.64546 27.9865 8.79153C28.1814 8.93761 28.3762 9.10803 28.571 9.25411C28.7658 9.42453 28.9363 9.59495 29.0824 9.78972C29.2528 9.98449 29.3989 10.1549 29.545 10.3497C29.6911 10.5444 29.8372 10.7392 29.959 10.9583C30.0808 11.1531 30.2025 11.3722 30.3243 11.5913C30.446 11.8104 30.5434 12.0296 30.6408 12.2487C30.7383 12.4678 30.8113 12.7112 30.8844 12.9304C30.9574 13.1738 31.0061 13.4173 31.0061 13.6607L30.5678 13.6851C30.5434 13.4903 30.4704 13.2712 30.3973 13.0764C30.3243 12.8817 30.2269 12.6626 30.1051 12.4678C29.9103 12.0782 29.6424 11.6887 29.3746 11.3479C28.8388 10.6418 28.1814 9.98449 27.4752 9.54626C27.1099 9.32715 26.7203 9.13238 26.355 9.05934C26.2576 9.03499 26.1358 9.01065 26.0384 8.9863C25.941 8.96196 25.8193 8.93761 25.6975 8.91326C25.4784 8.86457 25.2592 8.84023 25.0157 8.81588L22.264 8.42634C20.4133 8.15854 18.5626 7.84204 16.7362 7.4525L16.0544 7.30643L15.3725 7.16035C14.9099 7.06297 14.4715 6.94124 14.0089 6.81951C13.5462 6.69778 13.1079 6.57605 12.6452 6.45432C12.1825 6.33259 11.7442 6.18651 11.2815 6.06478C9.55256 5.6022 7.75056 4.99355 5.99726 4.31187C5.77809 4.23883 5.55893 4.14144 5.33977 4.04406C5.12061 3.94668 4.90144 3.87364 4.68228 3.77625L4.02479 3.4841C3.80563 3.38672 3.58647 3.28933 3.36731 3.19195L2.70982 2.8998C2.61241 2.8511 2.49066 2.80241 2.39325 2.75372L2.10104 2.60764L1.4679 2.29115L1.39485 2.24245L1.34614 2.21811C1.32179 2.21811 1.34614 2.21811 1.4192 2.24245C1.4679 2.2668 1.54095 2.29115 1.61401 2.29115C1.68706 2.29115 1.78447 2.31549 1.88187 2.29115C2.00363 2.29115 2.14974 2.24245 2.29585 2.14507C2.46631 2.04769 2.61242 1.87726 2.68547 1.70684C2.75852 1.53642 2.78287 1.39034 2.78287 1.29296C2.78287 1.26861 2.78287 1.29296 2.78287 1.29296V1.39034V1.48773C2.78287 1.60946 2.78287 1.70684 2.78287 1.82857C2.80723 2.72937 2.85593 3.63018 2.92898 4.50663C2.97769 4.94486 3.02639 5.38309 3.09944 5.82132C3.1725 6.25955 3.24555 6.69778 3.34296 7.11166C3.44036 7.52554 3.56212 7.93942 3.68388 8.3533C3.80563 8.74284 3.97609 9.13238 4.1709 9.47322C4.36571 9.81407 4.58488 10.1306 4.82839 10.3984C5.0719 10.6662 5.36412 10.8609 5.68069 10.9827L6.19207 11.2018L6.21642 11.7374C6.21642 11.7861 6.21642 11.8348 6.21642 11.8591V11.9322C6.21642 11.9565 6.21642 11.9809 6.21642 12.0052L6.24077 12.1513V12.2V12.2487L6.28947 12.3461L6.31382 12.5165C6.31382 12.5652 6.33818 12.6139 6.36253 12.6869L6.41123 12.8573C6.41123 12.906 6.43558 12.9547 6.45993 13.0277C6.58169 13.4903 6.75215 13.9285 6.92261 14.3668C7.11742 14.805 7.31223 15.2432 7.55574 15.6571C7.60445 15.7545 7.6775 15.8519 7.7262 15.9736C7.79926 16.071 7.84796 16.1684 7.92101 16.2658L7.96972 16.3388L8.01842 16.4118L8.11583 16.5336L8.21323 16.6553C8.21323 16.6796 8.23758 16.704 8.26193 16.704L8.31064 16.7527C8.45675 16.8988 8.65156 17.0448 8.82202 17.1666C9.01683 17.3126 9.21164 17.4344 9.40645 17.5561C9.82042 17.8239 10.2587 18.043 10.6727 18.2621C11.111 18.4813 11.5494 18.6517 12.012 18.7977C12.2312 18.8708 12.4504 18.9195 12.6695 18.9682C12.8887 18.9925 13.0835 19.0169 13.2296 18.9925L13.7897 18.8951L13.814 19.4307C13.814 19.6255 13.8628 19.8203 13.9358 20.0394C14.0089 20.2585 14.1063 20.4533 14.2037 20.6724C14.4228 21.0863 14.6907 21.4758 14.9829 21.841C15.2751 22.2062 15.616 22.5714 15.957 22.8635C16.1274 23.0096 16.3222 23.1557 16.517 23.3018C16.7119 23.4478 16.9067 23.5452 17.1258 23.6426C17.5642 23.8374 18.0268 24.0321 18.4895 24.1782C18.9522 24.3243 19.4392 24.4704 19.9019 24.5678C20.3646 24.6651 20.8516 24.7625 21.3386 24.7869C21.5821 24.7869 21.8013 24.7869 22.0448 24.7625C22.264 24.7382 22.4831 24.6651 22.6292 24.5434L22.8728 24.3486L22.9702 24.6408C23.0676 24.9329 23.238 25.2251 23.4328 25.4686C23.6276 25.712 23.8955 25.9311 24.1634 26.1016C24.4312 26.272 24.7235 26.4181 25.04 26.5398C25.1131 26.5641 25.1861 26.5885 25.2835 26.6128C25.3566 26.6372 25.454 26.6615 25.5271 26.6859L25.6488 26.7102C25.6975 26.7102 25.7219 26.7346 25.7706 26.7346L25.8923 26.7589H26.0141C26.3307 26.7832 26.6716 26.7346 27.0125 26.6615C27.3291 26.5885 27.67 26.4911 27.9865 26.3937C28.3031 26.2963 28.6197 26.1502 28.9362 26.0042C29.2285 25.8581 29.545 25.6877 29.8129 25.4929L29.886 25.5416Z" fill="white"/>
<path d="M94.4083 54.9009C94.4083 55.4934 94.2909 56.0191 94.056 56.4782C93.8264 56.9319 93.5061 57.3082 93.095 57.6071C92.6892 57.906 92.2435 58.1248 91.7576 58.2636C91.2718 58.4024 90.7566 58.4718 90.212 58.4718H88.9387V61.9146C88.9387 62.1014 88.9681 62.2669 89.0268 62.411C89.0909 62.5498 89.219 62.6565 89.4112 62.7313C89.5073 62.7686 89.6755 62.8033 89.9157 62.8353C90.1613 62.8674 90.3855 62.886 90.5884 62.8914V63.4598H85.7114V62.8914C85.8395 62.8807 86.0237 62.862 86.264 62.8353C86.5095 62.8086 86.6804 62.774 86.7765 62.7313C86.9367 62.6619 87.0514 62.5604 87.1208 62.427C87.1956 62.2936 87.233 62.1228 87.233 61.9146V53.7159C87.233 53.5291 87.2063 53.361 87.1529 53.2115C87.0995 53.0621 86.974 52.95 86.7765 52.8752C86.5736 52.8059 86.3707 52.7578 86.1679 52.7311C85.9703 52.6991 85.7995 52.6778 85.6553 52.6671V52.0986H90.8447C91.9018 52.0986 92.7586 52.3548 93.4153 52.8672C94.0773 53.3743 94.4083 54.0522 94.4083 54.9009ZM91.9738 56.8385C92.1554 56.5823 92.2755 56.318 92.3342 56.0458C92.3929 55.7683 92.4223 55.5201 92.4223 55.3012C92.4223 54.997 92.3849 54.6874 92.3102 54.3725C92.2408 54.0575 92.118 53.7827 91.9418 53.5478C91.7549 53.2969 91.5094 53.1021 91.205 52.9633C90.9007 52.8245 90.5217 52.7551 90.0679 52.7551H88.9387V57.7752H89.7556C90.3322 57.7752 90.7993 57.6872 91.157 57.511C91.52 57.3295 91.7923 57.1053 91.9738 56.8385Z" fill="white"/>
<path d="M107.486 63.4598H102.769V62.8914C102.897 62.8807 103.081 62.8647 103.322 62.8433C103.567 62.822 103.735 62.79 103.826 62.7473C103.986 62.6832 104.104 62.5871 104.178 62.459C104.253 62.3256 104.291 62.1548 104.291 61.9466V57.9033H98.949V61.8585C98.949 62.0454 98.9784 62.2028 99.0371 62.3309C99.1012 62.459 99.224 62.5711 99.4055 62.6672C99.4963 62.7152 99.6564 62.7633 99.886 62.8113C100.121 62.8594 100.305 62.886 100.439 62.8914V63.4598H95.7217V62.8914C95.8498 62.8807 96.034 62.8647 96.2743 62.8433C96.5199 62.822 96.688 62.79 96.7788 62.7473C96.939 62.6832 97.0564 62.5871 97.1312 62.459C97.2059 62.3256 97.2433 62.1548 97.2433 61.9466V53.748C97.2433 53.5771 97.2086 53.4224 97.1392 53.2836C97.0698 53.1395 96.9496 53.0274 96.7788 52.9473C96.6346 52.8779 96.4585 52.8165 96.2502 52.7632C96.0474 52.7098 95.8712 52.6778 95.7217 52.6671V52.0986H100.439V52.6671C100.289 52.6724 100.105 52.6964 99.886 52.7391C99.6724 52.7818 99.5123 52.8219 99.4055 52.8592C99.224 52.9233 99.1012 53.03 99.0371 53.1795C98.9784 53.3289 98.949 53.4917 98.949 53.6679V57.1908H104.291V53.748C104.291 53.5771 104.256 53.4224 104.186 53.2836C104.117 53.1395 103.997 53.0274 103.826 52.9473C103.682 52.8779 103.506 52.8165 103.298 52.7632C103.095 52.7098 102.918 52.6778 102.769 52.6671V52.0986H107.486V52.6671C107.336 52.6724 107.152 52.6964 106.933 52.7391C106.72 52.7818 106.56 52.8219 106.453 52.8592C106.271 52.9233 106.148 53.03 106.084 53.1795C106.026 53.3289 105.996 53.4917 105.996 53.6679V61.8585C105.996 62.0454 106.026 62.2028 106.084 62.3309C106.148 62.459 106.271 62.5711 106.453 62.6672C106.544 62.7152 106.704 62.7633 106.933 62.8113C107.168 62.8594 107.352 62.886 107.486 62.8914V63.4598Z" fill="white"/>
<path d="M118.834 52.6671C118.743 52.6724 118.599 52.7098 118.401 52.7792C118.204 52.8432 118.062 52.9073 117.977 52.9713C117.768 53.0994 117.627 53.1982 117.552 53.2676C117.477 53.337 117.333 53.5184 117.12 53.812C116.703 54.3992 116.319 54.9943 115.967 55.5975C115.614 56.2006 115.174 56.9666 114.645 57.8953C114.448 58.2369 114.317 58.5118 114.253 58.72C114.189 58.9282 114.157 59.2297 114.157 59.6247V61.7945C114.157 61.9866 114.194 62.1548 114.269 62.2989C114.349 62.4377 114.482 62.5498 114.669 62.6352C114.781 62.6779 114.982 62.7313 115.27 62.7953C115.558 62.854 115.79 62.886 115.967 62.8914V63.4598H110.649V62.8914C110.799 62.8807 111.023 62.862 111.322 62.8353C111.621 62.8033 111.829 62.7633 111.946 62.7152C112.139 62.6352 112.269 62.5258 112.339 62.387C112.414 62.2482 112.451 62.0774 112.451 61.8746V59.1123C112.451 59.0269 112.398 58.8721 112.291 58.6479C112.189 58.4184 112.067 58.1649 111.922 57.8873C111.602 57.2681 111.247 56.5983 110.857 55.8777C110.468 55.1571 110.129 54.5406 109.84 54.0282C109.664 53.7239 109.507 53.4944 109.368 53.3396C109.234 53.1848 109.079 53.0487 108.903 52.9313C108.775 52.8512 108.62 52.7898 108.439 52.7471C108.263 52.7044 108.102 52.6778 107.958 52.6671V52.0986H112.803V52.6671C112.259 52.6778 111.874 52.7151 111.65 52.7792C111.426 52.8432 111.314 52.934 111.314 53.0514C111.314 53.0834 111.33 53.1395 111.362 53.2195C111.394 53.2996 111.439 53.401 111.498 53.5238C111.567 53.6626 111.65 53.8227 111.746 54.0042C111.842 54.1803 111.933 54.3511 112.018 54.5166C112.269 54.9916 112.526 55.4667 112.787 55.9417C113.049 56.4115 113.391 57.0253 113.812 57.7832C114.651 56.4328 115.289 55.3813 115.726 54.6287C116.169 53.8707 116.391 53.417 116.391 53.2676C116.391 53.1448 116.346 53.0461 116.255 52.9713C116.164 52.8966 116.044 52.8379 115.894 52.7952C115.74 52.7525 115.571 52.7258 115.39 52.7151C115.208 52.6991 115.04 52.6831 114.885 52.6671V52.0986H118.834V52.6671Z" fill="white"/>
<path d="M126.257 58.2476C126.497 58.5145 126.674 58.8081 126.786 59.1283C126.903 59.4432 126.962 59.8115 126.962 60.2332C126.962 61.2367 126.591 62.064 125.849 62.7152C125.107 63.3664 124.186 63.692 123.086 63.692C122.579 63.692 122.072 63.6146 121.564 63.4598C121.057 63.2997 120.619 63.1076 120.251 62.8834L119.907 63.4679H119.266L119.154 59.5767H119.803C119.936 60.0571 120.091 60.4921 120.267 60.8818C120.448 61.2661 120.686 61.6264 120.98 61.9626C121.257 62.2776 121.58 62.5284 121.949 62.7152C122.322 62.9021 122.755 62.9955 123.246 62.9955C123.614 62.9955 123.935 62.9474 124.207 62.8513C124.485 62.7553 124.709 62.6192 124.88 62.443C125.051 62.2669 125.176 62.0614 125.256 61.8265C125.342 61.5863 125.384 61.3114 125.384 61.0018C125.384 60.5481 125.256 60.1265 125 59.7368C124.744 59.3418 124.362 59.0429 123.855 58.8401C123.508 58.7013 123.11 58.5492 122.661 58.3837C122.213 58.2129 121.826 58.0528 121.5 57.9033C120.86 57.6151 120.36 57.2388 120.003 56.7744C119.65 56.3047 119.474 55.6935 119.474 54.9409C119.474 54.5086 119.562 54.1056 119.738 53.7319C119.915 53.3583 120.166 53.0247 120.491 52.7311C120.801 52.4536 121.167 52.2374 121.588 52.0826C122.01 51.9225 122.451 51.8424 122.91 51.8424C123.433 51.8424 123.9 51.9225 124.311 52.0826C124.728 52.2427 125.107 52.4296 125.448 52.6431L125.777 52.0986H126.417L126.481 55.8697H125.833C125.715 55.4373 125.582 55.0237 125.432 54.6287C125.288 54.2337 125.099 53.8761 124.864 53.5558C124.634 53.2462 124.354 53.0007 124.023 52.8192C123.692 52.6324 123.286 52.539 122.806 52.539C122.298 52.539 121.866 52.7018 121.508 53.0274C121.151 53.353 120.972 53.7506 120.972 54.2203C120.972 54.7114 121.086 55.1197 121.316 55.4453C121.546 55.7656 121.879 56.0298 122.317 56.238C122.707 56.4248 123.089 56.5876 123.462 56.7264C123.841 56.8598 124.207 57.0039 124.559 57.1587C124.88 57.2975 125.187 57.455 125.48 57.6311C125.779 57.8073 126.038 58.0128 126.257 58.2476Z" fill="white"/>
<path d="M133.36 63.4598H128.243V62.8914C128.387 62.8807 128.596 62.8647 128.868 62.8433C129.14 62.822 129.332 62.79 129.444 62.7473C129.621 62.6779 129.749 62.5845 129.829 62.467C129.909 62.3443 129.949 62.1761 129.949 61.9626V53.7319C129.949 53.5451 129.92 53.3903 129.861 53.2676C129.802 53.1395 129.663 53.0327 129.444 52.9473C129.284 52.8833 129.081 52.8245 128.836 52.7712C128.596 52.7124 128.398 52.6778 128.243 52.6671V52.0986H133.36V52.6671C133.195 52.6724 132.997 52.6938 132.768 52.7311C132.538 52.7632 132.338 52.8059 132.167 52.8592C131.964 52.9233 131.828 53.0274 131.759 53.1715C131.689 53.3156 131.655 53.4757 131.655 53.6519V61.8746C131.655 62.0507 131.692 62.2082 131.767 62.3469C131.847 62.4804 131.98 62.5871 132.167 62.6672C132.279 62.7099 132.461 62.7579 132.712 62.8113C132.968 62.8594 133.184 62.886 133.36 62.8914V63.4598Z" fill="white"/>
<path d="M139.791 63.7241C139.113 63.7241 138.462 63.5906 137.837 63.3237C137.218 63.0569 136.668 62.6725 136.187 62.1708C135.712 61.6691 135.333 61.0579 135.05 60.3373C134.767 59.6114 134.626 58.7947 134.626 57.8873C134.626 56.9799 134.765 56.1579 135.042 55.4213C135.32 54.6794 135.704 54.0415 136.195 53.5078C136.681 52.9793 137.255 52.571 137.917 52.2828C138.579 51.9945 139.287 51.8504 140.039 51.8504C140.6 51.8504 141.107 51.9198 141.561 52.0586C142.015 52.1974 142.447 52.3922 142.858 52.6431L143.187 52.0986H143.827L143.899 56.1499H143.243C143.157 55.7549 143.029 55.3279 142.858 54.8689C142.687 54.4045 142.487 54.0122 142.258 53.6919C142.001 53.3289 141.697 53.0461 141.345 52.8432C140.992 52.6351 140.589 52.531 140.135 52.531C139.618 52.531 139.134 52.6457 138.686 52.8752C138.243 53.1048 137.858 53.4437 137.533 53.8921C137.223 54.3244 136.98 54.8742 136.804 55.5414C136.628 56.2086 136.54 56.9532 136.54 57.7752C136.54 58.5011 136.63 59.1684 136.812 59.7769C136.999 60.38 137.263 60.9111 137.605 61.3701C137.947 61.8238 138.35 62.1788 138.814 62.435C139.284 62.6912 139.807 62.8193 140.384 62.8193C140.816 62.8193 141.214 62.7526 141.577 62.6192C141.94 62.4804 142.255 62.2989 142.522 62.0747C142.789 61.8399 143.024 61.573 143.227 61.2741C143.429 60.9752 143.595 60.6496 143.723 60.2973L144.324 60.5855C143.865 61.7118 143.256 62.5177 142.498 63.0035C141.74 63.4839 140.837 63.7241 139.791 63.7241Z" fill="white"/>
<path d="M155.92 63.4598H151.187V62.8914C151.603 62.8647 151.948 62.8113 152.22 62.7313C152.498 62.6512 152.636 62.5524 152.636 62.435C152.636 62.387 152.631 62.3283 152.62 62.2589C152.61 62.1895 152.594 62.1281 152.572 62.0747L151.627 59.5287H147.647C147.498 59.9023 147.375 60.2279 147.279 60.5054C147.188 60.783 147.105 61.0392 147.031 61.2741C146.961 61.5036 146.913 61.6904 146.886 61.8345C146.86 61.9786 146.846 62.0961 146.846 62.1868C146.846 62.4003 147.015 62.5658 147.351 62.6832C147.687 62.8006 148.066 62.87 148.488 62.8914V63.4598H144.212V62.8914C144.35 62.8807 144.524 62.8514 144.732 62.8033C144.94 62.7499 145.111 62.6805 145.245 62.5951C145.458 62.451 145.624 62.3016 145.741 62.1468C145.859 61.9866 145.973 61.7678 146.086 61.4902C146.657 60.0651 147.287 58.4638 147.976 56.6863C148.664 54.9089 149.278 53.3263 149.817 51.9385H150.458L154.246 61.7384C154.326 61.9466 154.417 62.1148 154.518 62.2429C154.62 62.371 154.761 62.4964 154.943 62.6192C155.065 62.6939 155.226 62.7579 155.423 62.8113C155.621 62.8594 155.786 62.886 155.92 62.8914V63.4598ZM151.339 58.8161L149.617 54.4125L147.927 58.8161H151.339Z" fill="white"/>
<path d="M165.45 60.0811L165.209 63.4598H156.328V62.8914C156.456 62.8807 156.64 62.862 156.881 62.8353C157.126 62.8086 157.297 62.774 157.393 62.7313C157.553 62.6619 157.668 62.5604 157.738 62.427C157.812 62.2936 157.85 62.1228 157.85 61.9146V53.78C157.85 53.5985 157.818 53.4384 157.754 53.2996C157.695 53.1608 157.575 53.0487 157.393 52.9633C157.27 52.8993 157.097 52.8379 156.873 52.7792C156.654 52.7151 156.472 52.6778 156.328 52.6671V52.0986H161.125V52.6671C160.976 52.6724 160.781 52.6991 160.54 52.7471C160.306 52.7952 160.135 52.8379 160.028 52.8752C159.846 52.9393 159.721 53.0487 159.652 53.2035C159.587 53.3583 159.555 53.5238 159.555 53.6999V61.3301C159.555 61.6824 159.571 61.9573 159.603 62.1548C159.641 62.3469 159.724 62.4964 159.852 62.6031C159.975 62.6992 160.156 62.7633 160.396 62.7953C160.642 62.822 160.984 62.8353 161.421 62.8353C161.619 62.8353 161.824 62.83 162.038 62.8193C162.252 62.8086 162.454 62.7873 162.647 62.7553C162.833 62.7232 163.004 62.6805 163.159 62.6272C163.319 62.5685 163.437 62.4964 163.512 62.411C163.73 62.1655 163.984 61.7945 164.272 61.2981C164.566 60.7963 164.769 60.3907 164.881 60.0811H165.45Z" fill="white"/>
<path d="M179.416 55.1811H178.863C178.815 54.989 178.727 54.7621 178.599 54.5006C178.476 54.2337 178.337 53.9828 178.183 53.748C178.022 53.5024 177.846 53.2889 177.654 53.1074C177.467 52.9206 177.286 52.8139 177.11 52.7872C176.944 52.7658 176.736 52.7498 176.485 52.7391C176.234 52.7285 176.002 52.7231 175.788 52.7231H175.324V61.8105C175.324 61.9866 175.361 62.1494 175.436 62.2989C175.511 62.443 175.641 62.5551 175.828 62.6352C175.924 62.6725 176.125 62.7232 176.429 62.7873C176.738 62.8513 176.979 62.886 177.15 62.8914V63.4598H171.784V62.8914C171.934 62.8807 172.16 62.8594 172.465 62.8273C172.774 62.7953 172.988 62.7553 173.105 62.7072C173.282 62.6378 173.41 62.5391 173.49 62.411C173.575 62.2776 173.618 62.1014 173.618 61.8826V52.7231H173.153C172.988 52.7231 172.782 52.7285 172.537 52.7391C172.291 52.7445 172.056 52.7605 171.832 52.7872C171.656 52.8085 171.472 52.9153 171.28 53.1074C171.093 53.2943 170.919 53.5078 170.759 53.748C170.599 53.9882 170.457 54.2444 170.335 54.5166C170.212 54.7835 170.126 55.005 170.078 55.1811H169.518V52.0986H179.416V55.1811Z" fill="white"/>
<path d="M192.101 63.4598H187.384V62.8914C187.512 62.8807 187.696 62.8647 187.937 62.8433C188.182 62.822 188.35 62.79 188.441 62.7473C188.601 62.6832 188.719 62.5871 188.794 62.459C188.868 62.3256 188.906 62.1548 188.906 61.9466V57.9033H183.564V61.8585C183.564 62.0454 183.594 62.2028 183.652 62.3309C183.716 62.459 183.839 62.5711 184.021 62.6672C184.111 62.7152 184.272 62.7633 184.501 62.8113C184.736 62.8594 184.92 62.886 185.054 62.8914V63.4598H180.337V62.8914C180.465 62.8807 180.649 62.8647 180.889 62.8433C181.135 62.822 181.303 62.79 181.394 62.7473C181.554 62.6832 181.672 62.5871 181.746 62.459C181.821 62.3256 181.858 62.1548 181.858 61.9466V53.748C181.858 53.5771 181.824 53.4224 181.754 53.2836C181.685 53.1395 181.565 53.0274 181.394 52.9473C181.25 52.8779 181.074 52.8165 180.865 52.7632C180.663 52.7098 180.486 52.6778 180.337 52.6671V52.0986H185.054V52.6671C184.904 52.6724 184.72 52.6964 184.501 52.7391C184.288 52.7818 184.127 52.8219 184.021 52.8592C183.839 52.9233 183.716 53.03 183.652 53.1795C183.594 53.3289 183.564 53.4917 183.564 53.6679V57.1908H188.906V53.748C188.906 53.5771 188.871 53.4224 188.802 53.2836C188.732 53.1395 188.612 53.0274 188.441 52.9473C188.297 52.8779 188.121 52.8165 187.913 52.7632C187.71 52.7098 187.534 52.6778 187.384 52.6671V52.0986H192.101V52.6671C191.951 52.6724 191.767 52.6964 191.548 52.7391C191.335 52.7818 191.175 52.8219 191.068 52.8592C190.886 52.9233 190.764 53.03 190.7 53.1795C190.641 53.3289 190.611 53.4917 190.611 53.6679V61.8585C190.611 62.0454 190.641 62.2028 190.7 62.3309C190.764 62.459 190.886 62.5711 191.068 62.6672C191.159 62.7152 191.319 62.7633 191.548 62.8113C191.783 62.8594 191.967 62.886 192.101 62.8914V63.4598Z" fill="white"/>
<path d="M203.264 60.1131L203.048 63.4598H193.615V62.8914C193.775 62.8807 193.988 62.8594 194.255 62.8273C194.522 62.79 194.696 62.7526 194.776 62.7152C194.947 62.6352 195.064 62.5311 195.128 62.403C195.197 62.2749 195.232 62.1121 195.232 61.9146V53.748C195.232 53.5718 195.203 53.417 195.144 53.2836C195.085 53.1448 194.963 53.0327 194.776 52.9473C194.632 52.8779 194.437 52.8165 194.191 52.7632C193.951 52.7098 193.759 52.6778 193.615 52.6671V52.0986H202.408V54.8368H201.807C201.7 54.4312 201.468 54.0015 201.11 53.5478C200.758 53.0888 200.422 52.8379 200.101 52.7952C199.936 52.7738 199.738 52.7578 199.509 52.7471C199.279 52.7365 199.017 52.7311 198.724 52.7311H196.938V57.2468H198.219C198.63 57.2468 198.929 57.2094 199.116 57.1347C199.308 57.0546 199.477 56.9239 199.621 56.7424C199.738 56.5876 199.837 56.3821 199.917 56.1259C200.002 55.8643 200.058 55.6188 200.085 55.3893H200.686V59.8329H200.085C200.064 59.5767 200.005 59.3071 199.909 59.0242C199.818 58.736 199.722 58.5278 199.621 58.3997C199.455 58.1916 199.266 58.0555 199.052 57.9914C198.844 57.9274 198.566 57.8953 198.219 57.8953H196.938V61.3061C196.938 61.6477 196.962 61.9173 197.01 62.1148C197.058 62.3122 197.151 62.4617 197.29 62.5631C197.429 62.6645 197.619 62.7313 197.859 62.7633C198.099 62.79 198.441 62.8033 198.884 62.8033C199.06 62.8033 199.292 62.8033 199.581 62.8033C199.869 62.8033 200.112 62.7926 200.309 62.7713C200.512 62.7499 200.72 62.7126 200.934 62.6592C201.153 62.6005 201.308 62.5231 201.399 62.427C201.644 62.1708 201.9 61.7838 202.167 61.2661C202.44 60.743 202.613 60.3587 202.688 60.1131H203.264Z" fill="white"/>
<path d="M215.493 63.4598H212.434C211.756 62.3976 211.142 61.4796 210.592 60.7056C210.047 59.9316 209.455 59.1337 208.814 58.3117H207.653V61.9146C207.653 62.1014 207.682 62.2669 207.741 62.411C207.8 62.5498 207.925 62.6565 208.117 62.7313C208.214 62.7686 208.382 62.8033 208.622 62.8353C208.862 62.8674 209.065 62.886 209.231 62.8914V63.4598H204.426V62.8914C204.554 62.8807 204.738 62.862 204.978 62.8353C205.224 62.8086 205.395 62.774 205.491 62.7313C205.651 62.6619 205.766 62.5604 205.835 62.427C205.91 62.2936 205.947 62.1228 205.947 61.9146V53.6999C205.947 53.5131 205.921 53.3476 205.867 53.2035C205.814 53.0594 205.688 52.95 205.491 52.8752C205.357 52.8272 205.184 52.7845 204.97 52.7471C204.757 52.7044 204.575 52.6778 204.426 52.6671V52.0986H209.671C210.152 52.0986 210.603 52.1493 211.024 52.2507C211.446 52.3468 211.828 52.5043 212.17 52.7231C212.501 52.9366 212.765 53.2169 212.962 53.5638C213.16 53.9054 213.259 54.3191 213.259 54.8048C213.259 55.2425 213.192 55.6295 213.059 55.9658C212.925 56.302 212.728 56.5929 212.466 56.8385C212.226 57.068 211.937 57.2681 211.601 57.439C211.265 57.6044 210.894 57.7459 210.488 57.8633C211.048 58.6052 211.513 59.2297 211.881 59.7368C212.255 60.2439 212.712 60.8604 213.251 61.5863C213.486 61.9066 213.697 62.1441 213.883 62.2989C214.076 62.4484 214.265 62.5711 214.452 62.6672C214.591 62.7366 214.764 62.79 214.973 62.8273C215.181 62.8647 215.354 62.886 215.493 62.8914V63.4598ZM211.281 54.989C211.281 54.3004 211.083 53.756 210.688 53.3556C210.293 52.95 209.735 52.7471 209.014 52.7471H207.653V57.6231H208.702C209.439 57.6231 210.053 57.3882 210.544 56.9185C211.035 56.4435 211.281 55.8003 211.281 54.989Z" fill="white"/>
<path d="M226.536 63.4598H221.804V62.8914C222.22 62.8647 222.564 62.8113 222.837 62.7313C223.114 62.6512 223.253 62.5524 223.253 62.435C223.253 62.387 223.248 62.3283 223.237 62.2589C223.226 62.1895 223.21 62.1281 223.189 62.0747L222.244 59.5287H218.264C218.114 59.9023 217.992 60.2279 217.895 60.5054C217.805 60.783 217.722 61.0392 217.647 61.2741C217.578 61.5036 217.53 61.6904 217.503 61.8345C217.476 61.9786 217.463 62.0961 217.463 62.1868C217.463 62.4003 217.631 62.5658 217.968 62.6832C218.304 62.8006 218.683 62.87 219.105 62.8914V63.4598H214.828V62.8914C214.967 62.8807 215.141 62.8514 215.349 62.8033C215.557 62.7499 215.728 62.6805 215.861 62.5951C216.075 62.451 216.24 62.3016 216.358 62.1468C216.475 61.9866 216.59 61.7678 216.702 61.4902C217.274 60.0651 217.904 58.4638 218.592 56.6863C219.281 54.9089 219.895 53.3263 220.434 51.9385H221.075L224.863 61.7384C224.943 61.9466 225.034 62.1148 225.135 62.2429C225.236 62.371 225.378 62.4964 225.559 62.6192C225.682 62.6939 225.842 62.7579 226.04 62.8113C226.237 62.8594 226.403 62.886 226.536 62.8914V63.4598ZM221.956 58.8161L220.234 54.4125L218.544 58.8161H221.956Z" fill="white"/>
<path d="M235.642 54.9009C235.642 55.4934 235.524 56.0191 235.289 56.4782C235.06 56.9319 234.74 57.3082 234.328 57.6071C233.923 57.906 233.477 58.1248 232.991 58.2636C232.505 58.4024 231.99 58.4718 231.445 58.4718H230.172V61.9146C230.172 62.1014 230.202 62.2669 230.26 62.411C230.324 62.5498 230.452 62.6565 230.645 62.7313C230.741 62.7686 230.909 62.8033 231.149 62.8353C231.395 62.8674 231.619 62.886 231.822 62.8914V63.4598H226.945V62.8914C227.073 62.8807 227.257 62.862 227.497 62.8353C227.743 62.8086 227.914 62.774 228.01 62.7313C228.17 62.6619 228.285 62.5604 228.354 62.427C228.429 62.2936 228.466 62.1228 228.466 61.9146V53.7159C228.466 53.5291 228.44 53.361 228.386 53.2115C228.333 53.0621 228.207 52.95 228.01 52.8752C227.807 52.8059 227.604 52.7578 227.401 52.7311C227.204 52.6991 227.033 52.6778 226.889 52.6671V52.0986H232.078C233.135 52.0986 233.992 52.3548 234.649 52.8672C235.311 53.3743 235.642 54.0522 235.642 54.9009ZM233.207 56.8385C233.389 56.5823 233.509 56.318 233.568 56.0458C233.626 55.7683 233.656 55.5201 233.656 55.3012C233.656 54.997 233.618 54.6874 233.544 54.3725C233.474 54.0575 233.351 53.7827 233.175 53.5478C232.988 53.2969 232.743 53.1021 232.438 52.9633C232.134 52.8245 231.755 52.7551 231.301 52.7551H230.172V57.7752H230.989C231.566 57.7752 232.033 57.6872 232.39 57.511C232.753 57.3295 233.026 57.1053 233.207 56.8385Z" fill="white"/>
<path d="M246.693 52.6671C246.602 52.6724 246.458 52.7098 246.261 52.7792C246.063 52.8432 245.922 52.9073 245.836 52.9713C245.628 53.0994 245.487 53.1982 245.412 53.2676C245.337 53.337 245.193 53.5184 244.979 53.812C244.563 54.3992 244.179 54.9943 243.826 55.5975C243.474 56.2006 243.033 56.9666 242.505 57.8953C242.307 58.2369 242.177 58.5118 242.112 58.72C242.048 58.9282 242.016 59.2297 242.016 59.6247V61.7945C242.016 61.9866 242.054 62.1548 242.128 62.2989C242.209 62.4377 242.342 62.5498 242.529 62.6352C242.641 62.6779 242.841 62.7313 243.13 62.7953C243.418 62.854 243.65 62.886 243.826 62.8914V63.4598H238.509V62.8914C238.658 62.8807 238.882 62.862 239.181 62.8353C239.48 62.8033 239.689 62.7633 239.806 62.7152C239.998 62.6352 240.129 62.5258 240.198 62.387C240.273 62.2482 240.311 62.0774 240.311 61.8746V59.1123C240.311 59.0269 240.257 58.8721 240.15 58.6479C240.049 58.4184 239.926 58.1649 239.782 57.8873C239.462 57.2681 239.107 56.5983 238.717 55.8777C238.327 55.1571 237.988 54.5406 237.7 54.0282C237.524 53.7239 237.366 53.4944 237.227 53.3396C237.094 53.1848 236.939 53.0487 236.763 52.9313C236.635 52.8512 236.48 52.7898 236.298 52.7471C236.122 52.7044 235.962 52.6778 235.818 52.6671V52.0986H240.663V52.6671C240.118 52.6778 239.734 52.7151 239.51 52.7792C239.286 52.8432 239.173 52.934 239.173 53.0514C239.173 53.0834 239.189 53.1395 239.221 53.2195C239.254 53.2996 239.299 53.401 239.358 53.5238C239.427 53.6626 239.51 53.8227 239.606 54.0042C239.702 54.1803 239.793 54.3511 239.878 54.5166C240.129 54.9916 240.385 55.4667 240.647 55.9417C240.909 56.4115 241.25 57.0253 241.672 57.7832C242.51 56.4328 243.148 55.3813 243.586 54.6287C244.029 53.8707 244.251 53.417 244.251 53.2676C244.251 53.1448 244.205 53.0461 244.115 52.9713C244.024 52.8966 243.904 52.8379 243.754 52.7952C243.599 52.7525 243.431 52.7258 243.25 52.7151C243.068 52.6991 242.9 52.6831 242.745 52.6671V52.0986H246.693V52.6671Z" fill="white"/>
<path d="M91.7394 41.0292C90.7648 41.0292 89.8526 40.8731 89.0029 40.5608C88.1533 40.2422 87.4129 39.7831 86.7819 39.1835C86.1634 38.5963 85.6761 37.8718 85.32 37.0098C84.9639 36.1416 84.7858 35.189 84.7858 34.1522C84.7858 33.1215 84.9639 32.169 85.32 31.2945C85.6824 30.4138 86.1884 29.6518 86.8382 29.0084C87.4754 28.3775 88.2407 27.8903 89.1341 27.5468C90.0275 27.197 90.9834 27.0221 92.0018 27.0221C92.739 27.0221 93.4106 27.1127 94.0166 27.2938C94.6226 27.4687 95.1349 27.6686 95.5535 27.8935L96.1345 27.3782H96.9498L97.0342 32.2315H96.2095C95.7409 30.7511 95.1787 29.6643 94.5227 28.9709C93.8667 28.2776 93.067 27.9309 92.1236 27.9309C90.9491 27.9309 90.0557 28.4494 89.4434 29.4862C88.8311 30.5169 88.525 31.966 88.525 33.8336C88.525 34.8892 88.6281 35.7918 88.8343 36.5413C89.0467 37.2846 89.3216 37.8843 89.6589 38.3402C90.0213 38.8149 90.4492 39.1647 90.9428 39.3896C91.4364 39.6082 91.983 39.7175 92.5828 39.7175C93.4575 39.7175 94.2353 39.4802 94.9163 39.0055C95.6035 38.5307 96.2282 37.8124 96.7905 36.8505L97.5965 37.3377C97.3278 37.8874 97.0217 38.3808 96.6781 38.8181C96.3345 39.2491 95.9377 39.6207 95.4879 39.933C94.9944 40.2766 94.4477 40.5451 93.8479 40.7388C93.2544 40.9324 92.5516 41.0292 91.7394 41.0292Z" fill="white"/>
<path d="M114.737 40.6732H107.549V39.9424C107.705 39.9299 107.933 39.9112 108.233 39.8862C108.533 39.8612 108.739 39.8237 108.851 39.7737C109.083 39.68 109.242 39.5582 109.329 39.4083C109.417 39.2522 109.461 39.0554 109.461 38.8181V34.2365H103.782V38.715C103.782 38.9274 103.825 39.1179 103.913 39.2865C104.006 39.4552 104.163 39.5864 104.381 39.68C104.5 39.73 104.703 39.7831 104.99 39.8393C105.278 39.8955 105.512 39.9299 105.693 39.9424V40.6732H98.5055V39.9424C98.6617 39.9361 98.8897 39.9174 99.1896 39.8862C99.4957 39.8487 99.7175 39.805 99.855 39.755C100.08 39.6738 100.236 39.552 100.324 39.3896C100.411 39.2209 100.455 39.0242 100.455 38.7993V29.3926C100.455 29.1739 100.414 28.9897 100.333 28.8398C100.258 28.6899 100.099 28.5587 99.855 28.4463C99.6738 28.3651 99.4364 28.2932 99.1427 28.2308C98.8491 28.1621 98.6367 28.1215 98.5055 28.109V27.3782H105.693V28.109C105.5 28.1215 105.268 28.1527 105 28.2027C104.731 28.2526 104.525 28.2995 104.381 28.3432C104.138 28.4244 103.975 28.5556 103.894 28.7367C103.819 28.9116 103.782 29.099 103.782 29.2989V33.2714H109.461V29.3926C109.461 29.1739 109.42 28.9897 109.339 28.8398C109.258 28.6899 109.095 28.5587 108.851 28.4463C108.689 28.3713 108.47 28.3026 108.195 28.2401C107.927 28.1714 107.711 28.1277 107.549 28.109V27.3782H114.737V28.109C114.537 28.1215 114.312 28.1496 114.062 28.1933C113.812 28.2308 113.587 28.2807 113.387 28.3432C113.15 28.4244 112.99 28.5524 112.909 28.7273C112.828 28.9022 112.787 29.0927 112.787 29.2989V38.715C112.787 38.9399 112.828 39.1304 112.909 39.2865C112.99 39.4427 113.15 39.5739 113.387 39.68C113.537 39.7425 113.753 39.7987 114.034 39.8487C114.321 39.8987 114.555 39.9299 114.737 39.9424V40.6732Z" fill="white"/>
<path d="M123.349 40.6732H115.974V39.9424C116.142 39.9299 116.389 39.9112 116.714 39.8862C117.045 39.8612 117.273 39.8237 117.398 39.7737C117.629 39.68 117.785 39.5582 117.867 39.4083C117.954 39.2522 117.998 39.0554 117.998 38.8181V29.3926C117.998 29.1802 117.957 28.9928 117.876 28.8304C117.795 28.668 117.636 28.5368 117.398 28.4369C117.248 28.3744 117.026 28.312 116.733 28.2495C116.439 28.1808 116.186 28.1339 115.974 28.109V27.3782H123.349V28.109C123.162 28.1277 122.927 28.1558 122.646 28.1933C122.365 28.2245 122.128 28.2714 121.934 28.3338C121.69 28.415 121.528 28.5431 121.447 28.718C121.365 28.8866 121.325 29.0802 121.325 29.2989V38.715C121.325 38.9399 121.365 39.1335 121.447 39.2959C121.534 39.4521 121.696 39.5801 121.934 39.68C122.065 39.7363 122.281 39.7925 122.58 39.8487C122.887 39.8987 123.143 39.9299 123.349 39.9424V40.6732Z" fill="white"/>
<path d="M139.861 40.6732H134.763C133.882 39.324 133.148 38.2497 132.561 37.4502C131.98 36.6506 131.255 35.7262 130.387 34.6768H129.871V38.715C129.871 38.9399 129.912 39.1304 129.993 39.2865C130.081 39.4427 130.243 39.5739 130.481 39.68C130.599 39.73 130.784 39.7831 131.033 39.8393C131.29 39.8893 131.508 39.9236 131.689 39.9424V40.6732H124.595V39.9424C124.777 39.9236 125.014 39.8987 125.308 39.8674C125.607 39.83 125.82 39.7862 125.945 39.7363C126.182 39.6363 126.342 39.5114 126.423 39.3615C126.504 39.2053 126.545 39.0086 126.545 38.7712V29.3926C126.545 29.1677 126.51 28.9803 126.441 28.8304C126.373 28.6805 126.207 28.5493 125.945 28.4369C125.745 28.3557 125.507 28.287 125.233 28.2308C124.964 28.1745 124.752 28.1339 124.595 28.109V27.3782H132.055C133.723 27.3782 134.988 27.6405 135.85 28.1652C136.719 28.6836 137.153 29.4706 137.153 30.5262C137.153 31.4569 136.884 32.2065 136.347 32.7749C135.816 33.337 135.004 33.7774 133.91 34.0959C134.335 34.6456 134.829 35.2827 135.391 36.0073C135.96 36.7318 136.55 37.472 137.162 38.2278C137.356 38.4714 137.618 38.7712 137.95 39.1273C138.287 39.477 138.584 39.6925 138.84 39.7737C138.983 39.8175 139.165 39.8549 139.383 39.8862C139.608 39.9174 139.768 39.9361 139.861 39.9424V40.6732ZM133.479 30.7886C133.479 29.9016 133.229 29.2551 132.73 28.8491C132.236 28.4369 131.53 28.2308 130.612 28.2308H129.871V33.7961H130.584C131.502 33.7961 132.214 33.5556 132.72 33.0747C133.226 32.5937 133.479 31.8317 133.479 30.7886Z" fill="white"/>
<path d="M152.194 28.8585C152.85 29.4581 153.369 30.1827 153.75 31.0322C154.137 31.8817 154.331 32.8498 154.331 33.9367C154.331 34.9048 154.168 35.8261 153.843 36.7006C153.518 37.5751 153.05 38.3277 152.438 38.9586C151.794 39.6145 151.038 40.1266 150.17 40.4952C149.301 40.8575 148.267 41.0386 147.068 41.0386C146.099 41.0386 145.184 40.8793 144.322 40.5608C143.46 40.2422 142.701 39.78 142.045 39.1741C141.395 38.5807 140.88 37.8593 140.499 37.0098C140.117 36.1603 139.927 35.214 139.927 34.1709C139.927 33.0841 140.111 32.1003 140.48 31.2196C140.855 30.3326 141.367 29.5737 142.017 28.9428C142.66 28.3245 143.422 27.8497 144.303 27.5187C145.19 27.1814 146.134 27.0128 147.133 27.0128C148.127 27.0128 149.058 27.1752 149.926 27.5C150.801 27.8248 151.557 28.2776 152.194 28.8585ZM149.786 38.3683C150.067 37.7999 150.27 37.1566 150.395 36.4383C150.52 35.72 150.582 34.9079 150.582 34.0022C150.582 33.234 150.526 32.4875 150.413 31.763C150.307 31.0322 150.123 30.3826 149.861 29.8142C149.592 29.2458 149.236 28.7898 148.792 28.4463C148.349 28.1027 147.796 27.9309 147.133 27.9309C146.003 27.9309 145.144 28.4681 144.556 29.5425C143.969 30.6106 143.675 32.1221 143.675 34.0772C143.675 34.9079 143.738 35.6918 143.863 36.4289C143.994 37.1659 144.197 37.8093 144.472 38.359C144.753 38.9149 145.109 39.349 145.54 39.6613C145.971 39.9674 146.502 40.1204 147.133 40.1204C147.752 40.1204 148.283 39.9642 148.727 39.6519C149.17 39.3396 149.523 38.9118 149.786 38.3683Z" fill="white"/>
<path d="M168.116 30.7043C168.116 31.4538 167.96 32.1003 167.647 32.6437C167.341 33.1809 166.916 33.6181 166.373 33.9554C165.811 34.3052 165.167 34.5582 164.442 34.7143C163.724 34.8705 162.915 34.9485 162.015 34.9485H160.928V38.6869C160.928 38.9118 160.969 39.1085 161.05 39.2772C161.137 39.4396 161.3 39.5707 161.537 39.6707C161.662 39.7206 161.865 39.7737 162.146 39.83C162.427 39.8862 162.665 39.9236 162.859 39.9424V40.6732H155.652V39.9424C155.833 39.9236 156.074 39.8987 156.374 39.8674C156.673 39.83 156.883 39.7862 157.001 39.7363C157.245 39.6363 157.404 39.5145 157.479 39.3709C157.561 39.2272 157.601 39.0273 157.601 38.7712V29.3926C157.601 29.1739 157.564 28.9865 157.489 28.8304C157.414 28.668 157.251 28.5337 157.001 28.4275C156.827 28.3526 156.592 28.287 156.299 28.2308C156.011 28.1683 155.796 28.1277 155.652 28.109V27.3782H162.99C164.708 27.3782 165.992 27.653 166.841 28.2027C167.691 28.7461 168.116 29.5799 168.116 30.7043ZM164.461 31.1821C164.461 30.1827 164.258 29.4425 163.852 28.9616C163.452 28.4744 162.737 28.2308 161.706 28.2308H160.928V34.0678H161.322C162.346 34.0678 163.124 33.8336 163.655 33.3651C164.192 32.8904 164.461 32.1627 164.461 31.1821Z" fill="white"/>
<path d="M184.375 40.6732H179.277C178.396 39.324 177.662 38.2497 177.075 37.4502C176.494 36.6506 175.769 35.7262 174.901 34.6768H174.385V38.715C174.385 38.9399 174.426 39.1304 174.507 39.2865C174.595 39.4427 174.757 39.5739 174.994 39.68C175.113 39.73 175.297 39.7831 175.547 39.8393C175.804 39.8893 176.022 39.9236 176.203 39.9424V40.6732H169.109V39.9424C169.29 39.9236 169.528 39.8987 169.821 39.8674C170.121 39.83 170.334 39.7862 170.459 39.7363C170.696 39.6363 170.855 39.5114 170.937 39.3615C171.018 39.2053 171.059 39.0086 171.059 38.7712V29.3926C171.059 29.1677 171.024 28.9803 170.955 28.8304C170.887 28.6805 170.721 28.5493 170.459 28.4369C170.259 28.3557 170.021 28.287 169.747 28.2308C169.478 28.1745 169.265 28.1339 169.109 28.109V27.3782H176.569C178.237 27.3782 179.502 27.6405 180.364 28.1652C181.233 28.6836 181.667 29.4706 181.667 30.5262C181.667 31.4569 181.398 32.2065 180.861 32.7749C180.33 33.337 179.518 33.7774 178.424 34.0959C178.849 34.6456 179.343 35.2827 179.905 36.0073C180.474 36.7318 181.064 37.472 181.676 38.2278C181.87 38.4714 182.132 38.7712 182.463 39.1273C182.801 39.477 183.098 39.6925 183.354 39.7737C183.497 39.8175 183.679 39.8549 183.897 39.8862C184.122 39.9174 184.281 39.9361 184.375 39.9424V40.6732ZM177.993 30.7886C177.993 29.9016 177.743 29.2551 177.244 28.8491C176.75 28.4369 176.044 28.2308 175.126 28.2308H174.385V33.7961H175.098C176.016 33.7961 176.728 33.5556 177.234 33.0747C177.74 32.5937 177.993 31.8317 177.993 30.7886Z" fill="white"/>
<path d="M198.854 40.6732H191.61V39.9424C191.947 39.9174 192.344 39.8581 192.8 39.7644C193.256 39.6644 193.484 39.5426 193.484 39.399C193.484 39.349 193.478 39.2928 193.465 39.2303C193.459 39.1679 193.434 39.0835 193.39 38.9773L192.257 36.2228H187.665C187.558 36.4789 187.44 36.7787 187.308 37.1222C187.183 37.4658 187.074 37.7718 186.98 38.0404C186.862 38.3902 186.79 38.6432 186.765 38.7993C186.746 38.9555 186.737 39.0648 186.737 39.1273C186.737 39.3271 186.887 39.4989 187.187 39.6426C187.493 39.78 187.999 39.8799 188.705 39.9424V40.6732H183.251V39.9424C183.457 39.9299 183.688 39.8987 183.944 39.8487C184.207 39.7925 184.413 39.7175 184.563 39.6238C184.819 39.4739 185.034 39.2897 185.209 39.071C185.39 38.8524 185.54 38.5932 185.659 38.2934C186.384 36.5382 187.109 34.7799 187.833 33.0185C188.564 31.257 189.37 29.3145 190.251 27.1908H192.125C193.35 30.2014 194.309 32.5812 195.002 34.3302C195.696 36.0791 196.286 37.5282 196.774 38.6775C196.855 38.8649 196.958 39.0367 197.083 39.1928C197.208 39.3427 197.386 39.4864 197.617 39.6238C197.792 39.7238 197.995 39.7987 198.226 39.8487C198.457 39.8987 198.667 39.9299 198.854 39.9424V40.6732ZM191.872 35.2952L189.942 30.4794L188.039 35.2952H191.872Z" fill="white"/>
<path d="M205.957 41.0292C204.983 41.0292 204.071 40.8731 203.221 40.5608C202.371 40.2422 201.631 39.7831 201 39.1835C200.381 38.5963 199.894 37.8718 199.538 37.0098C199.182 36.1416 199.004 35.189 199.004 34.1522C199.004 33.1215 199.182 32.169 199.538 31.2945C199.9 30.4138 200.406 29.6518 201.056 29.0084C201.693 28.3775 202.459 27.8903 203.352 27.5468C204.246 27.197 205.201 27.0221 206.22 27.0221C206.957 27.0221 207.629 27.1127 208.235 27.2938C208.841 27.4687 209.353 27.6686 209.772 27.8935L210.353 27.3782H211.168L211.252 32.2315H210.428C209.959 30.7511 209.397 29.6643 208.741 28.9709C208.085 28.2776 207.285 27.9309 206.342 27.9309C205.167 27.9309 204.274 28.4494 203.661 29.4862C203.049 30.5169 202.743 31.966 202.743 33.8336C202.743 34.8892 202.846 35.7918 203.052 36.5413C203.265 37.2846 203.54 37.8843 203.877 38.3402C204.239 38.8149 204.667 39.1647 205.161 39.3896C205.654 39.6082 206.201 39.7175 206.801 39.7175C207.676 39.7175 208.453 39.4802 209.134 39.0055C209.822 38.5307 210.446 37.8124 211.009 36.8505L211.815 37.3377C211.546 37.8874 211.24 38.3808 210.896 38.8181C210.553 39.2491 210.156 39.6207 209.706 39.933C209.212 40.2766 208.666 40.5451 208.066 40.7388C207.472 40.9324 206.77 41.0292 205.957 41.0292Z" fill="white"/>
<path d="M225.084 31.1821H224.363C224.169 30.6137 223.857 30.0047 223.426 29.3551C223.001 28.7055 222.607 28.3557 222.245 28.3057C222.045 28.2807 221.798 28.2589 221.505 28.2401C221.211 28.2214 220.958 28.212 220.745 28.212H220.305V38.6401C220.305 38.8649 220.346 39.0648 220.427 39.2397C220.508 39.4083 220.667 39.5426 220.905 39.6426C221.048 39.6988 221.27 39.7581 221.57 39.8206C221.876 39.8768 222.135 39.9174 222.348 39.9424V40.6732H214.935V39.9424C215.116 39.9236 215.369 39.8987 215.694 39.8674C216.025 39.83 216.25 39.7862 216.369 39.7363C216.613 39.6363 216.775 39.502 216.856 39.3334C216.938 39.1647 216.978 38.9649 216.978 38.7337V28.212H216.538C216.325 28.212 216.072 28.2214 215.779 28.2401C215.485 28.2589 215.238 28.2807 215.038 28.3057C214.676 28.3557 214.279 28.7055 213.848 29.3551C213.423 30.0047 213.114 30.6137 212.92 31.1821H212.199V27.3782H225.084V31.1821Z" fill="white"/>
<path d="M233.181 40.6732H225.806V39.9424C225.975 39.9299 226.221 39.9112 226.546 39.8862C226.877 39.8612 227.105 39.8237 227.23 39.7737C227.462 39.68 227.618 39.5582 227.699 39.4083C227.786 39.2522 227.83 39.0554 227.83 38.8181V29.3926C227.83 29.1802 227.79 28.9928 227.708 28.8304C227.627 28.668 227.468 28.5368 227.23 28.4369C227.08 28.3744 226.859 28.312 226.565 28.2495C226.271 28.1808 226.018 28.1339 225.806 28.109V27.3782H233.181V28.109C232.994 28.1277 232.759 28.1558 232.478 28.1933C232.197 28.2245 231.96 28.2714 231.766 28.3338C231.522 28.415 231.36 28.5431 231.279 28.718C231.198 28.8866 231.157 29.0802 231.157 29.2989V38.715C231.157 38.9399 231.198 39.1335 231.279 39.2959C231.366 39.4521 231.529 39.5801 231.766 39.68C231.897 39.7363 232.113 39.7925 232.413 39.8487C232.719 39.8987 232.975 39.9299 233.181 39.9424V40.6732Z" fill="white"/>
<path d="M241.4 41.0292C240.425 41.0292 239.513 40.8731 238.663 40.5608C237.814 40.2422 237.073 39.7831 236.442 39.1835C235.824 38.5963 235.337 37.8718 234.981 37.0098C234.624 36.1416 234.446 35.189 234.446 34.1522C234.446 33.1215 234.624 32.169 234.981 31.2945C235.343 30.4138 235.849 29.6518 236.499 29.0084C237.136 28.3775 237.901 27.8903 238.795 27.5468C239.688 27.197 240.644 27.0221 241.662 27.0221C242.399 27.0221 243.071 27.1127 243.677 27.2938C244.283 27.4687 244.795 27.6686 245.214 27.8935L245.795 27.3782H246.61L246.695 32.2315H245.87C245.401 30.7511 244.839 29.6643 244.183 28.9709C243.527 28.2776 242.727 27.9309 241.784 27.9309C240.61 27.9309 239.716 28.4494 239.104 29.4862C238.492 30.5169 238.186 31.966 238.186 33.8336C238.186 34.8892 238.289 35.7918 238.495 36.5413C238.707 37.2846 238.982 37.8843 239.319 38.3402C239.682 38.8149 240.11 39.1647 240.603 39.3896C241.097 39.6082 241.644 39.7175 242.243 39.7175C243.118 39.7175 243.896 39.4802 244.577 39.0055C245.264 38.5307 245.889 37.8124 246.451 36.8505L247.257 37.3377C246.988 37.8874 246.682 38.3808 246.339 38.8181C245.995 39.2491 245.598 39.6207 245.148 39.933C244.655 40.2766 244.108 40.5451 243.508 40.7388C242.915 40.9324 242.212 41.0292 241.4 41.0292Z" fill="white"/>
<path d="M99.7545 2.20442C99.5764 2.21078 99.3029 2.26166 98.9339 2.35706C98.565 2.45245 98.301 2.55103 98.1419 2.65279C97.9129 2.81178 97.7571 3.11705 97.6744 3.56859C97.5981 4.02014 97.5599 4.59251 97.5599 5.28573V15.1974H96.7298L88.5239 4.12189V11.1049C88.5239 11.8872 88.5716 12.4882 88.667 12.9079C88.7688 13.3277 88.9214 13.6266 89.125 13.8046C89.2713 13.9446 89.5735 14.0749 90.0315 14.1958C90.4895 14.3166 90.7916 14.3802 90.9379 14.3866V15.0639H85.3846V14.3866C85.5564 14.3738 85.8458 14.3134 86.2529 14.2053C86.6601 14.0908 86.9145 13.9891 87.0163 13.9C87.2389 13.722 87.3916 13.4517 87.4743 13.0892C87.557 12.7203 87.5983 12.0939 87.5983 11.2099V4.54164C87.5983 4.24909 87.5474 3.95654 87.4457 3.66399C87.3439 3.37144 87.2071 3.14567 87.0354 2.98667C86.8064 2.7768 86.4947 2.59873 86.1003 2.45245C85.7122 2.29982 85.3974 2.21714 85.1556 2.20442V1.52711H89.02L96.6344 11.849V5.40974C96.6344 4.62113 96.5835 4.01696 96.4817 3.59721C96.3799 3.17111 96.2336 2.8881 96.0428 2.74818C95.8647 2.62735 95.572 2.50969 95.1649 2.39521C94.7642 2.28074 94.4588 2.21714 94.2489 2.20442V1.52711H99.7545V2.20442Z" fill="white"/>
<path d="M111.796 3.12977C112.394 3.75302 112.862 4.50666 113.199 5.39066C113.536 6.26831 113.705 7.24136 113.705 8.3098C113.705 9.3846 113.533 10.3608 113.189 11.2385C112.846 12.1161 112.369 12.8634 111.758 13.4803C111.166 14.0908 110.479 14.5614 109.697 14.8922C108.915 15.2229 108.081 15.3882 107.197 15.3882C106.256 15.3882 105.384 15.2133 104.583 14.8635C103.787 14.5074 103.104 14.0145 102.531 13.3849C101.959 12.768 101.507 12.0207 101.176 11.1431C100.852 10.2591 100.69 9.31464 100.69 8.3098C100.69 7.20956 100.861 6.23015 101.205 5.37159C101.548 4.50666 102.022 3.75938 102.627 3.12977C103.225 2.50651 103.918 2.02953 104.707 1.69882C105.502 1.36811 106.332 1.20276 107.197 1.20276C108.094 1.20276 108.94 1.37129 109.735 1.70836C110.53 2.04543 111.217 2.51923 111.796 3.12977ZM110.374 12.7267C110.731 12.1479 110.988 11.4929 111.147 10.7615C111.313 10.0301 111.395 9.21288 111.395 8.3098C111.395 7.38127 111.303 6.52906 111.119 5.75317C110.941 4.97728 110.677 4.31586 110.327 3.76892C109.977 3.22834 109.538 2.8086 109.01 2.50969C108.482 2.20442 107.878 2.05179 107.197 2.05179C106.434 2.05179 105.785 2.22668 105.251 2.57647C104.716 2.92626 104.28 3.3937 103.943 3.9788C103.625 4.53846 103.387 5.19351 103.228 5.94396C103.075 6.69442 102.999 7.48303 102.999 8.3098C102.999 9.2256 103.081 10.0524 103.247 10.7901C103.412 11.5278 103.673 12.1829 104.029 12.7553C104.373 13.3149 104.805 13.7538 105.327 14.0717C105.848 14.3834 106.472 14.5392 107.197 14.5392C107.878 14.5392 108.492 14.3802 109.039 14.0622C109.586 13.7442 110.031 13.299 110.374 12.7267Z" fill="white"/>
<path d="M128.59 15.0639H124.945C124.137 13.7983 123.405 12.7044 122.75 11.7822C122.101 10.8601 121.395 9.90928 120.632 8.92987H119.248V13.2227C119.248 13.4453 119.283 13.6425 119.353 13.8142C119.423 13.9795 119.573 14.1067 119.802 14.1958C119.916 14.2403 120.117 14.2816 120.403 14.3198C120.689 14.3579 120.931 14.3802 121.128 14.3866V15.0639H115.403V14.3866C115.556 14.3738 115.775 14.3516 116.061 14.3198C116.354 14.288 116.558 14.2466 116.672 14.1958C116.863 14.1131 117 13.9922 117.082 13.8333C117.171 13.6743 117.216 13.4707 117.216 13.2227V3.43504C117.216 3.21244 117.184 3.01529 117.12 2.84358C117.057 2.67186 116.907 2.54149 116.672 2.45245C116.513 2.39521 116.306 2.34434 116.052 2.29982C115.797 2.24894 115.581 2.21714 115.403 2.20442V1.52711H121.653C122.225 1.52711 122.763 1.58752 123.265 1.70836C123.768 1.82284 124.223 2.01045 124.63 2.2712C125.024 2.52559 125.339 2.85948 125.574 3.27286C125.81 3.67989 125.927 4.17277 125.927 4.75151C125.927 5.27301 125.848 5.73409 125.689 6.13476C125.53 6.53542 125.295 6.88203 124.983 7.17458C124.697 7.44805 124.353 7.68654 123.952 7.89005C123.552 8.0872 123.11 8.25574 122.626 8.39565C123.294 9.27966 123.847 10.0238 124.286 10.6279C124.732 11.2321 125.275 11.9667 125.918 12.8316C126.198 13.2132 126.449 13.4962 126.672 13.6806C126.901 13.8587 127.127 14.005 127.349 14.1194C127.515 14.2021 127.721 14.2657 127.969 14.3102C128.218 14.3548 128.424 14.3802 128.59 14.3866V15.0639ZM123.571 4.97092C123.571 4.15051 123.335 3.50181 122.865 3.02483C122.394 2.54149 121.729 2.29982 120.87 2.29982H119.248V8.10947H120.498C121.376 8.10947 122.108 7.82964 122.693 7.26998C123.278 6.70396 123.571 5.9376 123.571 4.97092Z" fill="white"/>
<path d="M140.126 5.19987H139.467C139.41 4.97092 139.305 4.70063 139.152 4.389C139.006 4.07101 138.841 3.7721 138.656 3.49227C138.465 3.19973 138.255 2.94533 138.026 2.7291C137.804 2.50651 137.588 2.37932 137.378 2.34752C137.18 2.32208 136.932 2.303 136.633 2.29028C136.334 2.27756 136.058 2.2712 135.803 2.2712H135.25V13.0987C135.25 13.3086 135.294 13.5025 135.383 13.6806C135.472 13.8523 135.628 13.9859 135.851 14.0813C135.965 14.1258 136.204 14.1862 136.567 14.2625C136.935 14.3389 137.222 14.3802 137.425 14.3866V15.0639H131.032V14.3866C131.21 14.3738 131.481 14.3484 131.843 14.3102C132.212 14.2721 132.467 14.2244 132.607 14.1671C132.817 14.0845 132.969 13.9668 133.065 13.8142C133.167 13.6552 133.217 13.4453 133.217 13.1846V2.2712H132.664C132.467 2.2712 132.222 2.27756 131.929 2.29028C131.637 2.29664 131.357 2.31572 131.09 2.34752C130.88 2.37296 130.66 2.50015 130.431 2.7291C130.209 2.95169 130.002 3.20608 129.811 3.49227C129.62 3.77846 129.452 4.08373 129.305 4.40808C129.159 4.72607 129.057 4.99 129 5.19987H128.332V1.52711H140.126V5.19987Z" fill="white"/>
<path d="M155.24 15.0639H149.62V14.3866C149.772 14.3738 149.992 14.3548 150.278 14.3293C150.571 14.3039 150.771 14.2657 150.879 14.2148C151.07 14.1385 151.21 14.024 151.299 13.8714C151.388 13.7124 151.433 13.5089 151.433 13.2609V8.44335H145.068V13.1559C145.068 13.3785 145.103 13.5661 145.173 13.7188C145.25 13.8714 145.396 14.005 145.612 14.1194C145.72 14.1767 145.911 14.2339 146.185 14.2912C146.465 14.3484 146.684 14.3802 146.843 14.3866V15.0639H141.223V14.3866C141.376 14.3738 141.595 14.3548 141.881 14.3293C142.174 14.3039 142.374 14.2657 142.482 14.2148C142.673 14.1385 142.813 14.024 142.902 13.8714C142.991 13.7124 143.036 13.5089 143.036 13.2609V3.49227C143.036 3.28876 142.994 3.10433 142.912 2.93897C142.829 2.76726 142.686 2.63371 142.482 2.53831C142.311 2.45563 142.101 2.3825 141.853 2.3189C141.611 2.2553 141.401 2.21714 141.223 2.20442V1.52711H146.843V2.20442C146.665 2.21078 146.445 2.2394 146.185 2.29028C145.93 2.34116 145.739 2.38886 145.612 2.43337C145.396 2.50969 145.25 2.63689 145.173 2.81496C145.103 2.99303 145.068 3.18701 145.068 3.39688V7.59432H151.433V3.49227C151.433 3.28876 151.391 3.10433 151.309 2.93897C151.226 2.76726 151.083 2.63371 150.879 2.53831C150.707 2.45563 150.497 2.3825 150.249 2.3189C150.008 2.2553 149.798 2.21714 149.62 2.20442V1.52711H155.24V2.20442C155.062 2.21078 154.842 2.2394 154.581 2.29028C154.327 2.34116 154.136 2.38886 154.009 2.43337C153.793 2.50969 153.646 2.63689 153.57 2.81496C153.5 2.99303 153.465 3.18701 153.465 3.39688V13.1559C153.465 13.3785 153.5 13.5661 153.57 13.7188C153.646 13.8714 153.793 14.005 154.009 14.1194C154.117 14.1767 154.308 14.2339 154.581 14.2912C154.861 14.3484 155.081 14.3802 155.24 14.3866V15.0639Z" fill="white"/>
<path d="M172.377 4.91368H171.661C171.527 4.41126 171.248 3.87386 170.821 3.30148C170.402 2.7291 169.998 2.41429 169.61 2.35706C169.412 2.33162 169.177 2.31254 168.903 2.29982C168.636 2.2871 168.331 2.28074 167.987 2.28074H165.717V7.71834H167.272C167.743 7.71834 168.108 7.67064 168.369 7.57524C168.63 7.47349 168.853 7.32085 169.037 7.11734C169.164 6.97743 169.279 6.76119 169.381 6.46865C169.489 6.16974 169.559 5.85175 169.59 5.51468H170.316V10.8283H169.59C169.571 10.5484 169.505 10.2304 169.39 9.8743C169.282 9.51815 169.164 9.26058 169.037 9.10159C168.846 8.86628 168.605 8.70728 168.312 8.62461C168.026 8.53557 167.679 8.49105 167.272 8.49105H165.717V13.1559C165.717 13.3658 165.758 13.5534 165.841 13.7188C165.923 13.8841 166.07 14.0177 166.28 14.1194C166.375 14.164 166.582 14.218 166.9 14.2816C167.218 14.3452 167.46 14.3802 167.625 14.3866V15.0639H161.757V14.3866C161.948 14.3738 162.202 14.3548 162.52 14.3293C162.838 14.2975 163.045 14.2594 163.14 14.2148C163.331 14.1322 163.468 14.0113 163.551 13.8523C163.64 13.687 163.684 13.4898 163.684 13.2609V3.49227C163.684 3.2824 163.649 3.09797 163.579 2.93897C163.509 2.77362 163.363 2.64007 163.14 2.53831C162.969 2.45563 162.736 2.3825 162.444 2.3189C162.157 2.2553 161.928 2.21714 161.757 2.20442V1.52711H172.377V4.91368Z" fill="white"/>
<path d="M184.457 11.0381L184.17 15.0639H173.588V14.3866C173.741 14.3738 173.961 14.3516 174.247 14.3198C174.539 14.288 174.743 14.2466 174.858 14.1958C175.048 14.1131 175.185 13.9922 175.268 13.8333C175.357 13.6743 175.401 13.4707 175.401 13.2227V3.53043C175.401 3.3142 175.363 3.12341 175.287 2.95805C175.217 2.7927 175.074 2.65915 174.858 2.55739C174.711 2.48107 174.505 2.40793 174.237 2.33798C173.977 2.26166 173.76 2.21714 173.588 2.20442V1.52711H179.304V2.20442C179.126 2.21078 178.894 2.24258 178.607 2.29982C178.328 2.35706 178.124 2.40793 177.997 2.45245C177.78 2.52877 177.631 2.65915 177.548 2.84358C177.472 3.02801 177.434 3.22516 177.434 3.43504V12.5263C177.434 12.9461 177.453 13.2736 177.491 13.5089C177.536 13.7379 177.634 13.9159 177.787 14.0431C177.933 14.1576 178.149 14.2339 178.436 14.2721C178.728 14.3039 179.135 14.3198 179.657 14.3198C179.892 14.3198 180.137 14.3134 180.392 14.3007C180.646 14.288 180.888 14.2625 181.117 14.2244C181.34 14.1862 181.543 14.1353 181.728 14.0717C181.918 14.0018 182.058 13.9159 182.147 13.8142C182.408 13.5216 182.71 13.0796 183.054 12.4882C183.404 11.8903 183.645 11.407 183.779 11.0381H184.457Z" fill="white"/>
<path d="M196.317 3.12977C196.915 3.75302 197.382 4.50666 197.72 5.39066C198.057 6.26831 198.225 7.24136 198.225 8.3098C198.225 9.3846 198.054 10.3608 197.71 11.2385C197.367 12.1161 196.889 12.8634 196.279 13.4803C195.687 14.0908 195 14.5614 194.218 14.8922C193.435 15.2229 192.602 15.3882 191.718 15.3882C190.776 15.3882 189.905 15.2133 189.103 14.8635C188.308 14.5074 187.624 14.0145 187.052 13.3849C186.479 12.768 186.028 12.0207 185.697 11.1431C185.373 10.2591 185.21 9.31464 185.21 8.3098C185.21 7.20956 185.382 6.23015 185.726 5.37159C186.069 4.50666 186.543 3.75938 187.147 3.12977C187.745 2.50651 188.439 2.02953 189.227 1.69882C190.023 1.36811 190.853 1.20276 191.718 1.20276C192.615 1.20276 193.461 1.37129 194.256 1.70836C195.051 2.04543 195.738 2.51923 196.317 3.12977ZM194.895 12.7267C195.251 12.1479 195.509 11.4929 195.668 10.7615C195.833 10.0301 195.916 9.21288 195.916 8.3098C195.916 7.38127 195.824 6.52906 195.639 5.75317C195.461 4.97728 195.197 4.31586 194.847 3.76892C194.498 3.22834 194.059 2.8086 193.531 2.50969C193.003 2.20442 192.398 2.05179 191.718 2.05179C190.954 2.05179 190.306 2.22668 189.771 2.57647C189.237 2.92626 188.801 3.3937 188.464 3.9788C188.146 4.53846 187.907 5.19351 187.748 5.94396C187.596 6.69442 187.519 7.48303 187.519 8.3098C187.519 9.2256 187.602 10.0524 187.768 10.7901C187.933 11.5278 188.194 12.1829 188.55 12.7553C188.893 13.3149 189.326 13.7538 189.848 14.0717C190.369 14.3834 190.993 14.5392 191.718 14.5392C192.398 14.5392 193.012 14.3802 193.559 14.0622C194.106 13.7442 194.552 13.299 194.895 12.7267Z" fill="white"/>
<path d="M213.11 15.0639H209.465C208.658 13.7983 207.926 12.7044 207.271 11.7822C206.622 10.8601 205.916 9.90928 205.153 8.92987H203.769V13.2227C203.769 13.4453 203.804 13.6425 203.874 13.8142C203.944 13.9795 204.093 14.1067 204.322 14.1958C204.437 14.2403 204.637 14.2816 204.924 14.3198C205.21 14.3579 205.452 14.3802 205.649 14.3866V15.0639H199.924V14.3866C200.076 14.3738 200.296 14.3516 200.582 14.3198C200.875 14.288 201.078 14.2466 201.193 14.1958C201.384 14.1131 201.52 13.9922 201.603 13.8333C201.692 13.6743 201.737 13.4707 201.737 13.2227V3.43504C201.737 3.21244 201.705 3.01529 201.641 2.84358C201.578 2.67186 201.428 2.54149 201.193 2.45245C201.034 2.39521 200.827 2.34434 200.573 2.29982C200.318 2.24894 200.102 2.21714 199.924 2.20442V1.52711H206.174C206.746 1.52711 207.284 1.58752 207.786 1.70836C208.289 1.82284 208.743 2.01045 209.151 2.2712C209.545 2.52559 209.86 2.85948 210.095 3.27286C210.331 3.67989 210.448 4.17277 210.448 4.75151C210.448 5.27301 210.369 5.73409 210.21 6.13476C210.051 6.53542 209.815 6.88203 209.504 7.17458C209.217 7.44805 208.874 7.68654 208.473 7.89005C208.072 8.0872 207.63 8.25574 207.147 8.39565C207.815 9.27966 208.368 10.0238 208.807 10.6279C209.252 11.2321 209.796 11.9667 210.439 12.8316C210.719 13.2132 210.97 13.4962 211.192 13.6806C211.421 13.8587 211.647 14.005 211.87 14.1194C212.035 14.2021 212.242 14.2657 212.49 14.3102C212.738 14.3548 212.945 14.3802 213.11 14.3866V15.0639ZM208.091 4.97092C208.091 4.15051 207.856 3.50181 207.385 3.02483C206.915 2.54149 206.25 2.29982 205.391 2.29982H203.769V8.10947H205.019C205.897 8.10947 206.628 7.82964 207.214 7.26998C207.799 6.70396 208.091 5.9376 208.091 4.97092Z" fill="white"/>
<path d="M219.561 15.0639H213.463V14.3866C213.635 14.3738 213.883 14.3548 214.208 14.3293C214.532 14.3039 214.761 14.2657 214.895 14.2148C215.105 14.1322 215.257 14.0209 215.353 13.881C215.448 13.7347 215.496 13.5343 215.496 13.28V3.4732C215.496 3.2506 215.461 3.06617 215.391 2.9199C215.321 2.76726 215.155 2.64007 214.895 2.53831C214.704 2.46199 214.462 2.39203 214.17 2.32844C213.883 2.25848 213.648 2.21714 213.463 2.20442V1.52711H219.561V2.20442C219.363 2.21078 219.128 2.23622 218.855 2.28074C218.581 2.3189 218.342 2.36978 218.139 2.43337C217.897 2.50969 217.735 2.63371 217.652 2.80542C217.57 2.97713 217.528 3.16793 217.528 3.3778V13.175C217.528 13.3849 217.573 13.5725 217.662 13.7379C217.757 13.8969 217.916 14.024 218.139 14.1194C218.272 14.1703 218.489 14.2276 218.788 14.2912C219.093 14.3484 219.351 14.3802 219.561 14.3866V15.0639Z" fill="white"/>
<path d="M234.226 8.37657C234.226 9.52769 234.01 10.5262 233.577 11.372C233.145 12.2179 232.582 12.9111 231.889 13.4517C231.189 13.9922 230.403 14.3961 229.532 14.6632C228.66 14.9303 227.76 15.0639 226.831 15.0639H221.221V14.3866C221.405 14.3866 221.644 14.3707 221.936 14.3389C222.235 14.3007 222.433 14.2594 222.528 14.2148C222.719 14.1322 222.856 14.0113 222.938 13.8523C223.027 13.687 223.072 13.4898 223.072 13.2609V3.49227C223.072 3.27604 223.034 3.08207 222.957 2.91036C222.887 2.73864 222.744 2.60191 222.528 2.50015C222.331 2.40475 222.118 2.3348 221.889 2.29028C221.66 2.24576 221.463 2.21714 221.297 2.20442V1.52711H227.213C228.027 1.52711 228.829 1.6543 229.618 1.90869C230.406 2.15672 231.093 2.49379 231.679 2.9199C232.474 3.48591 233.097 4.22683 233.549 5.14263C234 6.05844 234.226 7.13642 234.226 8.37657ZM231.889 8.36704C231.889 7.45759 231.768 6.63718 231.526 5.90581C231.284 5.16807 230.931 4.52574 230.467 3.9788C230.028 3.4573 229.487 3.04709 228.845 2.74818C228.209 2.44927 227.499 2.29982 226.717 2.29982C226.456 2.29982 226.16 2.30618 225.83 2.3189C225.505 2.32526 225.263 2.33162 225.104 2.33798V12.7457C225.104 13.3245 225.273 13.7251 225.61 13.9477C225.947 14.1703 226.466 14.2816 227.165 14.2816C227.973 14.2816 228.679 14.1385 229.284 13.8523C229.888 13.5661 230.378 13.1687 230.753 12.6599C231.147 12.1257 231.434 11.5088 231.612 10.8092C231.796 10.1033 231.889 9.2892 231.889 8.36704Z" fill="white"/>
<path d="M248.52 15.0639H242.881V14.3866C243.377 14.3548 243.787 14.2912 244.111 14.1958C244.442 14.1004 244.608 13.9827 244.608 13.8428C244.608 13.7856 244.601 13.7156 244.589 13.6329C244.576 13.5502 244.557 13.4771 244.531 13.4135L243.405 10.3799H238.663C238.485 10.8251 238.339 11.213 238.224 11.5437C238.116 11.8744 238.018 12.1797 237.928 12.4595C237.846 12.733 237.788 12.9556 237.757 13.1273C237.725 13.299 237.709 13.4389 237.709 13.5471C237.709 13.8015 237.909 13.9986 238.31 14.1385C238.711 14.2784 239.163 14.3611 239.665 14.3866V15.0639H234.57V14.3866C234.735 14.3738 234.942 14.3389 235.19 14.2816C235.438 14.218 235.642 14.1353 235.801 14.0336C236.055 13.8619 236.252 13.6838 236.392 13.4994C236.532 13.3086 236.669 13.0478 236.803 12.7171C237.483 11.0191 238.234 9.11113 239.054 6.99333C239.875 4.87552 240.606 2.98985 241.249 1.33631H242.012L246.526 13.0128C246.621 13.2609 246.729 13.4612 246.85 13.6138C246.971 13.7665 247.139 13.9159 247.356 14.0622C247.502 14.1512 247.693 14.2276 247.928 14.2912C248.164 14.3484 248.361 14.3802 248.52 14.3866V15.0639ZM243.062 9.53087L241.01 4.28407L238.997 9.53087H243.062Z" fill="white"/>
<path fill-rule="evenodd" clip-rule="evenodd" d="M248.392 46.9592H85.1652V45.9468H248.392V46.9592Z" fill="white"/>
<path fill-rule="evenodd" clip-rule="evenodd" d="M248.392 21.4896H85.1652V20.4772H248.392V21.4896Z" fill="white"/>
</svg>
