<svg width="275" height="94" viewBox="0 0 275 94" fill="none" xmlns="http://www.w3.org/2000/svg">
<rect width="275" height="94" fill="#002133"/>
<path d="M50.4317 28.5579C30.634 28.5579 20.0899 20.0125 20.0899 20.0125C20.0899 27.1458 36.7219 27.0241 43.8568 35.4965C45.2449 37.1521 46.2433 39.9762 46.9982 44.2368C49.2628 45.308 51.4788 46.1844 53.5243 46.9879C54.3766 41.1935 55.4237 37.1277 56.8361 35.4965C64.0928 27.1215 81.0657 27.1702 81.0657 20.0125C81.0657 20.0125 70.205 28.5579 50.4317 28.5579Z" fill="white"/>
<path d="M50.4317 26.6346C53.4039 26.6346 55.8134 24.2257 55.8134 21.2541C55.8134 18.2826 53.4039 15.8736 50.4317 15.8736C47.4595 15.8736 45.05 18.2826 45.05 21.2541C45.05 24.2257 47.4595 26.6346 50.4317 26.6346Z" fill="white"/>
<path d="M47.8505 64.3709C42.688 66.6107 38.6213 69.8731 39.3762 77.1039C40.959 72.819 43.8081 70.4087 48.167 68.5828C48.0696 67.195 47.9722 65.8073 47.8505 64.3709Z" fill="white"/>
<path d="M35.2121 38.1746C31.5351 51.6866 58.6138 52.1492 58.6138 58.3574C58.6138 60.4999 56.7387 61.6929 53.1104 63.1293C52.9886 64.6631 52.8425 66.1725 52.7451 67.6333C59.3443 65.15 64.8721 63.3971 64.8721 58.0653C64.8721 48.546 48.581 49.885 35.2121 38.1746Z" fill="white"/>
<path d="M52.8182 55.1194C51.6006 65.8804 50.9918 77.0309 50.5048 82.2896C49.5307 75.8866 49.1168 63.6892 47.8992 53.2691C49.6038 53.9265 51.3084 54.5351 52.8182 55.1194Z" fill="white"/>
<path d="M59.6609 37.4686C59.9287 37.6633 60.2209 37.8337 60.5375 37.9798C60.8297 38.1259 61.1463 38.272 61.4872 38.3694C61.8281 38.4667 62.1447 38.5641 62.4613 38.6372C62.7778 38.7102 63.1188 38.7346 63.4597 38.7346H63.5814L63.7032 38.7102C63.7519 38.7102 63.7762 38.7102 63.8249 38.6859L63.9467 38.6615C64.0198 38.6372 64.1172 38.6128 64.1902 38.5885C64.2633 38.5641 64.3607 38.5398 64.4337 38.5154C64.7503 38.3937 65.0425 38.2476 65.3104 38.0772C65.5783 37.9068 65.8461 37.6877 66.0409 37.4442C66.2357 37.2008 66.4062 36.9329 66.5036 36.6164L66.601 36.3243L66.8445 36.5191C66.9906 36.6408 67.2098 36.7138 67.429 36.7382C67.6481 36.7625 67.8916 36.7625 68.1351 36.7625C68.5978 36.7382 69.0848 36.6408 69.5719 36.5434C70.0346 36.446 70.5216 36.2999 70.9843 36.1539C71.4469 36.0078 71.9096 35.813 72.3479 35.6183C72.5671 35.5209 72.7619 35.4235 72.9567 35.2774C73.1515 35.1557 73.322 34.9853 73.5168 34.8392C73.8821 34.5227 74.1986 34.1818 74.4908 33.8167C74.7831 33.4515 75.0509 33.0619 75.2701 32.648C75.3675 32.4533 75.4649 32.2342 75.538 32.015C75.611 31.8203 75.6354 31.6012 75.6597 31.4064L75.6841 30.8708L76.2442 30.9682C76.3903 30.9925 76.6094 30.9925 76.8042 30.9438C77.0234 30.9195 77.2426 30.8464 77.4617 30.7734C77.9 30.6273 78.3627 30.4326 78.801 30.2378C79.2394 30.0187 79.6533 29.7996 80.0673 29.5318C80.2621 29.41 80.4813 29.2639 80.6518 29.1422C80.8222 29.0205 81.017 28.8501 81.1631 28.7283L81.2118 28.6796C81.2362 28.6553 81.2362 28.631 81.2605 28.631L81.3579 28.5092L81.4553 28.3875L81.5041 28.3145L81.5527 28.2414C81.6258 28.144 81.6745 28.0466 81.7476 27.9493C81.8206 27.8519 81.8693 27.7545 81.918 27.6328C82.1372 27.2189 82.3563 26.7807 82.5512 26.3424C82.746 25.9042 82.8921 25.4416 83.0138 25.0034C83.0382 24.9547 83.0382 24.8817 83.0625 24.833L83.1112 24.6626C83.1112 24.6139 83.1356 24.5408 83.1599 24.4921L83.1843 24.3217L83.2086 24.2487V24.2V24.1513L83.233 24.0052C83.233 23.9809 83.233 23.9565 83.233 23.9322V23.8591C83.233 23.8104 83.233 23.7617 83.233 23.7374L83.2573 23.2018L83.7687 22.9827C84.0853 22.8609 84.3775 22.6418 84.621 22.3984C84.8889 22.1306 85.0837 21.8141 85.2785 21.4732C85.4733 21.1324 85.6438 20.7428 85.7655 20.3533C85.9116 19.9638 86.0091 19.5499 86.1065 19.1117C86.2039 18.6734 86.2769 18.2595 86.35 17.8213C86.423 17.3831 86.4717 16.9449 86.5204 16.5066C86.6178 15.6302 86.6665 14.7294 86.6665 13.8286C86.6665 13.7068 86.6665 13.6095 86.6665 13.4877V13.3903V13.3416C86.6665 13.3416 86.6665 13.3173 86.6665 13.3416C86.6665 13.439 86.6909 13.5851 86.7639 13.7555C86.837 13.926 86.9831 14.0964 87.1536 14.1938C87.324 14.2911 87.4701 14.3155 87.5675 14.3398C87.6893 14.3398 87.7624 14.3398 87.8354 14.3398C87.9085 14.3155 87.9572 14.3155 88.0302 14.2911C88.1033 14.2668 88.1033 14.2425 88.1033 14.2668L88.0546 14.2911L87.9815 14.3398L87.3484 14.6563L87.0318 14.8024C86.9344 14.8511 86.8126 14.8998 86.7152 14.9485L86.0578 15.2406C85.8386 15.338 85.6194 15.4354 85.4003 15.5328L84.7428 15.8249C84.5236 15.9223 84.3045 15.9954 84.0853 16.0927C83.8661 16.1901 83.647 16.2875 83.4278 16.3606C81.6745 17.0422 79.8969 17.6752 78.0949 18.2109C77.6322 18.3326 77.1939 18.4787 76.7312 18.6004C76.2685 18.7221 75.8302 18.8439 75.3675 18.9656C74.9048 19.0873 74.4665 19.1847 74.0038 19.3064L73.322 19.4525L72.6401 19.5986C70.8138 19.9881 68.9631 20.3046 67.1124 20.5724L64.3607 20.962C64.1415 20.9863 63.898 21.035 63.6788 21.0593C63.5571 21.0837 63.4597 21.108 63.3379 21.1324C63.2405 21.1567 63.1188 21.1811 63.0213 21.2054C62.6317 21.3028 62.2665 21.4732 61.9012 21.6923C61.1706 22.1549 60.5375 22.7879 60.0018 23.4939C59.7339 23.8591 59.4904 24.2243 59.2712 24.6139C59.1738 24.8086 59.0764 25.0034 58.979 25.2225C58.906 25.4173 58.8329 25.6364 58.8086 25.8312L58.3702 25.8068C58.3702 25.539 58.4433 25.2955 58.492 25.0764C58.5651 24.833 58.6381 24.6139 58.7355 24.3947C58.8329 24.1756 58.9303 23.9565 59.0521 23.7374C59.1738 23.5183 59.2956 23.3235 59.4173 23.1044C59.5391 22.9096 59.6852 22.7149 59.8313 22.4958C59.9774 22.301 60.1235 22.1062 60.294 21.9358C60.4645 21.741 60.6349 21.5706 60.8054 21.4002C61.0002 21.2298 61.1706 21.0837 61.3898 20.9376C61.5846 20.7915 61.8038 20.6455 62.0473 20.5237L62.2178 20.4263C62.2665 20.402 62.3395 20.3776 62.3882 20.3533C62.4369 20.329 62.51 20.3046 62.583 20.2803C62.6561 20.2559 62.7048 20.2316 62.7778 20.2072C62.8996 20.1829 63.0213 20.1342 63.1431 20.1098C63.2649 20.0855 63.3866 20.0368 63.484 20.0125C63.7275 19.9638 63.9467 19.9151 64.1659 19.842C65.0912 19.6473 65.9922 19.4768 66.8932 19.2821C67.7942 19.0873 68.6952 18.8925 69.5962 18.6978C70.4972 18.503 71.3982 18.2595 72.2749 18.0404C73.1759 17.8213 74.0525 17.5535 74.9292 17.3101C75.8058 17.0422 76.6825 16.7744 77.5591 16.4823C77.7783 16.4092 77.9975 16.3362 78.2166 16.2632C78.4358 16.1901 78.6549 16.1171 78.8741 16.0441C79.3124 15.898 79.7264 15.7276 80.1647 15.5815L80.7979 15.338L81.431 15.0946C81.8693 14.9241 82.2833 14.7537 82.6973 14.5833C83.1112 14.4129 83.5496 14.2181 83.9635 14.0233L84.5967 13.7312C84.7915 13.6338 85.0106 13.5364 85.2298 13.439L85.8386 13.1469C85.936 13.0982 86.0334 13.0495 86.1552 13.0008L86.4474 12.8547L87.0562 12.5382L87.1292 12.4895L87.1779 12.4652C87.1779 12.4652 87.1779 12.4652 87.2753 12.4165C87.3484 12.3922 87.3971 12.3678 87.4945 12.3435C87.5675 12.3191 87.6649 12.3191 87.7867 12.3435C87.9085 12.3435 88.0546 12.3922 88.225 12.4895C88.3955 12.5869 88.5416 12.7573 88.639 12.9521C88.7121 13.1225 88.7364 13.2686 88.7364 13.3903V13.4147V13.4634V13.5608C88.7364 13.6825 88.7364 13.8042 88.7364 13.926C88.7364 14.4129 88.7121 14.8754 88.6877 15.3624C88.6634 15.8493 88.6147 16.3119 88.5659 16.7988C88.4442 17.7483 88.2981 18.7221 88.0302 19.6716C87.9085 20.1585 87.738 20.6211 87.5432 21.0837C87.3484 21.5463 87.1292 22.0332 86.837 22.4714C86.6909 22.6905 86.5448 22.9096 86.3743 23.1288C86.2769 23.2261 86.1795 23.3235 86.1065 23.4453C86.0578 23.4939 86.0091 23.5426 85.9603 23.5913C85.9116 23.64 85.8629 23.6887 85.8142 23.7374C85.4003 24.1026 84.8645 24.4191 84.3288 24.5895L84.8645 23.8348C84.8402 24.1756 84.7915 24.4678 84.7184 24.7599L84.6697 24.9547C84.6454 25.0277 84.621 25.0764 84.5967 25.1495L84.5236 25.3442C84.4993 25.4173 84.4749 25.466 84.4506 25.539C84.2558 26.0503 84.0609 26.5372 83.8174 27.0241C83.5739 27.4867 83.3304 27.9736 83.0382 28.4118C82.9651 28.5336 82.8921 28.631 82.819 28.7527C82.746 28.8744 82.6729 28.9718 82.5755 29.0935L82.5025 29.1909L82.4294 29.2883L82.2833 29.4587C82.2346 29.5074 82.1859 29.5804 82.1128 29.6291C82.0885 29.6535 82.0641 29.6778 82.0398 29.7022L81.9424 29.7752C81.7232 29.97 81.4797 30.1404 81.2605 30.2865C81.0414 30.4326 80.7979 30.5786 80.5787 30.7004C80.116 30.9682 79.6533 31.1873 79.1663 31.4064C78.6793 31.6012 78.1923 31.7959 77.6565 31.942C77.3887 32.015 77.1208 32.0637 76.8286 32.1124C76.7555 32.1124 76.6825 32.1368 76.6094 32.1368C76.5364 32.1368 76.4633 32.1368 76.3903 32.1368H76.2685C76.2198 32.1368 76.1955 32.1368 76.1467 32.1368C76.0737 32.1368 75.9763 32.1124 75.9032 32.0881L76.4877 31.6499C76.4633 31.942 76.3903 32.2342 76.2928 32.502C76.1954 32.7698 76.0737 33.0132 75.9276 33.2567C75.6597 33.7193 75.3431 34.1332 75.0022 34.547C74.6613 34.9366 74.2717 35.3018 73.8821 35.6426C73.6873 35.813 73.4681 35.9591 73.2246 36.1052C73.1028 36.1782 73.0054 36.2513 72.8593 36.3C72.7132 36.3486 72.6158 36.4217 72.494 36.4704C72.007 36.6651 71.5443 36.8356 71.033 36.9573C70.5459 37.1034 70.0589 37.2251 69.5475 37.3225C69.0361 37.4199 68.5248 37.4929 68.0134 37.4929C67.7455 37.4929 67.4777 37.4929 67.2098 37.4199C67.1367 37.4199 67.0637 37.3955 67.015 37.3712C66.9906 37.3712 66.9419 37.3468 66.9176 37.3468C66.8932 37.3468 66.8445 37.3225 66.8202 37.3225C66.6984 37.2738 66.5523 37.2008 66.4305 37.079L66.7715 36.9816C66.6497 37.3225 66.4305 37.639 66.187 37.9068C65.9435 38.1746 65.6513 38.3937 65.3347 38.5641C65.0182 38.7346 64.7016 38.8806 64.3607 38.978C64.2633 39.0024 64.1902 39.0267 64.1172 39.051C64.0198 39.0754 63.9467 39.0997 63.8493 39.0997L63.7275 39.1241C63.6788 39.1241 63.6301 39.1241 63.6058 39.1484L63.4597 39.1728H63.3379C62.9727 39.1728 62.6317 39.1241 62.2908 39.0267C61.9499 38.9293 61.6333 38.8319 61.3168 38.7102C61.0002 38.5885 60.6836 38.4181 60.3914 38.272C60.0992 38.1016 59.807 37.9068 59.5391 37.712L59.6609 37.4686Z" fill="white"/>
<path d="M40.886 37.5416C40.6181 37.7607 40.3259 37.9311 40.0337 38.1016C39.7414 38.272 39.4249 38.4181 39.1083 38.5398C38.7917 38.6615 38.4508 38.7832 38.1342 38.8563C37.7933 38.9293 37.4524 39.0024 37.0871 39.0024H36.9654L36.8193 38.978C36.7706 38.978 36.7219 38.978 36.6975 38.9537H36.5271C36.4297 38.9537 36.3566 38.905 36.2592 38.905C36.1618 38.8806 36.0887 38.8563 36.0157 38.8319C35.6748 38.7346 35.3582 38.5885 35.0416 38.4181C34.7251 38.2476 34.4328 38.0285 34.1893 37.7607C33.9458 37.4929 33.7266 37.1764 33.6049 36.8356L33.9458 36.9329C33.8241 37.0303 33.7023 37.1277 33.5562 37.1764C33.5318 37.1764 33.4831 37.2008 33.4588 37.2008C33.4344 37.2008 33.3857 37.2251 33.3614 37.2251C33.2883 37.2494 33.2396 37.2494 33.1666 37.2738C32.8987 37.3225 32.6308 37.3468 32.363 37.3468C31.8516 37.3468 31.3402 37.2738 30.8288 37.1764C30.3175 37.079 29.8304 36.9573 29.3434 36.8112C28.8564 36.6651 28.3693 36.5191 27.8823 36.3243C27.7606 36.2756 27.6388 36.2269 27.517 36.1539C27.3953 36.0808 27.2735 36.0321 27.1518 35.9591C26.9326 35.813 26.7135 35.667 26.4943 35.4965C26.0803 35.1557 25.715 34.8148 25.3741 34.401C25.0332 34.0114 24.7166 33.5975 24.4488 33.1106C24.327 32.8672 24.1809 32.6237 24.0835 32.3559C23.9861 32.0881 23.913 31.7959 23.8887 31.5038L24.4731 31.942C24.3757 31.9664 24.3027 31.9907 24.2296 31.9907C24.1809 31.9907 24.1566 31.9907 24.1079 31.9907H23.9861C23.913 31.9907 23.84 31.9907 23.7669 31.9907C23.6939 31.9907 23.6208 31.9907 23.5478 31.9664C23.2556 31.942 22.9877 31.869 22.7198 31.7959C22.2085 31.6499 21.6971 31.4551 21.21 31.2603C20.723 31.0656 20.2603 30.8221 19.7977 30.5543C19.5542 30.4326 19.335 30.2865 19.1158 30.1404C18.8967 29.9943 18.6531 29.8483 18.434 29.6291L18.3366 29.5561C18.3122 29.5318 18.2879 29.5074 18.2635 29.4831C18.2148 29.4344 18.1661 29.3857 18.0931 29.3126L17.947 29.1422L17.8739 29.0448L17.8009 28.9475C17.7034 28.8501 17.6304 28.7283 17.5573 28.6066C17.4843 28.4849 17.4112 28.3875 17.3382 28.2658C17.046 27.8032 16.8024 27.3406 16.5589 26.878C16.3154 26.4155 16.1206 25.9285 15.9258 25.3929C15.9014 25.3199 15.8771 25.2712 15.8527 25.1982L15.7797 25.0034C15.7553 24.9304 15.731 24.8817 15.7066 24.8086L15.6579 24.6139C15.5849 24.3461 15.5362 24.0296 15.5118 23.6887L16.0476 24.4434C15.4875 24.2487 14.9761 23.9565 14.5621 23.5913C14.5134 23.5426 14.4647 23.4939 14.416 23.4453C14.3673 23.3966 14.3186 23.3479 14.2699 23.2992C14.1725 23.2018 14.0751 23.1044 14.002 22.9827C13.8316 22.7636 13.6611 22.5444 13.5394 22.3253C13.2471 21.8871 13.028 21.4002 12.8332 20.9376C12.6384 20.475 12.4679 19.9881 12.3461 19.5255C12.0783 18.576 11.9078 17.6022 11.8104 16.6527C11.7617 16.1658 11.713 15.7032 11.6887 15.2163C11.6643 14.7294 11.64 14.2668 11.64 13.7799C11.64 13.6581 11.64 13.5364 11.64 13.4147V13.3173V13.2686V13.2443C11.64 13.1225 11.6643 12.9765 11.7374 12.806C11.8104 12.6356 11.9809 12.4408 12.1513 12.3435C12.3218 12.2461 12.4679 12.2217 12.5897 12.1974C12.7114 12.1974 12.8088 12.1974 12.8819 12.1974C12.9793 12.2217 13.028 12.2461 13.101 12.2704C13.1741 12.2948 13.1984 12.3191 13.1984 12.3191L13.2471 12.3435L13.3202 12.3922L13.929 12.7087L14.2212 12.8547C14.3186 12.9034 14.416 12.9521 14.5378 13.0008L15.1466 13.293C15.3414 13.3903 15.5605 13.4877 15.7797 13.5851L16.4128 13.8773C16.8268 14.072 17.2408 14.2425 17.6791 14.4372C18.0931 14.6076 18.5314 14.8024 18.9454 14.9485L19.5785 15.1919L20.2116 15.4354C20.65 15.6058 21.0639 15.7519 21.5023 15.898C21.7214 15.971 21.9406 16.0441 22.1597 16.1171C22.3789 16.1901 22.5981 16.2632 22.8172 16.3362C23.6939 16.6284 24.5705 16.8962 25.4472 17.164C26.3238 17.4318 27.2248 17.6752 28.1015 17.8944C28.9781 18.1135 29.8791 18.3569 30.7801 18.5517C31.6811 18.7465 32.5821 18.9412 33.4831 19.136C34.3841 19.3308 35.3095 19.5012 36.2105 19.696C36.4297 19.7447 36.6732 19.7933 36.8923 19.8664C37.0141 19.8907 37.1115 19.9151 37.2332 19.9638C37.355 19.9881 37.4768 20.0368 37.5985 20.0612C37.6472 20.0855 37.7203 20.1098 37.7933 20.1342C37.842 20.1585 37.9151 20.1829 37.9881 20.2072C38.0368 20.2316 38.1099 20.2559 38.1586 20.2803L38.3291 20.3777C38.5482 20.4994 38.7674 20.6455 38.9865 20.7915C39.1814 20.9376 39.3762 21.108 39.571 21.2541C39.7658 21.4245 39.9363 21.595 40.0824 21.7897C40.2528 21.9845 40.3989 22.1549 40.545 22.3497C40.6911 22.5444 40.8372 22.7392 40.959 22.9583C41.0808 23.1531 41.2025 23.3722 41.3243 23.5913C41.446 23.8104 41.5434 24.0296 41.6408 24.2487C41.7383 24.4678 41.8113 24.7112 41.8844 24.9304C41.9574 25.1738 42.0061 25.4173 42.0061 25.6607L41.5678 25.6851C41.5434 25.4903 41.4704 25.2712 41.3973 25.0764C41.3243 24.8817 41.2269 24.6626 41.1051 24.4678C40.9103 24.0782 40.6424 23.6887 40.3746 23.3479C39.8388 22.6418 39.1814 21.9845 38.4752 21.5463C38.1099 21.3271 37.7203 21.1324 37.355 21.0593C37.2576 21.035 37.1358 21.0106 37.0384 20.9863C36.941 20.962 36.8193 20.9376 36.6975 20.9133C36.4784 20.8646 36.2592 20.8402 36.0157 20.8159L33.264 20.4263C31.4133 20.1585 29.5626 19.842 27.7362 19.4525L27.0544 19.3064L26.3725 19.1603C25.9099 19.063 25.4715 18.9412 25.0089 18.8195C24.5462 18.6978 24.1079 18.576 23.6452 18.4543C23.1825 18.3326 22.7442 18.1865 22.2815 18.0648C20.5526 17.6022 18.7506 16.9936 16.9973 16.3119C16.7781 16.2388 16.5589 16.1414 16.3398 16.0441C16.1206 15.9467 15.9014 15.8736 15.6823 15.7763L15.0248 15.4841C14.8056 15.3867 14.5865 15.2893 14.3673 15.1919L13.7098 14.8998C13.6124 14.8511 13.4907 14.8024 13.3933 14.7537L13.101 14.6076L12.4679 14.2911L12.3948 14.2425L12.3461 14.2181C12.3218 14.2181 12.3461 14.2181 12.4192 14.2425C12.4679 14.2668 12.541 14.2911 12.614 14.2911C12.6871 14.2911 12.7845 14.3155 12.8819 14.2911C13.0036 14.2911 13.1497 14.2425 13.2958 14.1451C13.4663 14.0477 13.6124 13.8773 13.6855 13.7068C13.7585 13.5364 13.7829 13.3903 13.7829 13.293C13.7829 13.2686 13.7829 13.293 13.7829 13.293V13.3903V13.4877C13.7829 13.6095 13.7829 13.7068 13.7829 13.8286C13.8072 14.7294 13.8559 15.6302 13.929 16.5066C13.9777 16.9449 14.0264 17.3831 14.0994 17.8213C14.1725 18.2595 14.2456 18.6978 14.343 19.1117C14.4404 19.5255 14.5621 19.9394 14.6839 20.3533C14.8056 20.7428 14.9761 21.1324 15.1709 21.4732C15.3657 21.8141 15.5849 22.1306 15.8284 22.3984C16.0719 22.6662 16.3641 22.8609 16.6807 22.9827L17.1921 23.2018L17.2164 23.7374C17.2164 23.7861 17.2164 23.8348 17.2164 23.8591V23.9322C17.2164 23.9565 17.2164 23.9809 17.2164 24.0052L17.2408 24.1513V24.2V24.2487L17.2895 24.3461L17.3138 24.5165C17.3138 24.5652 17.3382 24.6139 17.3625 24.6869L17.4112 24.8573C17.4112 24.906 17.4356 24.9547 17.4599 25.0277C17.5817 25.4903 17.7521 25.9285 17.9226 26.3668C18.1174 26.805 18.3122 27.2432 18.5557 27.6571C18.6044 27.7545 18.6775 27.8519 18.7262 27.9736C18.7993 28.071 18.848 28.1684 18.921 28.2658L18.9697 28.3388L19.0184 28.4118L19.1158 28.5336L19.2132 28.6553C19.2132 28.6796 19.2376 28.704 19.2619 28.704L19.3106 28.7527C19.4567 28.8988 19.6516 29.0448 19.822 29.1666C20.0168 29.3126 20.2116 29.4344 20.4064 29.5561C20.8204 29.8239 21.2587 30.043 21.6727 30.2621C22.111 30.4813 22.5494 30.6517 23.012 30.7977C23.2312 30.8708 23.4504 30.9195 23.6695 30.9682C23.8887 30.9925 24.0835 31.0169 24.2296 30.9925L24.7897 30.8951L24.814 31.4307C24.814 31.6255 24.8627 31.8203 24.9358 32.0394C25.0089 32.2585 25.1063 32.4533 25.2037 32.6724C25.4228 33.0863 25.6907 33.4758 25.9829 33.841C26.2751 34.2062 26.616 34.5714 26.957 34.8635C27.1274 35.0096 27.3222 35.1557 27.517 35.3018C27.7119 35.4478 27.9067 35.5452 28.1258 35.6426C28.5642 35.8374 29.0268 36.0321 29.4895 36.1782C29.9522 36.3243 30.4392 36.4704 30.9019 36.5678C31.3646 36.6651 31.8516 36.7625 32.3386 36.7869C32.5821 36.7869 32.8013 36.7869 33.0448 36.7625C33.264 36.7382 33.4831 36.6651 33.6292 36.5434L33.8728 36.3486L33.9702 36.6408C34.0676 36.9329 34.238 37.2251 34.4328 37.4686C34.6276 37.712 34.8955 37.9311 35.1634 38.1016C35.4312 38.272 35.7235 38.4181 36.04 38.5398C36.1131 38.5641 36.1861 38.5885 36.2835 38.6128C36.3566 38.6372 36.454 38.6615 36.5271 38.6859L36.6488 38.7102C36.6975 38.7102 36.7219 38.7346 36.7706 38.7346L36.8923 38.7589H37.0141C37.3307 38.7832 37.6716 38.7346 38.0125 38.6615C38.3291 38.5885 38.67 38.4911 38.9865 38.3937C39.3031 38.2963 39.6197 38.1502 39.9362 38.0042C40.2285 37.8581 40.545 37.6877 40.8129 37.4929L40.886 37.5416Z" fill="white"/>
<path d="M105.408 66.9009C105.408 67.4934 105.291 68.0191 105.056 68.4782C104.826 68.9319 104.506 69.3082 104.095 69.6071C103.689 69.906 103.243 70.1248 102.758 70.2636C102.272 70.4024 101.757 70.4718 101.212 70.4718H99.9387V73.9146C99.9387 74.1014 99.9681 74.2669 100.027 74.411C100.091 74.5498 100.219 74.6565 100.411 74.7313C100.507 74.7686 100.675 74.8033 100.916 74.8353C101.161 74.8674 101.386 74.886 101.588 74.8914V75.4598H96.7114V74.8914C96.8395 74.8807 97.0237 74.862 97.264 74.8353C97.5095 74.8086 97.6804 74.774 97.7765 74.7313C97.9367 74.6619 98.0514 74.5604 98.1208 74.427C98.1956 74.2936 98.233 74.1228 98.233 73.9146V65.7159C98.233 65.5291 98.2063 65.361 98.1529 65.2115C98.0995 65.0621 97.974 64.95 97.7765 64.8752C97.5736 64.8059 97.3707 64.7578 97.1679 64.7311C96.9703 64.6991 96.7995 64.6778 96.6553 64.6671V64.0986H101.845C102.902 64.0986 103.759 64.3548 104.415 64.8672C105.077 65.3743 105.408 66.0522 105.408 66.9009ZM102.974 68.8385C103.155 68.5823 103.275 68.318 103.334 68.0458C103.393 67.7683 103.422 67.5201 103.422 67.3012C103.422 66.997 103.385 66.6874 103.31 66.3725C103.241 66.0575 103.118 65.7827 102.942 65.5478C102.755 65.2969 102.509 65.1021 102.205 64.9633C101.901 64.8245 101.522 64.7551 101.068 64.7551H99.9387V69.7752H100.756C101.332 69.7752 101.799 69.6872 102.157 69.511C102.52 69.3295 102.792 69.1053 102.974 68.8385Z" fill="white"/>
<path d="M118.486 75.4598H113.769V74.8914C113.897 74.8807 114.081 74.8647 114.322 74.8433C114.567 74.822 114.735 74.79 114.826 74.7473C114.986 74.6832 115.104 74.5871 115.178 74.459C115.253 74.3256 115.291 74.1548 115.291 73.9466V69.9033H109.949V73.8585C109.949 74.0454 109.978 74.2028 110.037 74.3309C110.101 74.459 110.224 74.5711 110.405 74.6672C110.496 74.7152 110.656 74.7633 110.886 74.8113C111.121 74.8594 111.305 74.886 111.439 74.8914V75.4598H106.722V74.8914C106.85 74.8807 107.034 74.8647 107.274 74.8433C107.52 74.822 107.688 74.79 107.779 74.7473C107.939 74.6832 108.056 74.5871 108.131 74.459C108.206 74.3256 108.243 74.1548 108.243 73.9466V65.748C108.243 65.5771 108.209 65.4224 108.139 65.2836C108.07 65.1395 107.95 65.0274 107.779 64.9473C107.635 64.8779 107.458 64.8165 107.25 64.7632C107.047 64.7098 106.871 64.6778 106.722 64.6671V64.0986H111.439V64.6671C111.289 64.6724 111.105 64.6964 110.886 64.7391C110.672 64.7818 110.512 64.8219 110.405 64.8592C110.224 64.9233 110.101 65.03 110.037 65.1795C109.978 65.3289 109.949 65.4917 109.949 65.6679V69.1908H115.291V65.748C115.291 65.5771 115.256 65.4224 115.186 65.2836C115.117 65.1395 114.997 65.0274 114.826 64.9473C114.682 64.8779 114.506 64.8165 114.298 64.7632C114.095 64.7098 113.918 64.6778 113.769 64.6671V64.0986H118.486V64.6671C118.336 64.6724 118.152 64.6964 117.933 64.7391C117.72 64.7818 117.56 64.8219 117.453 64.8592C117.271 64.9233 117.148 65.03 117.084 65.1795C117.026 65.3289 116.996 65.4917 116.996 65.6679V73.8585C116.996 74.0454 117.026 74.2028 117.084 74.3309C117.148 74.459 117.271 74.5711 117.453 74.6672C117.544 74.7152 117.704 74.7633 117.933 74.8113C118.168 74.8594 118.352 74.886 118.486 74.8914V75.4598Z" fill="white"/>
<path d="M129.834 64.6671C129.743 64.6724 129.599 64.7098 129.401 64.7792C129.204 64.8432 129.062 64.9073 128.977 64.9713C128.768 65.0994 128.627 65.1982 128.552 65.2676C128.477 65.337 128.333 65.5184 128.12 65.812C127.703 66.3992 127.319 66.9943 126.967 67.5975C126.614 68.2006 126.174 68.9666 125.645 69.8953C125.448 70.2369 125.317 70.5118 125.253 70.72C125.189 70.9282 125.157 71.2297 125.157 71.6247V73.7945C125.157 73.9866 125.194 74.1548 125.269 74.2989C125.349 74.4377 125.482 74.5498 125.669 74.6352C125.781 74.6779 125.982 74.7313 126.27 74.7953C126.558 74.854 126.79 74.886 126.967 74.8914V75.4598H121.649V74.8914C121.799 74.8807 122.023 74.862 122.322 74.8353C122.621 74.8033 122.829 74.7633 122.946 74.7152C123.139 74.6352 123.269 74.5258 123.339 74.387C123.414 74.2482 123.451 74.0774 123.451 73.8746V71.1123C123.451 71.0269 123.398 70.8721 123.291 70.6479C123.189 70.4184 123.067 70.1649 122.922 69.8873C122.602 69.2681 122.247 68.5983 121.857 67.8777C121.468 67.1571 121.129 66.5406 120.84 66.0282C120.664 65.7239 120.507 65.4944 120.368 65.3396C120.234 65.1848 120.079 65.0487 119.903 64.9313C119.775 64.8512 119.62 64.7898 119.439 64.7471C119.263 64.7044 119.102 64.6778 118.958 64.6671V64.0986H123.803V64.6671C123.259 64.6778 122.874 64.7151 122.65 64.7792C122.426 64.8432 122.314 64.934 122.314 65.0514C122.314 65.0834 122.33 65.1395 122.362 65.2195C122.394 65.2996 122.439 65.401 122.498 65.5238C122.567 65.6626 122.65 65.8227 122.746 66.0042C122.842 66.1803 122.933 66.3511 123.018 66.5166C123.269 66.9916 123.526 67.4667 123.787 67.9417C124.049 68.4115 124.391 69.0253 124.812 69.7832C125.651 68.4328 126.289 67.3813 126.726 66.6287C127.169 65.8707 127.391 65.417 127.391 65.2676C127.391 65.1448 127.346 65.0461 127.255 64.9713C127.164 64.8966 127.044 64.8379 126.894 64.7952C126.74 64.7525 126.571 64.7258 126.39 64.7151C126.208 64.6991 126.04 64.6831 125.885 64.6671V64.0986H129.834V64.6671Z" fill="white"/>
<path d="M137.257 70.2476C137.497 70.5145 137.674 70.8081 137.786 71.1283C137.903 71.4432 137.962 71.8115 137.962 72.2332C137.962 73.2367 137.591 74.064 136.849 74.7152C136.107 75.3664 135.186 75.692 134.086 75.692C133.579 75.692 133.072 75.6146 132.564 75.4598C132.057 75.2997 131.619 75.1076 131.251 74.8834L130.907 75.4679H130.266L130.154 71.5767H130.803C130.936 72.0571 131.091 72.4921 131.267 72.8818C131.448 73.2661 131.686 73.6264 131.98 73.9626C132.257 74.2776 132.58 74.5284 132.949 74.7152C133.322 74.9021 133.755 74.9955 134.246 74.9955C134.614 74.9955 134.935 74.9474 135.207 74.8513C135.485 74.7553 135.709 74.6192 135.88 74.443C136.051 74.2669 136.176 74.0614 136.256 73.8265C136.342 73.5863 136.384 73.3114 136.384 73.0018C136.384 72.5481 136.256 72.1265 136 71.7368C135.744 71.3418 135.362 71.0429 134.855 70.8401C134.508 70.7013 134.11 70.5492 133.661 70.3837C133.213 70.2129 132.826 70.0528 132.5 69.9033C131.86 69.6151 131.36 69.2388 131.003 68.7744C130.65 68.3047 130.474 67.6935 130.474 66.9409C130.474 66.5086 130.562 66.1056 130.738 65.7319C130.915 65.3583 131.166 65.0247 131.491 64.7311C131.801 64.4536 132.167 64.2374 132.588 64.0826C133.01 63.9225 133.451 63.8424 133.91 63.8424C134.433 63.8424 134.9 63.9225 135.311 64.0826C135.728 64.2427 136.107 64.4296 136.448 64.6431L136.777 64.0986H137.417L137.481 67.8697H136.833C136.715 67.4373 136.582 67.0237 136.432 66.6287C136.288 66.2337 136.099 65.8761 135.864 65.5558C135.634 65.2462 135.354 65.0007 135.023 64.8192C134.692 64.6324 134.286 64.539 133.806 64.539C133.298 64.539 132.866 64.7018 132.508 65.0274C132.151 65.353 131.972 65.7506 131.972 66.2203C131.972 66.7114 132.086 67.1197 132.316 67.4453C132.546 67.7656 132.879 68.0298 133.317 68.238C133.707 68.4248 134.089 68.5876 134.462 68.7264C134.841 68.8598 135.207 69.0039 135.559 69.1587C135.88 69.2975 136.187 69.455 136.48 69.6311C136.779 69.8073 137.038 70.0128 137.257 70.2476Z" fill="white"/>
<path d="M144.36 75.4598H139.243V74.8914C139.387 74.8807 139.596 74.8647 139.868 74.8433C140.14 74.822 140.332 74.79 140.444 74.7473C140.621 74.6779 140.749 74.5845 140.829 74.467C140.909 74.3443 140.949 74.1761 140.949 73.9626V65.7319C140.949 65.5451 140.92 65.3903 140.861 65.2676C140.802 65.1395 140.663 65.0327 140.444 64.9473C140.284 64.8833 140.081 64.8245 139.836 64.7712C139.596 64.7124 139.398 64.6778 139.243 64.6671V64.0986H144.36V64.6671C144.195 64.6724 143.997 64.6938 143.768 64.7311C143.538 64.7632 143.338 64.8059 143.167 64.8592C142.964 64.9233 142.828 65.0274 142.759 65.1715C142.689 65.3156 142.655 65.4757 142.655 65.6519V73.8746C142.655 74.0507 142.692 74.2082 142.767 74.3469C142.847 74.4804 142.98 74.5871 143.167 74.6672C143.279 74.7099 143.461 74.7579 143.712 74.8113C143.968 74.8594 144.184 74.886 144.36 74.8914V75.4598Z" fill="white"/>
<path d="M150.791 75.7241C150.113 75.7241 149.462 75.5906 148.837 75.3237C148.218 75.0569 147.668 74.6725 147.187 74.1708C146.712 73.6691 146.333 73.0579 146.05 72.3373C145.767 71.6114 145.626 70.7947 145.626 69.8873C145.626 68.9799 145.765 68.1579 146.042 67.4213C146.32 66.6794 146.704 66.0415 147.195 65.5078C147.681 64.9793 148.255 64.571 148.917 64.2828C149.579 63.9945 150.287 63.8504 151.039 63.8504C151.6 63.8504 152.107 63.9198 152.561 64.0586C153.015 64.1974 153.447 64.3922 153.858 64.6431L154.187 64.0986H154.827L154.899 68.1499H154.243C154.157 67.7549 154.029 67.3279 153.858 66.8689C153.687 66.4045 153.487 66.0122 153.258 65.6919C153.001 65.3289 152.697 65.0461 152.345 64.8432C151.992 64.6351 151.589 64.531 151.135 64.531C150.618 64.531 150.134 64.6457 149.686 64.8752C149.243 65.1048 148.858 65.4437 148.533 65.8921C148.223 66.3244 147.98 66.8742 147.804 67.5414C147.628 68.2086 147.54 68.9532 147.54 69.7752C147.54 70.5011 147.63 71.1684 147.812 71.7769C147.999 72.38 148.263 72.9111 148.605 73.3701C148.947 73.8238 149.35 74.1788 149.814 74.435C150.284 74.6912 150.807 74.8193 151.384 74.8193C151.816 74.8193 152.214 74.7526 152.577 74.6192C152.94 74.4804 153.255 74.2989 153.522 74.0747C153.789 73.8399 154.024 73.573 154.227 73.2741C154.429 72.9752 154.595 72.6496 154.723 72.2973L155.324 72.5855C154.865 73.7118 154.256 74.5177 153.498 75.0035C152.74 75.4839 151.837 75.7241 150.791 75.7241Z" fill="white"/>
<path d="M166.92 75.4598H162.187V74.8914C162.603 74.8647 162.948 74.8113 163.22 74.7313C163.498 74.6512 163.636 74.5524 163.636 74.435C163.636 74.387 163.631 74.3283 163.62 74.2589C163.61 74.1895 163.594 74.1281 163.572 74.0747L162.627 71.5287H158.647C158.498 71.9023 158.375 72.2279 158.279 72.5054C158.188 72.783 158.105 73.0392 158.031 73.2741C157.961 73.5036 157.913 73.6904 157.886 73.8345C157.86 73.9786 157.846 74.0961 157.846 74.1868C157.846 74.4003 158.015 74.5658 158.351 74.6832C158.687 74.8006 159.066 74.87 159.488 74.8914V75.4598H155.212V74.8914C155.35 74.8807 155.524 74.8514 155.732 74.8033C155.94 74.7499 156.111 74.6805 156.245 74.5951C156.458 74.451 156.624 74.3016 156.741 74.1468C156.859 73.9866 156.973 73.7678 157.086 73.4902C157.657 72.0651 158.287 70.4638 158.976 68.6863C159.664 66.9089 160.278 65.3263 160.817 63.9385H161.458L165.246 73.7384C165.326 73.9466 165.417 74.1148 165.518 74.2429C165.62 74.371 165.761 74.4964 165.943 74.6192C166.065 74.6939 166.226 74.7579 166.423 74.8113C166.621 74.8594 166.786 74.886 166.92 74.8914V75.4598ZM162.339 70.8161L160.617 66.4125L158.927 70.8161H162.339Z" fill="white"/>
<path d="M176.45 72.0811L176.209 75.4598H167.328V74.8914C167.456 74.8807 167.64 74.862 167.881 74.8353C168.126 74.8086 168.297 74.774 168.393 74.7313C168.553 74.6619 168.668 74.5604 168.738 74.427C168.812 74.2936 168.85 74.1228 168.85 73.9146V65.78C168.85 65.5985 168.818 65.4384 168.754 65.2996C168.695 65.1608 168.575 65.0487 168.393 64.9633C168.27 64.8993 168.097 64.8379 167.873 64.7792C167.654 64.7151 167.472 64.6778 167.328 64.6671V64.0986H172.125V64.6671C171.976 64.6724 171.781 64.6991 171.54 64.7471C171.306 64.7952 171.135 64.8379 171.028 64.8752C170.846 64.9393 170.721 65.0487 170.652 65.2035C170.587 65.3583 170.555 65.5238 170.555 65.6999V73.3301C170.555 73.6824 170.571 73.9573 170.603 74.1548C170.641 74.3469 170.724 74.4964 170.852 74.6031C170.975 74.6992 171.156 74.7633 171.396 74.7953C171.642 74.822 171.984 74.8353 172.421 74.8353C172.619 74.8353 172.824 74.83 173.038 74.8193C173.252 74.8086 173.454 74.7873 173.647 74.7553C173.833 74.7232 174.004 74.6805 174.159 74.6272C174.319 74.5685 174.437 74.4964 174.512 74.411C174.73 74.1655 174.984 73.7945 175.272 73.2981C175.566 72.7963 175.769 72.3907 175.881 72.0811H176.45Z" fill="white"/>
<path d="M190.416 67.1811H189.863C189.815 66.989 189.727 66.7621 189.599 66.5006C189.476 66.2337 189.337 65.9828 189.183 65.748C189.022 65.5024 188.846 65.2889 188.654 65.1074C188.467 64.9206 188.286 64.8139 188.11 64.7872C187.944 64.7658 187.736 64.7498 187.485 64.7391C187.234 64.7285 187.002 64.7231 186.788 64.7231H186.324V73.8105C186.324 73.9866 186.361 74.1494 186.436 74.2989C186.511 74.443 186.641 74.5551 186.828 74.6352C186.924 74.6725 187.125 74.7232 187.429 74.7873C187.738 74.8514 187.979 74.886 188.15 74.8914V75.4598H182.784V74.8914C182.934 74.8807 183.16 74.8594 183.465 74.8273C183.774 74.7953 183.988 74.7553 184.105 74.7072C184.282 74.6378 184.41 74.5391 184.49 74.411C184.575 74.2776 184.618 74.1014 184.618 73.8826V64.7231H184.153C183.988 64.7231 183.782 64.7285 183.537 64.7391C183.291 64.7445 183.056 64.7605 182.832 64.7872C182.656 64.8085 182.472 64.9153 182.28 65.1074C182.093 65.2943 181.919 65.5078 181.759 65.748C181.599 65.9882 181.457 66.2444 181.335 66.5166C181.212 66.7835 181.126 67.005 181.078 67.1811H180.518V64.0986H190.416V67.1811Z" fill="white"/>
<path d="M203.101 75.4598H198.384V74.8914C198.512 74.8807 198.696 74.8647 198.937 74.8433C199.182 74.822 199.35 74.79 199.441 74.7473C199.601 74.6832 199.719 74.5871 199.794 74.459C199.868 74.3256 199.906 74.1548 199.906 73.9466V69.9033H194.564V73.8585C194.564 74.0454 194.594 74.2028 194.652 74.3309C194.716 74.459 194.839 74.5711 195.021 74.6672C195.111 74.7152 195.272 74.7633 195.501 74.8113C195.736 74.8594 195.92 74.886 196.054 74.8914V75.4598H191.337V74.8914C191.465 74.8807 191.649 74.8647 191.889 74.8433C192.135 74.822 192.303 74.79 192.394 74.7473C192.554 74.6832 192.672 74.5871 192.746 74.459C192.821 74.3256 192.858 74.1548 192.858 73.9466V65.748C192.858 65.5771 192.824 65.4224 192.754 65.2836C192.685 65.1395 192.565 65.0274 192.394 64.9473C192.25 64.8779 192.074 64.8165 191.865 64.7632C191.663 64.7098 191.486 64.6778 191.337 64.6671V64.0986H196.054V64.6671C195.904 64.6724 195.72 64.6964 195.501 64.7391C195.288 64.7818 195.127 64.8219 195.021 64.8592C194.839 64.9233 194.716 65.03 194.652 65.1795C194.594 65.3289 194.564 65.4917 194.564 65.6679V69.1908H199.906V65.748C199.906 65.5771 199.871 65.4224 199.802 65.2836C199.732 65.1395 199.612 65.0274 199.441 64.9473C199.297 64.8779 199.121 64.8165 198.913 64.7632C198.71 64.7098 198.534 64.6778 198.384 64.6671V64.0986H203.101V64.6671C202.951 64.6724 202.767 64.6964 202.548 64.7391C202.335 64.7818 202.175 64.8219 202.068 64.8592C201.886 64.9233 201.764 65.03 201.7 65.1795C201.641 65.3289 201.611 65.4917 201.611 65.6679V73.8585C201.611 74.0454 201.641 74.2028 201.7 74.3309C201.764 74.459 201.886 74.5711 202.068 74.6672C202.159 74.7152 202.319 74.7633 202.548 74.8113C202.783 74.8594 202.967 74.886 203.101 74.8914V75.4598Z" fill="white"/>
<path d="M214.264 72.1131L214.048 75.4598H204.615V74.8914C204.775 74.8807 204.988 74.8594 205.255 74.8273C205.522 74.79 205.696 74.7526 205.776 74.7152C205.947 74.6352 206.064 74.5311 206.128 74.403C206.197 74.2749 206.232 74.1121 206.232 73.9146V65.748C206.232 65.5718 206.203 65.417 206.144 65.2836C206.085 65.1448 205.963 65.0327 205.776 64.9473C205.632 64.8779 205.437 64.8165 205.191 64.7632C204.951 64.7098 204.759 64.6778 204.615 64.6671V64.0986H213.408V66.8368H212.807C212.7 66.4312 212.468 66.0015 212.11 65.5478C211.758 65.0888 211.422 64.8379 211.101 64.7952C210.936 64.7738 210.738 64.7578 210.509 64.7471C210.279 64.7365 210.017 64.7311 209.724 64.7311H207.938V69.2468H209.219C209.63 69.2468 209.929 69.2094 210.116 69.1347C210.308 69.0546 210.477 68.9239 210.621 68.7424C210.738 68.5876 210.837 68.3821 210.917 68.1259C211.002 67.8643 211.058 67.6188 211.085 67.3893H211.686V71.8329H211.085C211.064 71.5767 211.005 71.3071 210.909 71.0242C210.818 70.736 210.722 70.5278 210.621 70.3997C210.455 70.1916 210.266 70.0555 210.052 69.9914C209.844 69.9274 209.566 69.8953 209.219 69.8953H207.938V73.3061C207.938 73.6477 207.962 73.9173 208.01 74.1148C208.058 74.3122 208.151 74.4617 208.29 74.5631C208.429 74.6645 208.619 74.7313 208.859 74.7633C209.099 74.79 209.441 74.8033 209.884 74.8033C210.06 74.8033 210.292 74.8033 210.581 74.8033C210.869 74.8033 211.112 74.7926 211.309 74.7713C211.512 74.7499 211.72 74.7126 211.934 74.6592C212.153 74.6005 212.308 74.5231 212.399 74.427C212.644 74.1708 212.9 73.7838 213.167 73.2661C213.44 72.743 213.613 72.3587 213.688 72.1131H214.264Z" fill="white"/>
<path d="M226.493 75.4598H223.434C222.756 74.3976 222.142 73.4796 221.592 72.7056C221.047 71.9316 220.455 71.1337 219.814 70.3117H218.653V73.9146C218.653 74.1014 218.682 74.2669 218.741 74.411C218.8 74.5498 218.925 74.6565 219.117 74.7313C219.214 74.7686 219.382 74.8033 219.622 74.8353C219.862 74.8674 220.065 74.886 220.231 74.8914V75.4598H215.426V74.8914C215.554 74.8807 215.738 74.862 215.978 74.8353C216.224 74.8086 216.395 74.774 216.491 74.7313C216.651 74.6619 216.766 74.5604 216.835 74.427C216.91 74.2936 216.947 74.1228 216.947 73.9146V65.6999C216.947 65.5131 216.921 65.3476 216.867 65.2035C216.814 65.0594 216.688 64.95 216.491 64.8752C216.357 64.8272 216.184 64.7845 215.97 64.7471C215.757 64.7044 215.575 64.6778 215.426 64.6671V64.0986H220.671C221.152 64.0986 221.603 64.1493 222.024 64.2507C222.446 64.3468 222.828 64.5043 223.17 64.7231C223.501 64.9366 223.765 65.2169 223.962 65.5638C224.16 65.9054 224.259 66.3191 224.259 66.8048C224.259 67.2425 224.192 67.6295 224.059 67.9658C223.925 68.302 223.728 68.5929 223.466 68.8385C223.226 69.068 222.937 69.2681 222.601 69.439C222.265 69.6044 221.894 69.7459 221.488 69.8633C222.048 70.6052 222.513 71.2297 222.881 71.7368C223.255 72.2439 223.712 72.8604 224.251 73.5863C224.486 73.9066 224.697 74.1441 224.883 74.2989C225.076 74.4484 225.265 74.5711 225.452 74.6672C225.591 74.7366 225.764 74.79 225.973 74.8273C226.181 74.8647 226.354 74.886 226.493 74.8914V75.4598ZM222.281 66.989C222.281 66.3004 222.083 65.756 221.688 65.3556C221.293 64.95 220.735 64.7471 220.014 64.7471H218.653V69.6231H219.702C220.439 69.6231 221.053 69.3882 221.544 68.9185C222.035 68.4435 222.281 67.8003 222.281 66.989Z" fill="white"/>
<path d="M237.536 75.4598H232.804V74.8914C233.22 74.8647 233.564 74.8113 233.837 74.7313C234.114 74.6512 234.253 74.5524 234.253 74.435C234.253 74.387 234.248 74.3283 234.237 74.2589C234.226 74.1895 234.21 74.1281 234.189 74.0747L233.244 71.5287H229.264C229.114 71.9023 228.992 72.2279 228.895 72.5054C228.805 72.783 228.722 73.0392 228.647 73.2741C228.578 73.5036 228.53 73.6904 228.503 73.8345C228.476 73.9786 228.463 74.0961 228.463 74.1868C228.463 74.4003 228.631 74.5658 228.968 74.6832C229.304 74.8006 229.683 74.87 230.105 74.8914V75.4598H225.828V74.8914C225.967 74.8807 226.141 74.8514 226.349 74.8033C226.557 74.7499 226.728 74.6805 226.861 74.5951C227.075 74.451 227.24 74.3016 227.358 74.1468C227.475 73.9866 227.59 73.7678 227.702 73.4902C228.274 72.0651 228.904 70.4638 229.592 68.6863C230.281 66.9089 230.895 65.3263 231.434 63.9385H232.075L235.863 73.7384C235.943 73.9466 236.034 74.1148 236.135 74.2429C236.236 74.371 236.378 74.4964 236.559 74.6192C236.682 74.6939 236.842 74.7579 237.04 74.8113C237.237 74.8594 237.403 74.886 237.536 74.8914V75.4598ZM232.956 70.8161L231.234 66.4125L229.544 70.8161H232.956Z" fill="white"/>
<path d="M246.642 66.9009C246.642 67.4934 246.524 68.0191 246.289 68.4782C246.06 68.9319 245.74 69.3082 245.328 69.6071C244.923 69.906 244.477 70.1248 243.991 70.2636C243.505 70.4024 242.99 70.4718 242.445 70.4718H241.172V73.9146C241.172 74.1014 241.202 74.2669 241.26 74.411C241.324 74.5498 241.452 74.6565 241.645 74.7313C241.741 74.7686 241.909 74.8033 242.149 74.8353C242.395 74.8674 242.619 74.886 242.822 74.8914V75.4598H237.945V74.8914C238.073 74.8807 238.257 74.862 238.497 74.8353C238.743 74.8086 238.914 74.774 239.01 74.7313C239.17 74.6619 239.285 74.5604 239.354 74.427C239.429 74.2936 239.466 74.1228 239.466 73.9146V65.7159C239.466 65.5291 239.44 65.361 239.386 65.2115C239.333 65.0621 239.207 64.95 239.01 64.8752C238.807 64.8059 238.604 64.7578 238.401 64.7311C238.204 64.6991 238.033 64.6778 237.889 64.6671V64.0986H243.078C244.135 64.0986 244.992 64.3548 245.649 64.8672C246.311 65.3743 246.642 66.0522 246.642 66.9009ZM244.207 68.8385C244.389 68.5823 244.509 68.318 244.568 68.0458C244.626 67.7683 244.656 67.5201 244.656 67.3012C244.656 66.997 244.618 66.6874 244.544 66.3725C244.474 66.0575 244.351 65.7827 244.175 65.5478C243.988 65.2969 243.743 65.1021 243.438 64.9633C243.134 64.8245 242.755 64.7551 242.301 64.7551H241.172V69.7752H241.989C242.566 69.7752 243.033 69.6872 243.39 69.511C243.753 69.3295 244.026 69.1053 244.207 68.8385Z" fill="white"/>
<path d="M257.693 64.6671C257.602 64.6724 257.458 64.7098 257.261 64.7792C257.063 64.8432 256.922 64.9073 256.836 64.9713C256.628 65.0994 256.487 65.1982 256.412 65.2676C256.337 65.337 256.193 65.5184 255.979 65.812C255.563 66.3992 255.179 66.9943 254.826 67.5975C254.474 68.2006 254.033 68.9666 253.505 69.8953C253.307 70.2369 253.177 70.5118 253.112 70.72C253.048 70.9282 253.016 71.2297 253.016 71.6247V73.7945C253.016 73.9866 253.054 74.1548 253.128 74.2989C253.209 74.4377 253.342 74.5498 253.529 74.6352C253.641 74.6779 253.841 74.7313 254.13 74.7953C254.418 74.854 254.65 74.886 254.826 74.8914V75.4598H249.509V74.8914C249.658 74.8807 249.882 74.862 250.181 74.8353C250.48 74.8033 250.689 74.7633 250.806 74.7152C250.998 74.6352 251.129 74.5258 251.198 74.387C251.273 74.2482 251.311 74.0774 251.311 73.8746V71.1123C251.311 71.0269 251.257 70.8721 251.15 70.6479C251.049 70.4184 250.926 70.1649 250.782 69.8873C250.462 69.2681 250.107 68.5983 249.717 67.8777C249.327 67.1571 248.988 66.5406 248.7 66.0282C248.524 65.7239 248.366 65.4944 248.227 65.3396C248.094 65.1848 247.939 65.0487 247.763 64.9313C247.635 64.8512 247.48 64.7898 247.298 64.7471C247.122 64.7044 246.962 64.6778 246.818 64.6671V64.0986H251.663V64.6671C251.118 64.6778 250.734 64.7151 250.51 64.7792C250.286 64.8432 250.173 64.934 250.173 65.0514C250.173 65.0834 250.189 65.1395 250.221 65.2195C250.254 65.2996 250.299 65.401 250.358 65.5238C250.427 65.6626 250.51 65.8227 250.606 66.0042C250.702 66.1803 250.793 66.3511 250.878 66.5166C251.129 66.9916 251.385 67.4667 251.647 67.9417C251.909 68.4115 252.25 69.0253 252.672 69.7832C253.51 68.4328 254.148 67.3813 254.586 66.6287C255.029 65.8707 255.251 65.417 255.251 65.2676C255.251 65.1448 255.205 65.0461 255.115 64.9713C255.024 64.8966 254.904 64.8379 254.754 64.7952C254.599 64.7525 254.431 64.7258 254.25 64.7151C254.068 64.6991 253.9 64.6831 253.745 64.6671V64.0986H257.693V64.6671Z" fill="white"/>
<path d="M102.739 53.0292C101.765 53.0292 100.853 52.8731 100.003 52.5608C99.1533 52.2422 98.4129 51.7831 97.7819 51.1835C97.1634 50.5963 96.6761 49.8718 96.32 49.0098C95.9639 48.1416 95.7858 47.189 95.7858 46.1522C95.7858 45.1215 95.9639 44.169 96.32 43.2945C96.6824 42.4138 97.1884 41.6518 97.8382 41.0084C98.4754 40.3775 99.2407 39.8903 100.134 39.5468C101.028 39.197 101.983 39.0221 103.002 39.0221C103.739 39.0221 104.411 39.1127 105.017 39.2938C105.623 39.4687 106.135 39.6686 106.554 39.8935L107.135 39.3782H107.95L108.034 44.2314H107.21C106.741 42.7511 106.179 41.6643 105.523 40.9709C104.867 40.2776 104.067 39.9309 103.124 39.9309C101.949 39.9309 101.056 40.4494 100.443 41.4862C99.8311 42.5169 99.525 43.966 99.525 45.8336C99.525 46.8892 99.6281 47.7918 99.8343 48.5413C100.047 49.2846 100.322 49.8843 100.659 50.3402C101.021 50.8149 101.449 51.1647 101.943 51.3896C102.436 51.6082 102.983 51.7175 103.583 51.7175C104.457 51.7175 105.235 51.4802 105.916 51.0055C106.603 50.5307 107.228 49.8124 107.791 48.8505L108.596 49.3377C108.328 49.8874 108.022 50.3808 107.678 50.8181C107.334 51.2491 106.938 51.6207 106.488 51.933C105.994 52.2766 105.448 52.5451 104.848 52.7388C104.254 52.9324 103.552 53.0292 102.739 53.0292Z" fill="white"/>
<path d="M125.737 52.6732H118.549V51.9424C118.705 51.9299 118.933 51.9112 119.233 51.8862C119.533 51.8612 119.739 51.8237 119.851 51.7737C120.083 51.68 120.242 51.5582 120.329 51.4083C120.417 51.2522 120.461 51.0554 120.461 50.8181V46.2365H114.782V50.715C114.782 50.9274 114.825 51.1179 114.913 51.2865C115.006 51.4552 115.163 51.5864 115.381 51.68C115.5 51.73 115.703 51.7831 115.99 51.8393C116.278 51.8955 116.512 51.9299 116.693 51.9424V52.6732H109.505V51.9424C109.662 51.9361 109.89 51.9174 110.19 51.8862C110.496 51.8487 110.718 51.805 110.855 51.755C111.08 51.6738 111.236 51.552 111.324 51.3896C111.411 51.2209 111.455 51.0242 111.455 50.7993V41.3926C111.455 41.1739 111.414 40.9897 111.333 40.8398C111.258 40.6899 111.099 40.5587 110.855 40.4463C110.674 40.3651 110.436 40.2932 110.143 40.2308C109.849 40.1621 109.637 40.1215 109.505 40.109V39.3782H116.693V40.109C116.5 40.1215 116.268 40.1527 116 40.2027C115.731 40.2526 115.525 40.2995 115.381 40.3432C115.138 40.4244 114.975 40.5556 114.894 40.7367C114.819 40.9116 114.782 41.099 114.782 41.2989V45.2714H120.461V41.3926C120.461 41.1739 120.42 40.9897 120.339 40.8398C120.258 40.6899 120.095 40.5587 119.851 40.4463C119.689 40.3713 119.47 40.3026 119.195 40.2401C118.927 40.1714 118.711 40.1277 118.549 40.109V39.3782H125.737V40.109C125.537 40.1215 125.312 40.1496 125.062 40.1933C124.812 40.2308 124.587 40.2807 124.387 40.3432C124.15 40.4244 123.99 40.5524 123.909 40.7273C123.828 40.9022 123.787 41.0927 123.787 41.2989V50.715C123.787 50.9399 123.828 51.1304 123.909 51.2865C123.99 51.4427 124.15 51.5739 124.387 51.68C124.537 51.7425 124.753 51.7987 125.034 51.8487C125.321 51.8987 125.555 51.9299 125.737 51.9424V52.6732Z" fill="white"/>
<path d="M134.349 52.6732H126.974V51.9424C127.142 51.9299 127.389 51.9112 127.714 51.8862C128.045 51.8612 128.273 51.8237 128.398 51.7737C128.629 51.68 128.785 51.5582 128.867 51.4083C128.954 51.2522 128.998 51.0554 128.998 50.8181V41.3926C128.998 41.1802 128.957 40.9928 128.876 40.8304C128.795 40.668 128.636 40.5368 128.398 40.4369C128.248 40.3744 128.026 40.312 127.733 40.2495C127.439 40.1808 127.186 40.1339 126.974 40.109V39.3782H134.349V40.109C134.162 40.1277 133.927 40.1558 133.646 40.1933C133.365 40.2245 133.128 40.2714 132.934 40.3338C132.69 40.415 132.528 40.5431 132.447 40.718C132.365 40.8866 132.325 41.0802 132.325 41.2989V50.715C132.325 50.9399 132.365 51.1335 132.447 51.2959C132.534 51.4521 132.696 51.5801 132.934 51.68C133.065 51.7363 133.281 51.7925 133.58 51.8487C133.887 51.8987 134.143 51.9299 134.349 51.9424V52.6732Z" fill="white"/>
<path d="M150.861 52.6732H145.763C144.882 51.324 144.148 50.2497 143.561 49.4502C142.98 48.6506 142.255 47.7262 141.387 46.6768H140.871V50.715C140.871 50.9399 140.912 51.1304 140.993 51.2865C141.081 51.4427 141.243 51.5739 141.481 51.68C141.599 51.73 141.784 51.7831 142.033 51.8393C142.29 51.8893 142.508 51.9236 142.689 51.9424V52.6732H135.595V51.9424C135.777 51.9236 136.014 51.8987 136.308 51.8674C136.607 51.83 136.82 51.7862 136.945 51.7363C137.182 51.6363 137.342 51.5114 137.423 51.3615C137.504 51.2053 137.545 51.0086 137.545 50.7712V41.3926C137.545 41.1677 137.51 40.9803 137.441 40.8304C137.373 40.6805 137.207 40.5493 136.945 40.4369C136.745 40.3557 136.507 40.287 136.233 40.2308C135.964 40.1745 135.752 40.1339 135.595 40.109V39.3782H143.055C144.723 39.3782 145.988 39.6405 146.85 40.1652C147.719 40.6836 148.153 41.4706 148.153 42.5262C148.153 43.4569 147.884 44.2065 147.347 44.7749C146.816 45.337 146.004 45.7774 144.91 46.0959C145.335 46.6456 145.829 47.2827 146.391 48.0073C146.96 48.7318 147.55 49.472 148.162 50.2278C148.356 50.4714 148.618 50.7712 148.95 51.1273C149.287 51.477 149.584 51.6925 149.84 51.7737C149.983 51.8175 150.165 51.8549 150.383 51.8862C150.608 51.9174 150.768 51.9361 150.861 51.9424V52.6732ZM144.479 42.7886C144.479 41.9016 144.229 41.2551 143.73 40.8491C143.236 40.4369 142.53 40.2308 141.612 40.2308H140.871V45.7961H141.584C142.502 45.7961 143.214 45.5556 143.72 45.0747C144.226 44.5937 144.479 43.8317 144.479 42.7886Z" fill="white"/>
<path d="M163.194 40.8585C163.85 41.4581 164.369 42.1827 164.75 43.0322C165.137 43.8817 165.331 44.8498 165.331 45.9367C165.331 46.9048 165.168 47.8261 164.843 48.7006C164.518 49.5751 164.05 50.3277 163.438 50.9586C162.794 51.6145 162.038 52.1266 161.17 52.4952C160.301 52.8575 159.267 53.0386 158.068 53.0386C157.099 53.0386 156.184 52.8793 155.322 52.5608C154.46 52.2422 153.701 51.78 153.045 51.1741C152.395 50.5807 151.88 49.8593 151.499 49.0098C151.117 48.1603 150.927 47.214 150.927 46.1709C150.927 45.0841 151.111 44.1003 151.48 43.2196C151.855 42.3326 152.367 41.5737 153.017 40.9428C153.66 40.3245 154.422 39.8497 155.303 39.5187C156.19 39.1814 157.134 39.0128 158.133 39.0128C159.127 39.0128 160.058 39.1752 160.926 39.5C161.801 39.8248 162.557 40.2776 163.194 40.8585ZM160.786 50.3683C161.067 49.7999 161.27 49.1566 161.395 48.4383C161.52 47.72 161.582 46.9079 161.582 46.0022C161.582 45.234 161.526 44.4875 161.413 43.763C161.307 43.0322 161.123 42.3826 160.861 41.8142C160.592 41.2458 160.236 40.7898 159.792 40.4463C159.349 40.1027 158.796 39.9309 158.133 39.9309C157.003 39.9309 156.144 40.4681 155.556 41.5425C154.969 42.6106 154.675 44.1221 154.675 46.0772C154.675 46.9079 154.738 47.6918 154.863 48.4289C154.994 49.1659 155.197 49.8093 155.472 50.359C155.753 50.9149 156.109 51.349 156.54 51.6613C156.971 51.9674 157.502 52.1204 158.133 52.1204C158.752 52.1204 159.283 51.9642 159.727 51.6519C160.17 51.3396 160.523 50.9118 160.786 50.3683Z" fill="white"/>
<path d="M179.116 42.7043C179.116 43.4538 178.96 44.1003 178.647 44.6437C178.341 45.1809 177.916 45.6181 177.373 45.9554C176.811 46.3052 176.167 46.5582 175.442 46.7143C174.724 46.8705 173.915 46.9485 173.015 46.9485H171.928V50.6869C171.928 50.9118 171.969 51.1085 172.05 51.2772C172.137 51.4396 172.3 51.5707 172.537 51.6707C172.662 51.7206 172.865 51.7737 173.146 51.83C173.427 51.8862 173.665 51.9236 173.859 51.9424V52.6732H166.652V51.9424C166.833 51.9236 167.074 51.8987 167.374 51.8674C167.673 51.83 167.883 51.7862 168.001 51.7363C168.245 51.6363 168.404 51.5145 168.479 51.3709C168.561 51.2272 168.601 51.0273 168.601 50.7712V41.3926C168.601 41.1739 168.564 40.9865 168.489 40.8304C168.414 40.668 168.251 40.5337 168.001 40.4275C167.827 40.3526 167.592 40.287 167.299 40.2308C167.011 40.1683 166.796 40.1277 166.652 40.109V39.3782H173.99C175.708 39.3782 176.992 39.653 177.841 40.2027C178.691 40.7461 179.116 41.5799 179.116 42.7043ZM175.461 43.1821C175.461 42.1827 175.258 41.4425 174.852 40.9616C174.452 40.4744 173.737 40.2308 172.706 40.2308H171.928V46.0678H172.322C173.346 46.0678 174.124 45.8336 174.655 45.3651C175.192 44.8904 175.461 44.1627 175.461 43.1821Z" fill="white"/>
<path d="M195.375 52.6732H190.277C189.396 51.324 188.662 50.2497 188.075 49.4502C187.494 48.6506 186.769 47.7262 185.901 46.6768H185.385V50.715C185.385 50.9399 185.426 51.1304 185.507 51.2865C185.595 51.4427 185.757 51.5739 185.994 51.68C186.113 51.73 186.297 51.7831 186.547 51.8393C186.804 51.8893 187.022 51.9236 187.203 51.9424V52.6732H180.109V51.9424C180.29 51.9236 180.528 51.8987 180.821 51.8674C181.121 51.83 181.334 51.7862 181.459 51.7363C181.696 51.6363 181.855 51.5114 181.937 51.3615C182.018 51.2053 182.059 51.0086 182.059 50.7712V41.3926C182.059 41.1677 182.024 40.9803 181.955 40.8304C181.887 40.6805 181.721 40.5493 181.459 40.4369C181.259 40.3557 181.021 40.287 180.747 40.2308C180.478 40.1745 180.265 40.1339 180.109 40.109V39.3782H187.569C189.237 39.3782 190.502 39.6405 191.364 40.1652C192.233 40.6836 192.667 41.4706 192.667 42.5262C192.667 43.4569 192.398 44.2065 191.861 44.7749C191.33 45.337 190.518 45.7774 189.424 46.0959C189.849 46.6456 190.343 47.2827 190.905 48.0073C191.474 48.7318 192.064 49.472 192.676 50.2278C192.87 50.4714 193.132 50.7712 193.463 51.1273C193.801 51.477 194.098 51.6925 194.354 51.7737C194.497 51.8175 194.679 51.8549 194.897 51.8862C195.122 51.9174 195.281 51.9361 195.375 51.9424V52.6732ZM188.993 42.7886C188.993 41.9016 188.743 41.2551 188.244 40.8491C187.75 40.4369 187.044 40.2308 186.126 40.2308H185.385V45.7961H186.098C187.016 45.7961 187.728 45.5556 188.234 45.0747C188.74 44.5937 188.993 43.8317 188.993 42.7886Z" fill="white"/>
<path d="M209.854 52.6732H202.61V51.9424C202.947 51.9174 203.344 51.8581 203.8 51.7644C204.256 51.6644 204.484 51.5426 204.484 51.399C204.484 51.349 204.478 51.2928 204.465 51.2303C204.459 51.1679 204.434 51.0835 204.39 50.9773L203.257 48.2228H198.665C198.558 48.4789 198.44 48.7787 198.308 49.1222C198.183 49.4658 198.074 49.7718 197.98 50.0404C197.862 50.3902 197.79 50.6432 197.765 50.7993C197.746 50.9555 197.737 51.0648 197.737 51.1273C197.737 51.3271 197.887 51.4989 198.187 51.6426C198.493 51.78 198.999 51.8799 199.705 51.9424V52.6732H194.251V51.9424C194.457 51.9299 194.688 51.8987 194.944 51.8487C195.207 51.7925 195.413 51.7175 195.563 51.6238C195.819 51.4739 196.034 51.2897 196.209 51.071C196.39 50.8524 196.54 50.5932 196.659 50.2934C197.384 48.5382 198.109 46.7799 198.833 45.0185C199.564 43.257 200.37 41.3145 201.251 39.1908H203.125C204.35 42.2014 205.309 44.5812 206.002 46.3302C206.696 48.0791 207.286 49.5282 207.774 50.6775C207.855 50.8649 207.958 51.0367 208.083 51.1928C208.208 51.3427 208.386 51.4864 208.617 51.6238C208.792 51.7238 208.995 51.7987 209.226 51.8487C209.457 51.8987 209.667 51.9299 209.854 51.9424V52.6732ZM202.872 47.2952L200.942 42.4794L199.039 47.2952H202.872Z" fill="white"/>
<path d="M216.957 53.0292C215.983 53.0292 215.071 52.8731 214.221 52.5608C213.371 52.2422 212.631 51.7831 212 51.1835C211.381 50.5963 210.894 49.8718 210.538 49.0098C210.182 48.1416 210.004 47.189 210.004 46.1522C210.004 45.1215 210.182 44.169 210.538 43.2945C210.9 42.4138 211.406 41.6518 212.056 41.0084C212.693 40.3775 213.459 39.8903 214.352 39.5468C215.246 39.197 216.201 39.0221 217.22 39.0221C217.957 39.0221 218.629 39.1127 219.235 39.2938C219.841 39.4687 220.353 39.6686 220.772 39.8935L221.353 39.3782H222.168L222.252 44.2314H221.428C220.959 42.7511 220.397 41.6643 219.741 40.9709C219.085 40.2776 218.285 39.9309 217.342 39.9309C216.167 39.9309 215.274 40.4494 214.661 41.4862C214.049 42.5169 213.743 43.966 213.743 45.8336C213.743 46.8892 213.846 47.7918 214.052 48.5413C214.265 49.2846 214.54 49.8843 214.877 50.3402C215.239 50.8149 215.667 51.1647 216.161 51.3896C216.654 51.6082 217.201 51.7175 217.801 51.7175C218.676 51.7175 219.453 51.4802 220.134 51.0055C220.822 50.5307 221.446 49.8124 222.009 48.8505L222.815 49.3377C222.546 49.8874 222.24 50.3808 221.896 50.8181C221.553 51.2491 221.156 51.6207 220.706 51.933C220.212 52.2766 219.666 52.5451 219.066 52.7388C218.472 52.9324 217.77 53.0292 216.957 53.0292Z" fill="white"/>
<path d="M236.084 43.1821H235.363C235.169 42.6137 234.857 42.0047 234.426 41.3551C234.001 40.7055 233.607 40.3557 233.245 40.3057C233.045 40.2807 232.798 40.2589 232.504 40.2401C232.211 40.2214 231.958 40.212 231.745 40.212H231.305V50.6401C231.305 50.8649 231.346 51.0648 231.427 51.2397C231.508 51.4083 231.667 51.5426 231.905 51.6426C232.048 51.6988 232.27 51.7581 232.57 51.8206C232.876 51.8768 233.136 51.9174 233.348 51.9424V52.6732H225.935V51.9424C226.116 51.9236 226.369 51.8987 226.694 51.8674C227.025 51.83 227.25 51.7862 227.369 51.7363C227.613 51.6363 227.775 51.502 227.856 51.3334C227.938 51.1647 227.978 50.9649 227.978 50.7337V40.212H227.538C227.325 40.212 227.072 40.2214 226.779 40.2401C226.485 40.2589 226.238 40.2807 226.038 40.3057C225.676 40.3557 225.279 40.7055 224.848 41.3551C224.423 42.0047 224.114 42.6137 223.92 43.1821H223.199V39.3782H236.084V43.1821Z" fill="white"/>
<path d="M244.181 52.6732H236.806V51.9424C236.975 51.9299 237.221 51.9112 237.546 51.8862C237.877 51.8612 238.105 51.8237 238.23 51.7737C238.462 51.68 238.618 51.5582 238.699 51.4083C238.786 51.2522 238.83 51.0554 238.83 50.8181V41.3926C238.83 41.1802 238.79 40.9928 238.708 40.8304C238.627 40.668 238.468 40.5368 238.23 40.4369C238.08 40.3744 237.859 40.312 237.565 40.2495C237.271 40.1808 237.018 40.1339 236.806 40.109V39.3782H244.181V40.109C243.994 40.1277 243.759 40.1558 243.478 40.1933C243.197 40.2245 242.96 40.2714 242.766 40.3338C242.522 40.415 242.36 40.5431 242.279 40.718C242.198 40.8866 242.157 41.0802 242.157 41.2989V50.715C242.157 50.9399 242.198 51.1335 242.279 51.2959C242.366 51.4521 242.529 51.5801 242.766 51.68C242.897 51.7363 243.113 51.7925 243.413 51.8487C243.719 51.8987 243.975 51.9299 244.181 51.9424V52.6732Z" fill="white"/>
<path d="M252.4 53.0292C251.425 53.0292 250.513 52.8731 249.663 52.5608C248.814 52.2422 248.073 51.7831 247.442 51.1835C246.824 50.5963 246.337 49.8718 245.981 49.0098C245.624 48.1416 245.446 47.189 245.446 46.1522C245.446 45.1215 245.624 44.169 245.981 43.2945C246.343 42.4138 246.849 41.6518 247.499 41.0084C248.136 40.3775 248.901 39.8903 249.795 39.5468C250.688 39.197 251.644 39.0221 252.662 39.0221C253.399 39.0221 254.071 39.1127 254.677 39.2938C255.283 39.4687 255.795 39.6686 256.214 39.8935L256.795 39.3782H257.61L257.695 44.2314H256.87C256.401 42.7511 255.839 41.6643 255.183 40.9709C254.527 40.2776 253.727 39.9309 252.784 39.9309C251.61 39.9309 250.716 40.4494 250.104 41.4862C249.492 42.5169 249.186 43.966 249.186 45.8336C249.186 46.8892 249.289 47.7918 249.495 48.5413C249.707 49.2846 249.982 49.8843 250.319 50.3402C250.682 50.8149 251.11 51.1647 251.603 51.3896C252.097 51.6082 252.644 51.7175 253.243 51.7175C254.118 51.7175 254.896 51.4802 255.577 51.0055C256.264 50.5307 256.889 49.8124 257.451 48.8505L258.257 49.3377C257.988 49.8874 257.682 50.3808 257.339 50.8181C256.995 51.2491 256.598 51.6207 256.148 51.933C255.655 52.2766 255.108 52.5451 254.508 52.7388C253.915 52.9324 253.212 53.0292 252.4 53.0292Z" fill="white"/>
<path d="M110.755 14.2044C110.576 14.2108 110.303 14.2617 109.934 14.3571C109.565 14.4525 109.301 14.551 109.142 14.6528C108.913 14.8118 108.757 15.117 108.674 15.5686C108.598 16.0201 108.56 16.5925 108.56 17.2857V27.1974H107.73L99.5239 16.1219V23.1049C99.5239 23.8872 99.5716 24.4882 99.667 24.9079C99.7688 25.3277 99.9214 25.6266 100.125 25.8046C100.271 25.9446 100.573 26.0749 101.031 26.1958C101.489 26.3166 101.792 26.3802 101.938 26.3866V27.0639H96.3846V26.3866C96.5564 26.3738 96.8458 26.3134 97.2529 26.2053C97.6601 26.0908 97.9145 25.9891 98.0163 25.9C98.2389 25.722 98.3916 25.4517 98.4743 25.0892C98.557 24.7203 98.5983 24.0939 98.5983 23.2099V16.5416C98.5983 16.2491 98.5474 15.9565 98.4457 15.664C98.3439 15.3714 98.2071 15.1457 98.0354 14.9867C97.8064 14.7768 97.4947 14.5987 97.1003 14.4525C96.7122 14.2998 96.3974 14.2171 96.1556 14.2044V13.5271H100.02L107.634 23.849V17.4097C107.634 16.6211 107.583 16.017 107.482 15.5972C107.38 15.1711 107.234 14.8881 107.043 14.7482C106.865 14.6273 106.572 14.5097 106.165 14.3952C105.764 14.2807 105.459 14.2171 105.249 14.2044V13.5271H110.755V14.2044Z" fill="white"/>
<path d="M122.796 15.1298C123.394 15.753 123.862 16.5067 124.199 17.3907C124.536 18.2683 124.705 19.2414 124.705 20.3098C124.705 21.3846 124.533 22.3608 124.189 23.2385C123.846 24.1161 123.369 24.8634 122.758 25.4803C122.166 26.0908 121.479 26.5614 120.697 26.8922C119.915 27.2229 119.081 27.3882 118.197 27.3882C117.256 27.3882 116.384 27.2133 115.583 26.8635C114.787 26.5074 114.104 26.0145 113.531 25.3849C112.959 24.768 112.507 24.0207 112.176 23.1431C111.852 22.2591 111.69 21.3146 111.69 20.3098C111.69 19.2096 111.861 18.2302 112.205 17.3716C112.548 16.5067 113.022 15.7594 113.627 15.1298C114.225 14.5065 114.918 14.0295 115.707 13.6988C116.502 13.3681 117.332 13.2028 118.197 13.2028C119.094 13.2028 119.94 13.3713 120.735 13.7084C121.53 14.0454 122.217 14.5192 122.796 15.1298ZM121.374 24.7267C121.731 24.1479 121.988 23.4929 122.147 22.7615C122.313 22.0301 122.395 21.2129 122.395 20.3098C122.395 19.3813 122.303 18.5291 122.119 17.7532C121.941 16.9773 121.677 16.3159 121.327 15.7689C120.977 15.2283 120.538 14.8086 120.01 14.5097C119.482 14.2044 118.878 14.0518 118.197 14.0518C117.434 14.0518 116.785 14.2267 116.251 14.5765C115.716 14.9263 115.28 15.3937 114.943 15.9788C114.625 16.5385 114.387 17.1935 114.228 17.944C114.075 18.6944 113.999 19.483 113.999 20.3098C113.999 21.2256 114.081 22.0524 114.247 22.7901C114.412 23.5278 114.673 24.1829 115.029 24.7553C115.373 25.3149 115.805 25.7538 116.327 26.0717C116.848 26.3834 117.472 26.5392 118.197 26.5392C118.878 26.5392 119.492 26.3802 120.039 26.0622C120.586 25.7442 121.031 25.299 121.374 24.7267Z" fill="white"/>
<path d="M139.59 27.0639H135.945C135.137 25.7983 134.405 24.7044 133.75 23.7822C133.101 22.8601 132.395 21.9093 131.632 20.9299H130.248V25.2227C130.248 25.4453 130.283 25.6425 130.353 25.8142C130.423 25.9795 130.573 26.1067 130.802 26.1958C130.916 26.2403 131.117 26.2816 131.403 26.3198C131.689 26.3579 131.931 26.3802 132.128 26.3866V27.0639H126.403V26.3866C126.556 26.3738 126.775 26.3516 127.061 26.3198C127.354 26.288 127.558 26.2466 127.672 26.1958C127.863 26.1131 128 25.9922 128.082 25.8333C128.171 25.6743 128.216 25.4707 128.216 25.2227V15.435C128.216 15.2124 128.184 15.0153 128.12 14.8436C128.057 14.6719 127.907 14.5415 127.672 14.4525C127.513 14.3952 127.306 14.3443 127.052 14.2998C126.797 14.2489 126.581 14.2171 126.403 14.2044V13.5271H132.653C133.225 13.5271 133.763 13.5875 134.265 13.7084C134.768 13.8228 135.223 14.0104 135.63 14.2712C136.024 14.5256 136.339 14.8595 136.574 15.2729C136.81 15.6799 136.927 16.1728 136.927 16.7515C136.927 17.273 136.848 17.7341 136.689 18.1348C136.53 18.5354 136.295 18.882 135.983 19.1746C135.697 19.448 135.353 19.6865 134.952 19.8901C134.552 20.0872 134.11 20.2557 133.626 20.3957C134.294 21.2797 134.847 22.0238 135.286 22.6279C135.732 23.2321 136.275 23.9667 136.918 24.8316C137.198 25.2132 137.449 25.4962 137.672 25.6806C137.901 25.8587 138.127 26.005 138.349 26.1194C138.515 26.2021 138.721 26.2657 138.969 26.3102C139.218 26.3548 139.424 26.3802 139.59 26.3866V27.0639ZM134.571 16.9709C134.571 16.1505 134.335 15.5018 133.865 15.0248C133.394 14.5415 132.729 14.2998 131.87 14.2998H130.248V20.1095H131.498C132.376 20.1095 133.108 19.8296 133.693 19.27C134.278 18.704 134.571 17.9376 134.571 16.9709Z" fill="white"/>
<path d="M151.126 17.1999H150.467C150.41 16.9709 150.305 16.7006 150.152 16.389C150.006 16.071 149.841 15.7721 149.656 15.4923C149.465 15.1997 149.255 14.9453 149.026 14.7291C148.804 14.5065 148.588 14.3793 148.378 14.3475C148.18 14.3221 147.932 14.303 147.633 14.2903C147.334 14.2776 147.058 14.2712 146.803 14.2712H146.25V25.0987C146.25 25.3086 146.294 25.5025 146.383 25.6806C146.472 25.8523 146.628 25.9859 146.851 26.0813C146.965 26.1258 147.204 26.1862 147.567 26.2625C147.935 26.3389 148.222 26.3802 148.425 26.3866V27.0639H142.032V26.3866C142.21 26.3738 142.481 26.3484 142.843 26.3102C143.212 26.2721 143.467 26.2244 143.607 26.1671C143.817 26.0845 143.969 25.9668 144.065 25.8142C144.166 25.6552 144.217 25.4453 144.217 25.1846V14.2712H143.664C143.467 14.2712 143.222 14.2776 142.929 14.2903C142.637 14.2966 142.357 14.3157 142.09 14.3475C141.88 14.373 141.66 14.5002 141.431 14.7291C141.209 14.9517 141.002 15.2061 140.811 15.4923C140.62 15.7785 140.452 16.0837 140.305 16.4081C140.159 16.7261 140.057 16.99 140 17.1999H139.332V13.5271H151.126V17.1999Z" fill="white"/>
<path d="M166.24 27.0639H160.62V26.3866C160.772 26.3738 160.992 26.3548 161.278 26.3293C161.571 26.3039 161.771 26.2657 161.879 26.2148C162.07 26.1385 162.21 26.024 162.299 25.8714C162.388 25.7124 162.433 25.5089 162.433 25.2609V20.4434H156.068V25.1559C156.068 25.3785 156.103 25.5661 156.173 25.7188C156.25 25.8714 156.396 26.005 156.612 26.1194C156.72 26.1767 156.911 26.2339 157.185 26.2912C157.465 26.3484 157.684 26.3802 157.843 26.3866V27.0639H152.223V26.3866C152.376 26.3738 152.595 26.3548 152.881 26.3293C153.174 26.3039 153.374 26.2657 153.482 26.2148C153.673 26.1385 153.813 26.024 153.902 25.8714C153.991 25.7124 154.036 25.5089 154.036 25.2609V15.4923C154.036 15.2888 153.994 15.1043 153.912 14.939C153.829 14.7673 153.686 14.6337 153.482 14.5383C153.311 14.4556 153.101 14.3825 152.853 14.3189C152.611 14.2553 152.401 14.2171 152.223 14.2044V13.5271H157.843V14.2044C157.665 14.2108 157.445 14.2394 157.185 14.2903C156.93 14.3412 156.739 14.3889 156.612 14.4334C156.396 14.5097 156.25 14.6369 156.173 14.815C156.103 14.993 156.068 15.187 156.068 15.3969V19.5943H162.433V15.4923C162.433 15.2888 162.391 15.1043 162.309 14.939C162.226 14.7673 162.083 14.6337 161.879 14.5383C161.707 14.4556 161.497 14.3825 161.249 14.3189C161.008 14.2553 160.798 14.2171 160.62 14.2044V13.5271H166.24V14.2044C166.062 14.2108 165.842 14.2394 165.581 14.2903C165.327 14.3412 165.136 14.3889 165.009 14.4334C164.793 14.5097 164.646 14.6369 164.57 14.815C164.5 14.993 164.465 15.187 164.465 15.3969V25.1559C164.465 25.3785 164.5 25.5661 164.57 25.7188C164.646 25.8714 164.793 26.005 165.009 26.1194C165.117 26.1767 165.308 26.2339 165.581 26.2912C165.861 26.3484 166.081 26.3802 166.24 26.3866V27.0639Z" fill="white"/>
<path d="M183.377 16.9137H182.661C182.527 16.4113 182.248 15.8739 181.821 15.3015C181.402 14.7291 180.998 14.4143 180.61 14.3571C180.412 14.3316 180.177 14.3125 179.903 14.2998C179.636 14.2871 179.331 14.2807 178.987 14.2807H176.717V19.7183H178.272C178.743 19.7183 179.108 19.6706 179.369 19.5752C179.63 19.4735 179.853 19.3209 180.037 19.1173C180.164 18.9774 180.279 18.7612 180.381 18.4686C180.489 18.1697 180.559 17.8517 180.59 17.5147H181.316V22.8283H180.59C180.571 22.5484 180.505 22.2304 180.39 21.8743C180.282 21.5182 180.164 21.2606 180.037 21.1016C179.846 20.8663 179.605 20.7073 179.312 20.6246C179.026 20.5356 178.679 20.4911 178.272 20.4911H176.717V25.1559C176.717 25.3658 176.758 25.5534 176.841 25.7188C176.923 25.8841 177.07 26.0177 177.28 26.1194C177.375 26.164 177.582 26.218 177.9 26.2816C178.218 26.3452 178.46 26.3802 178.625 26.3866V27.0639H172.757V26.3866C172.948 26.3738 173.202 26.3548 173.52 26.3293C173.838 26.2975 174.045 26.2594 174.14 26.2148C174.331 26.1322 174.468 26.0113 174.551 25.8523C174.64 25.687 174.684 25.4898 174.684 25.2609V15.4923C174.684 15.2824 174.649 15.098 174.579 14.939C174.509 14.7736 174.363 14.6401 174.14 14.5383C173.969 14.4556 173.736 14.3825 173.444 14.3189C173.157 14.2553 172.928 14.2171 172.757 14.2044V13.5271H183.377V16.9137Z" fill="white"/>
<path d="M195.457 23.0381L195.17 27.0639H184.588V26.3866C184.741 26.3738 184.961 26.3516 185.247 26.3198C185.539 26.288 185.743 26.2466 185.858 26.1958C186.048 26.1131 186.185 25.9922 186.268 25.8333C186.357 25.6743 186.401 25.4707 186.401 25.2227V15.5304C186.401 15.3142 186.363 15.1234 186.287 14.9581C186.217 14.7927 186.074 14.6591 185.858 14.5574C185.711 14.4811 185.505 14.4079 185.237 14.338C184.977 14.2617 184.76 14.2171 184.588 14.2044V13.5271H190.304V14.2044C190.126 14.2108 189.894 14.2426 189.607 14.2998C189.328 14.3571 189.124 14.4079 188.997 14.4525C188.78 14.5288 188.631 14.6591 188.548 14.8436C188.472 15.028 188.434 15.2252 188.434 15.435V24.5263C188.434 24.9461 188.453 25.2736 188.491 25.5089C188.536 25.7379 188.634 25.9159 188.787 26.0431C188.933 26.1576 189.149 26.2339 189.436 26.2721C189.728 26.3039 190.135 26.3198 190.657 26.3198C190.892 26.3198 191.137 26.3134 191.392 26.3007C191.646 26.288 191.888 26.2625 192.117 26.2244C192.34 26.1862 192.543 26.1353 192.728 26.0717C192.918 26.0018 193.058 25.9159 193.147 25.8142C193.408 25.5216 193.71 25.0796 194.054 24.4882C194.404 23.8903 194.645 23.407 194.779 23.0381H195.457Z" fill="white"/>
<path d="M207.317 15.1298C207.915 15.753 208.382 16.5067 208.72 17.3907C209.057 18.2683 209.225 19.2414 209.225 20.3098C209.225 21.3846 209.054 22.3608 208.71 23.2385C208.367 24.1161 207.889 24.8634 207.279 25.4803C206.687 26.0908 206 26.5614 205.218 26.8922C204.435 27.2229 203.602 27.3882 202.718 27.3882C201.776 27.3882 200.905 27.2133 200.103 26.8635C199.308 26.5074 198.624 26.0145 198.052 25.3849C197.479 24.768 197.028 24.0207 196.697 23.1431C196.373 22.2591 196.21 21.3146 196.21 20.3098C196.21 19.2096 196.382 18.2302 196.726 17.3716C197.069 16.5067 197.543 15.7594 198.147 15.1298C198.745 14.5065 199.439 14.0295 200.227 13.6988C201.023 13.3681 201.853 13.2028 202.718 13.2028C203.615 13.2028 204.461 13.3713 205.256 13.7084C206.051 14.0454 206.738 14.5192 207.317 15.1298ZM205.895 24.7267C206.251 24.1479 206.509 23.4929 206.668 22.7615C206.833 22.0301 206.916 21.2129 206.916 20.3098C206.916 19.3813 206.824 18.5291 206.639 17.7532C206.461 16.9773 206.197 16.3159 205.847 15.7689C205.498 15.2283 205.059 14.8086 204.531 14.5097C204.003 14.2044 203.398 14.0518 202.718 14.0518C201.954 14.0518 201.306 14.2267 200.771 14.5765C200.237 14.9263 199.801 15.3937 199.464 15.9788C199.146 16.5385 198.907 17.1935 198.748 17.944C198.596 18.6944 198.519 19.483 198.519 20.3098C198.519 21.2256 198.602 22.0524 198.768 22.7901C198.933 23.5278 199.194 24.1829 199.55 24.7553C199.893 25.3149 200.326 25.7538 200.848 26.0717C201.369 26.3834 201.993 26.5392 202.718 26.5392C203.398 26.5392 204.012 26.3802 204.559 26.0622C205.106 25.7442 205.552 25.299 205.895 24.7267Z" fill="white"/>
<path d="M224.11 27.0639H220.465C219.658 25.7983 218.926 24.7044 218.271 23.7822C217.622 22.8601 216.916 21.9093 216.153 20.9299H214.769V25.2227C214.769 25.4453 214.804 25.6425 214.874 25.8142C214.944 25.9795 215.093 26.1067 215.322 26.1958C215.437 26.2403 215.637 26.2816 215.924 26.3198C216.21 26.3579 216.452 26.3802 216.649 26.3866V27.0639H210.924V26.3866C211.076 26.3738 211.296 26.3516 211.582 26.3198C211.875 26.288 212.078 26.2466 212.193 26.1958C212.384 26.1131 212.52 25.9922 212.603 25.8333C212.692 25.6743 212.737 25.4707 212.737 25.2227V15.435C212.737 15.2124 212.705 15.0153 212.641 14.8436C212.578 14.6719 212.428 14.5415 212.193 14.4525C212.034 14.3952 211.827 14.3443 211.573 14.2998C211.318 14.2489 211.102 14.2171 210.924 14.2044V13.5271H217.174C217.746 13.5271 218.284 13.5875 218.786 13.7084C219.289 13.8228 219.743 14.0104 220.151 14.2712C220.545 14.5256 220.86 14.8595 221.095 15.2729C221.331 15.6799 221.448 16.1728 221.448 16.7515C221.448 17.273 221.369 17.7341 221.21 18.1348C221.051 18.5354 220.815 18.882 220.504 19.1746C220.217 19.448 219.874 19.6865 219.473 19.8901C219.072 20.0872 218.63 20.2557 218.147 20.3957C218.815 21.2797 219.368 22.0238 219.807 22.6279C220.252 23.2321 220.796 23.9667 221.439 24.8316C221.719 25.2132 221.97 25.4962 222.192 25.6806C222.421 25.8587 222.647 26.005 222.87 26.1194C223.035 26.2021 223.242 26.2657 223.49 26.3102C223.738 26.3548 223.945 26.3802 224.11 26.3866V27.0639ZM219.091 16.9709C219.091 16.1505 218.856 15.5018 218.385 15.0248C217.915 14.5415 217.25 14.2998 216.391 14.2998H214.769V20.1095H216.019C216.897 20.1095 217.628 19.8296 218.214 19.27C218.799 18.704 219.091 17.9376 219.091 16.9709Z" fill="white"/>
<path d="M230.561 27.0639H224.463V26.3866C224.635 26.3738 224.883 26.3548 225.208 26.3293C225.532 26.3039 225.761 26.2657 225.895 26.2148C226.105 26.1322 226.257 26.0209 226.353 25.881C226.448 25.7347 226.496 25.5343 226.496 25.28V15.4732C226.496 15.2506 226.461 15.0662 226.391 14.9199C226.321 14.7673 226.155 14.6401 225.895 14.5383C225.704 14.462 225.462 14.392 225.17 14.3284C224.883 14.2585 224.648 14.2171 224.463 14.2044V13.5271H230.561V14.2044C230.363 14.2108 230.128 14.2362 229.855 14.2807C229.581 14.3189 229.342 14.3698 229.139 14.4334C228.897 14.5097 228.735 14.6337 228.652 14.8054C228.57 14.9771 228.528 15.1679 228.528 15.3778V25.175C228.528 25.3849 228.573 25.5725 228.662 25.7379C228.757 25.8969 228.916 26.024 229.139 26.1194C229.272 26.1703 229.489 26.2276 229.788 26.2912C230.093 26.3484 230.351 26.3802 230.561 26.3866V27.0639Z" fill="white"/>
<path d="M245.226 20.3766C245.226 21.5277 245.01 22.5262 244.577 23.372C244.145 24.2179 243.582 24.9111 242.889 25.4517C242.189 25.9922 241.403 26.3961 240.532 26.6632C239.66 26.9303 238.76 27.0639 237.831 27.0639H232.221V26.3866C232.405 26.3866 232.644 26.3707 232.936 26.3389C233.235 26.3007 233.433 26.2594 233.528 26.2148C233.719 26.1322 233.856 26.0113 233.938 25.8523C234.027 25.687 234.072 25.4898 234.072 25.2609V15.4923C234.072 15.276 234.034 15.0821 233.957 14.9104C233.887 14.7386 233.744 14.6019 233.528 14.5002C233.331 14.4048 233.118 14.3348 232.889 14.2903C232.66 14.2458 232.463 14.2171 232.297 14.2044V13.5271H238.213C239.027 13.5271 239.829 13.6543 240.618 13.9087C241.406 14.1567 242.093 14.4938 242.679 14.9199C243.474 15.4859 244.097 16.2268 244.549 17.1426C245 18.0584 245.226 19.1364 245.226 20.3766ZM242.889 20.367C242.889 19.4576 242.768 18.6372 242.526 17.9058C242.284 17.1681 241.931 16.5257 241.467 15.9788C241.028 15.4573 240.487 15.0471 239.845 14.7482C239.209 14.4493 238.499 14.2998 237.717 14.2998C237.456 14.2998 237.16 14.3062 236.83 14.3189C236.505 14.3253 236.263 14.3316 236.104 14.338V24.7457C236.104 25.3245 236.273 25.7251 236.61 25.9477C236.947 26.1703 237.466 26.2816 238.165 26.2816C238.973 26.2816 239.679 26.1385 240.284 25.8523C240.888 25.5661 241.378 25.1687 241.753 24.6599C242.147 24.1257 242.434 23.5088 242.612 22.8092C242.796 22.1033 242.889 21.2892 242.889 20.367Z" fill="white"/>
<path d="M259.52 27.0639H253.881V26.3866C254.377 26.3548 254.787 26.2912 255.111 26.1958C255.442 26.1004 255.608 25.9827 255.608 25.8428C255.608 25.7856 255.601 25.7156 255.589 25.6329C255.576 25.5502 255.557 25.4771 255.531 25.4135L254.405 22.3799H249.663C249.485 22.8251 249.339 23.213 249.224 23.5437C249.116 23.8744 249.018 24.1797 248.928 24.4595C248.846 24.733 248.788 24.9556 248.757 25.1273C248.725 25.299 248.709 25.4389 248.709 25.5471C248.709 25.8015 248.909 25.9986 249.31 26.1385C249.711 26.2784 250.163 26.3611 250.665 26.3866V27.0639H245.57V26.3866C245.735 26.3738 245.942 26.3389 246.19 26.2816C246.438 26.218 246.642 26.1353 246.801 26.0336C247.055 25.8619 247.252 25.6838 247.392 25.4994C247.532 25.3086 247.669 25.0478 247.803 24.7171C248.483 23.0191 249.234 21.1111 250.054 18.9933C250.875 16.8755 251.606 14.9899 252.249 13.3363H253.012L257.526 25.0128C257.621 25.2609 257.729 25.4612 257.85 25.6138C257.971 25.7665 258.139 25.9159 258.356 26.0622C258.502 26.1512 258.693 26.2276 258.928 26.2912C259.164 26.3484 259.361 26.3802 259.52 26.3866V27.0639ZM254.062 21.5309L252.01 16.2841L249.997 21.5309H254.062Z" fill="white"/>
<path fill-rule="evenodd" clip-rule="evenodd" d="M259.392 58.9592H96.1652V57.9468H259.392V58.9592Z" fill="white"/>
<path fill-rule="evenodd" clip-rule="evenodd" d="M259.392 33.4896H96.1652V32.4772H259.392V33.4896Z" fill="white"/>
</svg>
