<svg width="499" height="179" viewBox="0 0 499 179" fill="none" xmlns="http://www.w3.org/2000/svg">
<path d="M234.8 79.1C232.4 78.3 230.2 77.9 228.3 77.9C226.2 77.9 224.6 78.3 223.4 79.1C222.2 79.9 221.6 81 221.6 82.3C221.6 83.6 222 84.6 222.9 85.5C223.7 86.3 224.8 87 226.1 87.6C227.4 88.1 229.1 88.7 231.3 89.4C234.4 90.3 236.9 91.2 238.9 92.1C240.9 93 242.5 94.4 243.9 96.1C245.3 97.9 246 100.2 246 103.1C246 105.9 245.3 108.3 243.8 110.3C242.3 112.4 240.2 113.9 237.6 115C235 116.1 232 116.6 228.6 116.6C225 116.6 221.6 115.9 218.2 114.6C214.8 113.3 211.9 111.5 209.4 109.3L213 101.9C215.3 104 217.9 105.7 220.7 106.9C223.6 108.1 226.2 108.7 228.7 108.7C231.1 108.7 233 108.2 234.4 107.3C235.8 106.4 236.5 105.1 236.5 103.5C236.5 102.2 236.1 101.1 235.2 100.3C234.4 99.5 233.3 98.8 232 98.3C230.7 97.8 228.9 97.2 226.7 96.5C223.6 95.6 221.1 94.7 219.2 93.8C217.3 92.9 215.6 91.6 214.2 89.9C212.8 88.1 212.1 85.8 212.1 83C212.1 80.4 212.8 78.1 214.2 76.1C215.6 74.1 217.6 72.6 220.2 71.5C222.8 70.4 225.8 69.9 229.1 69.9C232 69.9 235 70.3 237.8 71.2C240.7 72.1 243.2 73.2 245.5 74.7L242 82.3C239.6 81 237.2 79.9 234.8 79.1Z" fill="white"/>
<path d="M287.8 74.8C290.9 77.5 292.5 81.4 292.5 86.4C292.5 91.6 290.9 95.6 287.8 98.5C284.7 101.4 280.2 102.8 274.5 102.8H264.6V116.2H255.9V70.7H274.6C280.2 70.7 284.6 72.1 287.8 74.8ZM281.6 93C283.4 91.6 284.2 89.4 284.2 86.6C284.2 83.8 283.3 81.7 281.6 80.4C279.8 79 277.3 78.3 274 78.3H264.5V95.1H274C277.3 95.1 279.8 94.4 281.6 93Z" fill="white"/>
<path d="M301.3 70.7H334.6V78.3H310V89.5H332.1V97.1H310V108.5H335.4V116.1H301.3V70.7V70.7Z" fill="white"/>
<path d="M373.2 79.5C371 78.5 368.8 77.9 366.5 77.9C363.7 77.9 361.1 78.6 358.8 79.9C356.5 81.2 354.6 83.1 353.3 85.5C352 87.9 351.3 90.5 351.3 93.3C351.3 96.1 352 98.7 353.3 101.1C354.6 103.5 356.5 105.3 358.8 106.7C361.1 108.1 363.7 108.7 366.5 108.7C368.7 108.7 370.8 108.2 373 107.3C375.2 106.3 377.1 105 378.8 103.3L384 109C381.6 111.4 378.8 113.3 375.7 114.8C372.5 116.2 369.3 116.9 366.1 116.9C361.7 116.9 357.7 115.9 354.1 113.8C350.5 111.7 347.6 108.9 345.5 105.3C343.4 101.7 342.4 97.8 342.4 93.4C342.4 89.1 343.5 85.1 345.6 81.6C347.7 78 350.6 75.3 354.3 73.2C358 71.2 362 70.1 366.5 70.1C369.7 70.1 372.9 70.7 376.1 72C379.2 73.3 381.9 75.1 384.1 77.4L379 83.8C377.2 82 375.3 80.5 373.2 79.5Z" fill="white"/>
<path d="M392.7 70.7H401.4V116.2H392.7V70.7Z" fill="white"/>
<path d="M447.9 116.2L443.9 106.6H421.7L417.7 116.2H408.7L428.7 70.7H437.7L457.4 116.2H447.9ZM424.8 99.1H440.8L432.9 80L424.8 99.1Z" fill="white"/>
<path d="M464.4 70.7H473.1V108.3H492.7V116.2H464.4V70.7Z" fill="white"/>
<path d="M221.9 42.4H225.7V60H222L213.5 48.7V60H209.7V42.4H213.3L221.8 53.7L221.9 42.4Z" fill="white"/>
<path d="M240.1 42.4H253.5V45.7H244.1V49.5H252.5V52.8H244.1V56.7H253.8V60H240.2L240.1 42.4Z" fill="white"/>
<path d="M288.9 42.4H293L287.1 60H283L279.3 47.3L275.6 60H271.5L265.6 42.5H269.9L273.7 55.9L277.5 42.5H281.4L285.2 55.9L288.9 42.4Z" fill="white"/>
<path d="M334.8 44C336 45.1 336.6 46.6 336.6 48.5C336.6 50.5 336 52.1 334.8 53.3C333.6 54.5 331.8 55 329.6 55H326.1V60H322.1V42.4H329.5C331.8 42.4 333.5 42.9 334.8 44ZM331.9 50.9C332.5 50.4 332.8 49.6 332.8 48.7C332.8 47.7 332.5 47 331.9 46.5C331.3 46 330.4 45.8 329.3 45.8H326V51.7H329.3C330.5 51.6 331.3 51.4 331.9 50.9Z" fill="white"/>
<path d="M361.5 60L360.1 56.6H352L350.6 60H346.5L354.1 42.5H358.2L365.7 60H361.5ZM353.3 53.4H358.8L356 46.6L353.3 53.4Z" fill="white"/>
<path d="M374.6 42.4H389.3V45.8H383.9V60H379.9V45.8H374.6V42.4Z" fill="white"/>
<path d="M402.1 42.4H406.1V60H402.1V42.4Z" fill="white"/>
<path d="M420.6 42.4H434V45.7H424.6V49.5H433V52.8H424.6V56.7H434.3V60H420.7V42.4H420.6Z" fill="white"/>
<path d="M460.1 42.4H463.9V60H460.3L451.8 48.7V60H448V42.4H451.6L460.1 53.7V42.4Z" fill="white"/>
<path d="M476.7 42.4H491.4V45.8H486V60H482V45.8H476.7V42.4Z" fill="white"/>
<path d="M214.7 133.3C214.2 133.1 213.8 133 213.3 133C212.8 133 212.3 133.1 211.8 133.4C211.3 133.7 211 134 210.7 134.5C210.4 135 210.3 135.5 210.3 136C210.3 136.5 210.4 137.1 210.7 137.6C211 138.1 211.3 138.4 211.8 138.7C212.3 139 212.8 139.1 213.3 139.1C213.7 139.1 214.2 139 214.6 138.8C215.1 138.6 215.5 138.3 215.8 138L217.1 139.4C216.6 139.9 216 140.4 215.3 140.7C214.6 141 213.9 141.2 213.2 141.2C212.2 141.2 211.4 141 210.6 140.5C209.8 140.1 209.2 139.5 208.8 138.7C208.4 137.9 208.1 137.1 208.1 136.1C208.1 135.2 208.3 134.3 208.8 133.6C209.3 132.8 209.9 132.2 210.7 131.8C211.5 131.4 212.4 131.1 213.3 131.1C214 131.1 214.7 131.2 215.4 131.5C216.1 131.8 216.7 132.2 217.2 132.7L215.9 134.3C215.6 133.8 215.2 133.5 214.7 133.3Z" fill="white"/>
<path d="M226.3 131.7C227.1 132.1 227.7 132.7 228.2 133.5C228.7 134.3 228.9 135.1 228.9 136.1C228.9 137 228.7 137.9 228.2 138.7C227.7 139.5 227.1 140.1 226.3 140.5C225.5 140.9 224.6 141.2 223.6 141.2C222.6 141.2 221.7 141 220.9 140.5C220.1 140.1 219.5 139.5 219 138.7C218.5 137.9 218.3 137.1 218.3 136.1C218.3 135.2 218.5 134.3 219 133.5C219.5 132.7 220.1 132.1 220.9 131.7C221.7 131.3 222.6 131 223.6 131C224.6 131 225.5 131.2 226.3 131.7ZM222.2 133.4C221.7 133.7 221.4 134 221.1 134.5C220.8 135 220.7 135.5 220.7 136.1C220.7 136.7 220.8 137.2 221.1 137.7C221.4 138.2 221.7 138.5 222.2 138.8C222.7 139.1 223.2 139.2 223.7 139.2C224.2 139.2 224.7 139.1 225.2 138.8C225.7 138.5 226 138.2 226.3 137.7C226.6 137.2 226.7 136.7 226.7 136.1C226.7 135.5 226.6 135 226.3 134.5C226 134 225.7 133.7 225.2 133.4C224.7 133.1 224.3 133 223.7 133C223.1 133 222.6 133.1 222.2 133.4Z" fill="white"/>
<path d="M237.8 131.2H239.9V140.9H237.9L233.2 134.6V140.9H231.1V131.2H233.1L237.8 137.5V131.2Z" fill="white"/>
<path d="M247.7 133.2C247.1 133 246.7 132.9 246.3 132.9C245.9 132.9 245.6 133 245.4 133.1C245.2 133.2 245.1 133.4 245.1 133.7C245.1 134 245.3 134.3 245.6 134.5C245.9 134.7 246.4 134.9 247.1 135.1C247.8 135.3 248.3 135.5 248.8 135.7C249.3 135.9 249.6 136.2 249.9 136.6C250.2 137 250.4 137.5 250.4 138.1C250.4 138.7 250.2 139.3 249.9 139.7C249.6 140.1 249.1 140.5 248.5 140.7C247.9 140.9 247.3 141 246.5 141C245.7 141 244.9 140.9 244.2 140.6C243.4 140.3 242.8 139.9 242.2 139.5L243.1 137.7C243.6 138.1 244.2 138.5 244.8 138.8C245.4 139.1 246 139.2 246.6 139.2C247.1 139.2 247.4 139.1 247.7 138.9C248 138.7 248.1 138.5 248.1 138.2C248.1 137.9 248 137.7 247.8 137.6C247.6 137.4 247.4 137.3 247.1 137.2C246.8 137.1 246.5 137 246 136.9C245.3 136.7 244.8 136.5 244.4 136.3C244 136.1 243.6 135.8 243.3 135.5C243 135.1 242.8 134.6 242.8 134C242.8 133.4 243 132.9 243.3 132.5C243.6 132.1 244.1 131.7 244.6 131.5C245.2 131.3 245.8 131.1 246.6 131.1C247.3 131.1 247.9 131.2 248.6 131.4C249.2 131.6 249.8 131.9 250.3 132.2L249.5 134C248.8 133.6 248.2 133.3 247.7 133.2Z" fill="white"/>
<path d="M255.1 138.6C255.5 139 256 139.2 256.7 139.2C257.3 139.2 257.9 139 258.2 138.6C258.6 138.2 258.8 137.6 258.8 136.9V131.2H261V136.9C261 137.8 260.8 138.5 260.5 139.1C260.2 139.7 259.7 140.2 259 140.5C258.3 140.8 257.6 141 256.7 141C255.8 141 255 140.8 254.4 140.5C253.7 140.2 253.2 139.7 252.9 139.1C252.5 138.5 252.4 137.7 252.4 136.9V131.2H254.6V136.9C254.5 137.6 254.7 138.2 255.1 138.6Z" fill="white"/>
<path d="M263.7 131.2H265.9V139H270.1V140.9H263.7V131.2Z" fill="white"/>
<path d="M271.2 131.2H279.3V133H276.3V140.9H274.1V133H271.1V131.2H271.2Z" fill="white"/>
<path d="M287.5 140.9L286.7 139H282.2L281.4 140.9H279.1L283.3 131.2H285.6L289.8 140.9H287.5ZM283 137.3H286.1L284.6 133.5L283 137.3Z" fill="white"/>
<path d="M289.7 131.2H297.8V133H294.8V140.9H292.6V133H289.6V131.2H289.7Z" fill="white"/>
<path d="M299.8 131.2H302V140.9H299.8V131.2Z" fill="white"/>
<path d="M312.1 131.7C312.9 132.1 313.5 132.7 314 133.5C314.5 134.3 314.7 135.1 314.7 136.1C314.7 137 314.5 137.9 314 138.7C313.5 139.5 312.9 140.1 312.1 140.5C311.3 140.9 310.4 141.2 309.4 141.2C308.4 141.2 307.5 141 306.7 140.5C305.9 140.1 305.3 139.5 304.8 138.7C304.3 137.9 304.1 137.1 304.1 136.1C304.1 135.2 304.3 134.3 304.8 133.5C305.3 132.7 305.9 132.1 306.7 131.7C307.5 131.3 308.4 131 309.4 131C310.4 131 311.3 131.2 312.1 131.7ZM307.9 133.4C307.4 133.7 307.1 134 306.8 134.5C306.5 135 306.4 135.5 306.4 136.1C306.4 136.7 306.5 137.2 306.8 137.7C307.1 138.2 307.4 138.5 307.9 138.8C308.4 139.1 308.9 139.2 309.4 139.2C309.9 139.2 310.4 139.1 310.9 138.8C311.4 138.5 311.7 138.2 312 137.7C312.3 137.2 312.4 136.7 312.4 136.1C312.4 135.5 312.3 135 312 134.5C311.7 134 311.4 133.7 310.9 133.4C310.4 133.1 310 133 309.4 133C308.9 133 308.4 133.1 307.9 133.4Z" fill="white"/>
<path d="M323.6 131.2H325.7V140.9H323.7L319 134.6V140.9H316.9V131.2H318.9L323.6 137.5V131.2Z" fill="white"/>
<path d="M336.7 131.2H344.1V133H338.9V135.1H343.6V136.9H338.9V139.1H344.3V140.9H336.7V131.2Z" fill="white"/>
<path d="M346 131.2H348.6L350.6 134.2L352.6 131.2H355.2L352 135.9L355.5 141H352.9L350.6 137.8L348.3 141H345.7L349.2 136L346 131.2Z" fill="white"/>
<path d="M364.7 140.9L364 139H359.5L358.7 140.9H356.4L360.6 131.2H362.9L367.1 140.9H364.7ZM360.2 137.3H363.3L361.8 133.5L360.2 137.3Z" fill="white"/>
<path d="M368.9 131.2H371.4L374.4 137.2L377.4 131.2H379.8V140.9H377.8V134.3L375 139.9H373.6L370.8 134.3V140.9H368.8L368.9 131.2Z" fill="white"/>
<path d="M398 140.9L397.2 139H392.7L391.9 140.9H389.6L393.8 131.2H396.1L400.3 140.9H398ZM393.4 137.3H396.5L395 133.5L393.4 137.3Z" fill="white"/>
<path d="M408.9 131.8C409.7 132.2 410.3 132.8 410.7 133.5C411.1 134.2 411.3 135.1 411.3 136C411.3 136.9 411.1 137.8 410.6 138.5C410.2 139.2 409.5 139.8 408.8 140.2C408 140.6 407.1 140.8 406.1 140.8H402V131.1H406.1C407.2 131.2 408.1 131.4 408.9 131.8ZM407.8 138.7C408.2 138.4 408.6 138.1 408.8 137.6C409 137.1 409.2 136.6 409.2 136C409.2 135.4 409.1 134.9 408.8 134.4C408.5 133.9 408.2 133.6 407.8 133.3C407.4 133 406.9 132.9 406.3 132.9H404.4V138.9H406.4C406.8 139.1 407.3 139 407.8 138.7Z" fill="white"/>
<path d="M417.7 140.2C417.1 140.8 416.3 141 415.3 141C414 141 413 140.5 412.1 139.5L413.1 137.9C413.4 138.3 413.8 138.5 414.2 138.7C414.6 138.9 414.9 139 415.2 139C415.6 139 415.9 138.9 416.1 138.7C416.3 138.5 416.4 138.2 416.4 137.8V133H413V131.1H418.6V137.7C418.6 138.8 418.3 139.6 417.7 140.2Z" fill="white"/>
<path d="M423.9 138.6C424.3 139 424.8 139.2 425.5 139.2C426.1 139.2 426.7 139 427 138.6C427.4 138.2 427.6 137.6 427.6 136.9V131.2H429.8V136.9C429.8 137.8 429.6 138.5 429.3 139.1C429 139.7 428.5 140.2 427.8 140.5C427.1 140.8 426.4 141 425.5 141C424.6 141 423.8 140.8 423.2 140.5C422.5 140.2 422 139.7 421.7 139.1C421.3 138.5 421.2 137.7 421.2 136.9V131.2H423.4V136.9C423.3 137.6 423.5 138.2 423.9 138.6Z" fill="white"/>
<path d="M437.4 133.2C436.8 133 436.4 132.9 436 132.9C435.6 132.9 435.3 133 435.1 133.1C434.9 133.2 434.8 133.4 434.8 133.7C434.8 134 435 134.3 435.3 134.5C435.6 134.7 436.1 134.9 436.8 135.1C437.5 135.3 438 135.5 438.5 135.7C439 135.9 439.3 136.2 439.6 136.6C439.9 137 440.1 137.5 440.1 138.1C440.1 138.7 439.9 139.3 439.6 139.7C439.3 140.2 438.8 140.5 438.2 140.7C437.6 140.9 437 141 436.2 141C435.4 141 434.6 140.9 433.9 140.6C433.1 140.3 432.5 139.9 431.9 139.5L432.8 137.7C433.3 138.1 433.9 138.5 434.5 138.8C435.1 139.1 435.7 139.2 436.3 139.2C436.8 139.2 437.1 139.1 437.4 138.9C437.7 138.7 437.8 138.5 437.8 138.2C437.8 137.9 437.7 137.7 437.5 137.6C437.3 137.4 437.1 137.3 436.8 137.2C436.5 137.1 436.2 137 435.7 136.9C435 136.7 434.5 136.5 434.1 136.3C433.7 136.1 433.3 135.8 433 135.5C432.7 135.2 432.5 134.6 432.5 134C432.5 133.4 432.7 132.9 433 132.5C433.3 132.1 433.8 131.7 434.3 131.5C434.9 131.3 435.5 131.1 436.3 131.1C437 131.1 437.6 131.2 438.3 131.4C438.9 131.6 439.5 131.9 440 132.2L439.2 134C438.5 133.6 437.9 133.3 437.4 133.2Z" fill="white"/>
<path d="M441.2 131.2H449.3V133H446.3V140.9H444.1V133H441.1V131.2H441.2Z" fill="white"/>
<path d="M451.3 131.2H453.8L456.8 137.2L459.8 131.2H462.2V140.9H460.2V134.3L457.4 139.9H456L453.2 134.3V140.9H451.2L451.3 131.2Z" fill="white"/>
<path d="M465.2 131.2H472.6V133H467.4V135.1H472.1V136.9H467.4V139.1H472.8V140.9H465.2V131.2Z" fill="white"/>
<path d="M482 131.2H484.1V140.9H482.1L477.4 134.6V140.9H475.3V131.2H477.3L482 137.5V131.2Z" fill="white"/>
<path d="M486 131.2H494.1V133H491.1V140.9H489V133H486V131.2Z" fill="white"/>
<path d="M28 63.1C28.9 63.6 30.4 64.1 32.4 64.6C34.7 65.2 36.5 65.9 38 66.6C39.5 67.3 40.7 68.3 41.8 69.6C42.9 70.9 43.4 72.7 43.4 74.9C43.4 77.7 42.5 80 40.6 81.7C38.7 83.4 36.2 84.5 33.2 84.9V91.9H26.4V84.8C24.2 84.5 22.1 83.9 20.1 83C18.1 82.2 16.3 81.1 14.7 79.9L18.3 72.6C19.9 74 21.9 75.2 24.3 76.2C26.6 77.2 28.7 77.6 30.3 77.6C31.3 77.6 32.2 77.4 32.7 77C33.3 76.6 33.6 76 33.6 75.3C33.6 74.4 33.1 73.7 32.2 73.3C31.2 72.8 29.8 72.3 27.8 71.8C25.6 71.2 23.7 70.6 22.2 70C20.7 69.4 19.5 68.4 18.4 67.1C17.3 65.8 16.8 64.1 16.8 61.9C16.8 59.3 17.7 57.1 19.4 55.4C21.1 53.7 23.5 52.5 26.5 52V45.2H33.3V51.8C35.2 52 37.1 52.5 38.9 53.1C40.7 53.7 42.3 54.5 43.7 55.4L40 62.8C38.3 61.8 36.4 60.9 34.3 60.2C32.2 59.5 30.6 59.1 29.2 59.1C28.4 59.1 27.7 59.3 27.2 59.6C26.7 59.9 26.5 60.4 26.5 61C26.6 62 27.1 62.6 28 63.1Z" fill="white"/>
<path d="M53.0762 114.401L77.2021 111.363C77.8376 114.739 78.9098 117.122 80.4189 118.512C81.9281 119.902 83.7747 120.597 85.959 120.597C89.8509 120.597 92.889 118.631 95.0732 114.699C96.6618 111.8 97.8532 105.664 98.6475 96.292C95.7484 99.2705 92.7699 101.455 89.7119 102.845C86.654 104.235 83.1195 104.93 79.1084 104.93C71.2848 104.93 64.6725 102.15 59.2715 96.5898C53.9102 91.0299 51.2295 84.0007 51.2295 75.502C51.2295 69.7038 52.5996 64.4219 55.3398 59.6562C58.0801 54.8906 61.8529 51.2965 66.6582 48.874C71.4635 46.4118 77.5 45.1807 84.7676 45.1807C93.5046 45.1807 100.514 46.6898 105.796 49.708C111.078 52.6865 115.287 57.4521 118.425 64.0049C121.602 70.5179 123.19 79.1357 123.19 89.8584C123.19 105.625 119.874 117.181 113.242 124.528C106.61 131.836 97.4163 135.489 85.6611 135.489C78.7113 135.489 73.2308 134.695 69.2197 133.106C65.2087 131.478 61.8727 129.115 59.2119 126.018C56.5511 122.92 54.5059 119.048 53.0762 114.401ZM97.7539 75.4424C97.7539 70.7165 96.5625 67.0231 94.1797 64.3623C91.7969 61.6618 88.8978 60.3115 85.4824 60.3115C82.2656 60.3115 79.585 61.5228 77.4404 63.9453C75.3356 66.3678 74.2832 70.0016 74.2832 74.8467C74.2832 79.7314 75.3753 83.4645 77.5596 86.0459C79.7835 88.6273 82.5436 89.918 85.8398 89.918C89.2552 89.918 92.0947 88.667 94.3584 86.165C96.6221 83.6631 97.7539 80.0889 97.7539 75.4424Z" fill="white"/>
<path d="M126.667 89.9775C126.667 73.3773 129.645 61.7611 135.603 55.1289C141.599 48.4967 150.714 45.1807 162.945 45.1807C168.823 45.1807 173.648 45.9154 177.421 47.3848C181.194 48.8145 184.271 50.7008 186.654 53.0439C189.037 55.3473 190.904 57.7897 192.254 60.3711C193.644 62.9128 194.756 65.8913 195.59 69.3066C197.218 75.8197 198.032 82.6107 198.032 89.6797C198.032 105.525 195.352 117.122 189.99 124.469C184.629 131.816 175.395 135.489 162.29 135.489C154.943 135.489 149.006 134.318 144.478 131.975C139.951 129.632 136.238 126.196 133.339 121.669C131.234 118.452 129.586 114.064 128.394 108.504C127.243 102.904 126.667 96.7288 126.667 89.9775ZM150.733 90.0371C150.733 101.157 151.706 108.762 153.652 112.853C155.638 116.903 158.497 118.929 162.23 118.929C164.693 118.929 166.817 118.075 168.604 116.367C170.431 114.62 171.762 111.88 172.596 108.146C173.469 104.413 173.906 98.5954 173.906 90.6924C173.906 79.096 172.913 71.3122 170.928 67.3408C168.982 63.3298 166.043 61.3242 162.111 61.3242C158.1 61.3242 155.201 63.3695 153.414 67.46C151.627 71.5107 150.733 79.0365 150.733 90.0371Z" fill="white"/>
</svg>
