<svg width="499" height="380" viewBox="0 0 499 380" fill="none" xmlns="http://www.w3.org/2000/svg">
<path d="M123.7 294.7C121 293.8 118.6 293.4 116.6 293.4C114.3 293.4 112.5 293.8 111.2 294.7C109.9 295.6 109.2 296.8 109.2 298.3C109.2 299.7 109.7 300.8 110.6 301.8C111.5 302.8 112.7 303.5 114.1 304.1C115.5 304.7 117.4 305.4 119.9 306.1C123.3 307.1 126.1 308.1 128.2 309.1C130.4 310.1 132.2 311.6 133.7 313.5C135.2 315.5 136 318 136 321.2C136 324.3 135.2 326.9 133.5 329.2C131.9 331.5 129.6 333.2 126.7 334.4C123.8 335.6 120.5 336.2 116.8 336.2C112.9 336.2 109.1 335.5 105.3 334C101.6 332.5 98.3 330.6 95.6 328.2L99.6 320C102.1 322.3 105 324.2 108.1 325.5C111.2 326.8 114.2 327.5 116.9 327.5C119.6 327.5 121.7 327 123.2 326C124.7 325 125.5 323.6 125.5 321.8C125.5 320.4 125 319.2 124.1 318.3C123.2 317.4 122 316.6 120.6 316C119.2 315.4 117.2 314.8 114.7 314.1C111.3 313.1 108.5 312.1 106.4 311.2C104.3 310.2 102.4 308.8 100.9 306.9C99.4 305 98.6 302.4 98.6 299.3C98.6 296.4 99.4 293.8 100.9 291.7C102.5 289.5 104.6 287.8 107.5 286.7C110.3 285.5 113.6 284.9 117.3 284.9C120.5 284.9 123.8 285.4 126.9 286.3C130.1 287.3 132.9 288.5 135.4 290.2L131.5 298.6C129.1 296.8 126.4 295.6 123.7 294.7Z" fill="white"/>
<path d="M182.1 290C185.6 293 187.3 297.3 187.3 302.7C187.3 308.4 185.6 312.9 182.1 316C178.6 319.2 173.8 320.8 167.5 320.8H156.5V335.5H146.9V285.4H167.4C173.7 285.5 178.6 287 182.1 290ZM175.3 310C177.2 308.4 178.2 306.1 178.2 303C178.2 299.9 177.2 297.7 175.3 296.1C173.4 294.6 170.6 293.8 167 293.8H156.5V312.3H167C170.5 312.4 173.3 311.6 175.3 310Z" fill="white"/>
<path d="M197 285.5H233.7V293.9H206.6V306.3H230.9V314.7H206.6V327.3H234.6V335.7H197V285.5Z" fill="white"/>
<path d="M276.1 295.1C273.7 294 271.2 293.4 268.8 293.4C265.7 293.4 262.9 294.1 260.3 295.6C257.7 297.1 255.7 299.1 254.2 301.7C252.7 304.3 252 307.2 252 310.3C252 313.4 252.7 316.3 254.2 318.9C255.7 321.5 257.7 323.6 260.3 325.1C262.9 326.6 265.7 327.4 268.8 327.4C271.2 327.4 273.6 326.9 276 325.8C278.4 324.8 280.5 323.3 282.4 321.4L288.1 327.7C285.5 330.4 282.4 332.5 278.9 334C275.4 335.6 271.9 336.3 268.3 336.3C263.5 336.3 259.1 335.2 255.1 332.9C251.1 330.6 247.9 327.5 245.7 323.6C243.4 319.7 242.3 315.3 242.3 310.5C242.3 305.7 243.5 301.4 245.8 297.5C248.1 293.6 251.3 290.5 255.4 288.3C259.4 286.1 263.9 284.9 268.8 284.9C272.4 284.9 275.9 285.6 279.3 287C282.7 288.4 285.7 290.4 288.1 292.9L282.5 299.9C280.6 297.9 278.5 296.3 276.1 295.1Z" fill="white"/>
<path d="M297.7 285.5H307.3V335.6H297.7V285.5Z" fill="white"/>
<path d="M358.5 335.6L354 325H329.5L325.1 335.6H315.2L337.2 285.5H347.1L368.8 335.6H358.5ZM333 316.8H350.6L341.9 295.8L333 316.8Z" fill="white"/>
<path d="M376.6 285.5H386.2V326.9H407.8V335.6H376.6V285.5V285.5Z" fill="white"/>
<path d="M109.5 254.3H113.6V273.6H109.6L100.2 261.2V273.6H96V254.3H100L109.4 266.8V254.3H109.5Z" fill="white"/>
<path d="M128.9 254.3H143.6V257.9H133.2V262.1H142.5V265.7H133.2V270H143.9V273.6H128.9V254.3V254.3Z" fill="white"/>
<path d="M182 254.3H186.5L180 273.6H175.5L171.4 259.7L167.3 273.6H162.8L156.3 254.3H161L165.2 269L169.4 254.3H173.7L177.9 269L182 254.3Z" fill="white"/>
<path d="M231.1 256.1C232.4 257.3 233.1 258.9 233.1 261.1C233.1 263.3 232.4 265.1 231.1 266.3C229.7 267.5 227.8 268.2 225.4 268.2H221.6V273.7H217.2V254.4H225.4C227.8 254.3 229.7 254.9 231.1 256.1ZM228 263.6C228.7 263 229 262.2 229 261.1C229 260 228.7 259.2 228 258.7C227.3 258.2 226.4 257.9 225.2 257.9H221.6V264.4H225.2C226.4 264.5 227.3 264.2 228 263.6Z" fill="white"/>
<path d="M259.8 273.7L258.3 269.9H249.4L247.9 273.7H243.4L251.8 254.4H256.3L264.6 273.7H259.8ZM250.8 266.4H256.9L253.9 258.9L250.8 266.4Z" fill="white"/>
<path d="M273.6 254.3H289.8V258H283.9V273.6H279.5V258H273.6V254.3V254.3Z" fill="white"/>
<path d="M303.1 254.3H307.5V273.6H303.1V254.3Z" fill="white"/>
<path d="M322.8 254.3H337.5V257.9H327.1V262.1H336.4V265.7H327.1V270H337.8V273.6H322.8V254.3Z" fill="white"/>
<path d="M365.7 254.3H369.8V273.6H365.8L356.4 261.2V273.6H352.2V254.3H356.2L365.6 266.8V254.3H365.7Z" fill="white"/>
<path d="M383.2 254.3H399.4V258H393.5V273.6H389.1V258H383.2V254.3V254.3Z" fill="white"/>
<path d="M101.6 347.8C101.1 347.5 100.6 347.4 100.1 347.4C99.5 347.4 98.9 347.5 98.4 347.8C97.9 348.1 97.5 348.5 97.2 349C96.9 349.5 96.8 350.1 96.8 350.7C96.8 351.3 96.9 351.9 97.2 352.4C97.5 352.9 97.9 353.3 98.4 353.6C98.9 353.9 99.5 354.1 100.1 354.1C100.6 354.1 101.1 354 101.6 353.8C102.1 353.6 102.5 353.3 102.9 352.9L104.3 354.4C103.7 355 103.1 355.5 102.3 355.8C101.5 356.1 100.8 356.3 100 356.3C98.9 356.3 98 356.1 97.1 355.6C96.2 355.1 95.6 354.4 95.1 353.6C94.6 352.8 94.4 351.8 94.4 350.8C94.4 349.8 94.7 348.8 95.2 348C95.7 347.2 96.4 346.5 97.3 346C98.2 345.5 99.1 345.3 100.2 345.3C101 345.3 101.7 345.5 102.5 345.8C103.3 346.1 103.9 346.6 104.4 347.1L103 348.8C102.6 348.4 102.1 348.1 101.6 347.8Z" fill="white"/>
<path d="M114.7 346C115.6 346.5 116.3 347.1 116.8 348C117.3 348.9 117.6 349.8 117.6 350.8C117.6 351.8 117.3 352.8 116.8 353.6C116.3 354.4 115.6 355.1 114.7 355.6C113.8 356.1 112.8 356.3 111.8 356.3C110.7 356.3 109.7 356.1 108.9 355.6C108 355.1 107.3 354.4 106.8 353.6C106.3 352.8 106 351.8 106 350.8C106 349.8 106.3 348.8 106.8 348C107.3 347.2 108 346.5 108.9 346C109.8 345.5 110.8 345.3 111.8 345.3C112.8 345.3 113.8 345.6 114.7 346ZM110.1 347.9C109.6 348.2 109.2 348.6 108.9 349.1C108.6 349.6 108.5 350.2 108.5 350.8C108.5 351.4 108.7 352 109 352.5C109.3 353 109.7 353.4 110.2 353.7C110.7 354 111.3 354.2 111.8 354.2C112.4 354.2 112.9 354 113.4 353.7C113.9 353.4 114.3 353 114.6 352.5C114.9 352 115 351.4 115 350.8C115 350.2 114.9 349.6 114.6 349.1C114.3 348.6 113.9 348.2 113.4 347.9C112.9 347.6 112.4 347.4 111.8 347.4C111.2 347.4 110.6 347.6 110.1 347.9Z" fill="white"/>
<path d="M127.7 345.5H130V356.2H127.8L122.6 349.3V356.2H120.3V345.5H122.5L127.7 352.4V345.5Z" fill="white"/>
<path d="M138.8 347.7C138.2 347.5 137.7 347.4 137.2 347.4C136.8 347.4 136.4 347.5 136.2 347.6C136 347.8 135.8 348 135.8 348.3C135.8 348.7 136 349 136.3 349.2C136.7 349.4 137.2 349.6 137.9 349.8C138.6 350 139.2 350.2 139.7 350.4C140.2 350.6 140.6 350.9 140.9 351.4C141.2 351.8 141.4 352.4 141.4 353.1C141.4 353.8 141.2 354.4 140.9 354.9C140.5 355.4 140 355.8 139.4 356C138.8 356.3 138 356.4 137.2 356.4C136.3 356.4 135.5 356.2 134.6 355.9C133.7 355.6 133 355.2 132.4 354.6L133.4 352.6C133.9 353.1 134.6 353.5 135.3 353.8C136 354.1 136.6 354.2 137.2 354.2C137.7 354.2 138.1 354.1 138.4 353.9C138.7 353.7 138.8 353.5 138.8 353.1C138.8 352.8 138.7 352.6 138.5 352.4C138.3 352.2 138.1 352.1 137.8 352C137.5 351.9 137.1 351.8 136.6 351.6C135.9 351.4 135.3 351.2 134.8 351C134.3 350.8 133.9 350.5 133.6 350.1C133.3 349.7 133.1 349.1 133.1 348.4C133.1 347.8 133.3 347.2 133.6 346.7C133.9 346.2 134.4 345.8 135.1 345.6C135.7 345.3 136.4 345.2 137.3 345.2C138 345.2 138.8 345.3 139.5 345.5C140.2 345.7 140.9 346 141.4 346.4L140.5 348.4C140 348.1 139.4 347.9 138.8 347.7Z" fill="white"/>
<path d="M147.3 353.6C147.7 354 148.3 354.3 149 354.3C149.7 354.3 150.3 354.1 150.7 353.6C151.1 353.1 151.3 352.6 151.3 351.8V345.5H153.7V351.8C153.7 352.7 153.5 353.6 153.1 354.2C152.7 354.9 152.2 355.4 151.5 355.8C150.8 356.2 149.9 356.4 149 356.4C148.1 356.4 147.2 356.2 146.5 355.8C145.8 355.4 145.2 354.9 144.8 354.2C144.4 353.5 144.2 352.7 144.2 351.8V345.5H146.6V351.8C146.7 352.6 146.9 353.2 147.3 353.6Z" fill="white"/>
<path d="M157.1 345.5H159.5V354.1H164.1V356.2H157.1V345.5Z" fill="white"/>
<path d="M165.7 345.5H174.7V347.6H171.4V356.3H169V347.6H165.7V345.5Z" fill="white"/>
<path d="M183.9 356.2L183.1 354.1H178.1L177.3 356.2H174.8L179.5 345.5H182L186.6 356.2H183.9ZM178.9 352.2H182.3L180.6 348L178.9 352.2Z" fill="white"/>
<path d="M186.6 345.5H195.6V347.6H192.3V356.3H189.9V347.6H186.6V345.5V345.5Z" fill="white"/>
<path d="M198 345.5H200.4V356.2H198V345.5Z" fill="white"/>
<path d="M211.9 346C212.8 346.5 213.5 347.1 214 348C214.5 348.9 214.8 349.8 214.8 350.8C214.8 351.8 214.5 352.8 214 353.6C213.5 354.4 212.8 355.1 211.9 355.6C211 356.1 210 356.3 209 356.3C207.9 356.3 206.9 356.1 206.1 355.6C205.2 355.1 204.5 354.4 204 353.6C203.5 352.8 203.2 351.8 203.2 350.8C203.2 349.8 203.5 348.8 204 348C204.5 347.2 205.2 346.5 206.1 346C207 345.5 208 345.3 209 345.3C210.1 345.3 211 345.6 211.9 346ZM207.4 347.9C206.9 348.2 206.5 348.6 206.2 349.1C205.9 349.6 205.8 350.2 205.8 350.8C205.8 351.4 206 352 206.3 352.5C206.6 353 207 353.4 207.5 353.7C208 354 208.6 354.2 209.1 354.2C209.7 354.2 210.2 354 210.7 353.7C211.2 353.4 211.6 353 211.9 352.5C212.2 352 212.3 351.4 212.3 350.8C212.3 350.2 212.2 349.6 211.9 349.1C211.6 348.6 211.2 348.2 210.7 347.9C210.2 347.6 209.7 347.4 209.1 347.4C208.4 347.4 207.9 347.6 207.4 347.9Z" fill="white"/>
<path d="M224.9 345.5H227.2V356.2H225L219.8 349.3V356.2H217.5V345.5H219.7L224.9 352.4V345.5V345.5Z" fill="white"/>
<path d="M235.5 345.5H243.7V347.5H237.9V349.8H243.1V351.8H237.9V354.2H243.8V356.2H235.5V345.5V345.5Z" fill="white"/>
<path d="M246.1 345.5H248.9L251.1 348.8L253.4 345.5H256.3L252.7 350.6L256.6 356.2H253.7L251.2 352.6L248.7 356.2H245.9L249.8 350.7L246.1 345.5Z" fill="white"/>
<path d="M267 356.2L266.2 354.1H261.2L260.4 356.2H257.9L262.6 345.5H265.1L269.7 356.2H267ZM262 352.2H265.4L263.7 348L262 352.2Z" fill="white"/>
<path d="M271.9 345.5H274.6L277.9 352.1L281.2 345.5H283.9V356.2H281.7V349L278.6 355.2H277L273.9 349V356.3H271.7V345.5H271.9Z" fill="white"/>
<path d="M300.1 356.2L299.3 354.1H294.3L293.5 356.2H291L295.7 345.5H298.2L302.8 356.2H300.1ZM295.1 352.2H298.5L296.8 348L295.1 352.2Z" fill="white"/>
<path d="M312.5 346.2C313.4 346.7 314 347.3 314.5 348.1C315 348.9 315.2 349.8 315.2 350.9C315.2 352 315 352.9 314.5 353.7C314 354.5 313.3 355.1 312.5 355.6C311.7 356.1 310.6 356.3 309.5 356.3H305V345.6H309.6C310.6 345.5 311.6 345.7 312.5 346.2ZM311.2 353.8C311.7 353.5 312 353.1 312.3 352.6C312.6 352.1 312.7 351.5 312.7 350.9C312.7 350.3 312.6 349.7 312.3 349.2C312 348.7 311.6 348.3 311.1 348C310.6 347.7 310.1 347.6 309.5 347.6H307.4V354.3H309.6C310.2 354.2 310.7 354 311.2 353.8Z" fill="white"/>
<path d="M322.4 355.4C321.8 356 320.9 356.3 319.8 356.3C318.4 356.3 317.2 355.7 316.3 354.6L317.4 352.9C317.8 353.3 318.2 353.6 318.6 353.8C319 354 319.4 354.1 319.7 354.1C320.1 354.1 320.4 354 320.7 353.7C321 353.4 321 353.1 321 352.7V347.5H317.3V345.4H323.4V352.7C323.4 353.9 323.1 354.8 322.4 355.4Z" fill="white"/>
<path d="M329.6 353.6C330 354 330.6 354.3 331.3 354.3C332 354.3 332.6 354.1 333 353.6C333.4 353.2 333.6 352.6 333.6 351.8V345.5H336V351.8C336 352.7 335.8 353.6 335.4 354.2C335 354.8 334.5 355.4 333.8 355.8C333.1 356.2 332.2 356.4 331.3 356.4C330.4 356.4 329.5 356.2 328.8 355.8C328.1 355.4 327.5 354.9 327.1 354.2C326.7 353.5 326.5 352.7 326.5 351.8V345.5H328.9V351.8C328.9 352.6 329.2 353.2 329.6 353.6Z" fill="white"/>
<path d="M344.7 347.7C344.1 347.5 343.6 347.4 343.1 347.4C342.7 347.4 342.3 347.5 342.1 347.6C341.9 347.7 341.7 348 341.7 348.3C341.7 348.7 341.9 349 342.2 349.2C342.6 349.4 343.1 349.6 343.8 349.8C344.5 350 345.1 350.2 345.6 350.4C346.1 350.6 346.5 350.9 346.8 351.4C347.1 351.8 347.3 352.4 347.3 353.1C347.3 353.8 347.1 354.4 346.8 354.9C346.4 355.4 345.9 355.8 345.3 356C344.7 356.3 343.9 356.4 343.1 356.4C342.2 356.4 341.4 356.2 340.5 355.9C339.7 355.6 338.9 355.2 338.3 354.6L339.3 352.6C339.8 353.1 340.5 353.5 341.2 353.8C341.9 354.1 342.5 354.2 343.1 354.2C343.6 354.2 344 354.1 344.3 353.9C344.6 353.7 344.7 353.5 344.7 353.1C344.7 352.8 344.6 352.6 344.4 352.4C344.2 352.2 344 352.1 343.7 352C343.4 351.9 343 351.8 342.5 351.6C341.8 351.4 341.2 351.2 340.7 351C340.2 350.8 339.8 350.5 339.5 350.1C339.2 349.7 339 349.1 339 348.4C339 347.8 339.2 347.2 339.5 346.7C339.8 346.2 340.3 345.8 341 345.6C341.7 345.4 342.3 345.2 343.2 345.2C343.9 345.2 344.7 345.3 345.4 345.5C346.1 345.7 346.7 346 347.3 346.4L346.4 348.4C345.9 348.1 345.3 347.9 344.7 347.7Z" fill="white"/>
<path d="M349.3 345.5H358.3V347.6H355V356.3H352.6V347.6H349.3V345.5Z" fill="white"/>
<path d="M360.7 345.5H363.4L366.7 352.1L370 345.5H372.7V356.2H370.5V349L367.4 355.2H365.8L362.7 349V356.3H360.5V345.5H360.7Z" fill="white"/>
<path d="M376.3 345.5H384.5V347.5H378.7V349.8H383.9V351.8H378.7V354.2H384.6V356.2H376.3V345.5V345.5Z" fill="white"/>
<path d="M395.1 345.5H397.4V356.2H395.2L390 349.3V356.2H387.7V345.5H389.9L395.1 352.4V345.5Z" fill="white"/>
<path d="M399.8 345.5H408.8V347.6H405.5V356.3H403.1V347.6H399.8V345.5Z" fill="white"/>
<path d="M115.484 181.07L161.007 175.317C162.206 181.709 164.23 186.221 167.077 188.853C169.925 191.485 173.409 192.801 177.531 192.801C184.874 192.801 190.607 189.078 194.728 181.634C197.726 176.144 199.974 164.526 201.472 146.78C196.002 152.42 190.382 156.555 184.612 159.187C178.842 161.819 172.173 163.135 164.604 163.135C149.842 163.135 137.365 157.871 127.174 147.344C117.058 136.816 112 123.506 112 107.414C112 96.4347 114.585 86.4334 119.756 77.4096C124.926 68.3859 132.045 61.5805 141.112 56.9934C150.179 52.3311 161.569 50 175.283 50C191.768 50 204.994 52.8575 214.961 58.5726C224.927 64.2124 232.87 73.2361 238.79 85.6438C244.785 97.9763 247.782 114.294 247.782 134.598C247.782 164.451 241.525 186.334 229.011 200.245C216.497 214.082 199.149 221 176.969 221C163.855 221 153.514 219.496 145.946 216.488C138.377 213.405 132.083 208.931 127.062 203.065C122.041 197.2 118.182 189.868 115.484 181.07ZM199.786 107.301C199.786 98.3522 197.538 91.3588 193.042 86.3206C188.546 81.2071 183.076 78.6504 176.631 78.6504C170.562 78.6504 165.504 80.9439 161.457 85.531C157.486 90.1181 155.5 96.9987 155.5 106.173C155.5 115.422 157.56 122.491 161.682 127.379C165.878 132.266 171.086 134.71 177.306 134.71C183.75 134.71 189.108 132.342 193.379 127.604C197.651 122.867 199.786 116.099 199.786 107.301Z" fill="white"/>
<path d="M254.342 134.823C254.342 103.391 259.962 81.3951 271.202 68.8371C282.517 56.279 299.715 50 322.795 50C333.885 50 342.99 51.3912 350.109 54.1735C357.228 56.8806 363.035 60.4525 367.531 64.8892C372.027 69.2507 375.549 73.8753 378.097 78.7632C380.72 83.5759 382.818 89.2157 384.392 95.6827C387.464 108.015 389 120.874 389 134.259C389 164.263 383.942 186.221 373.826 200.133C363.709 214.044 346.287 221 321.559 221C307.696 221 296.493 218.782 287.95 214.345C279.408 209.908 272.401 203.404 266.931 194.831C262.959 188.74 259.85 180.431 257.602 169.903C255.428 159.3 254.342 147.607 254.342 134.823ZM299.752 134.936C299.752 155.991 301.588 170.392 305.26 178.137C309.007 185.807 314.402 189.642 321.446 189.642C326.092 189.642 330.101 188.026 333.473 184.792C336.92 181.484 339.431 176.295 341.004 169.226C342.653 162.158 343.477 151.141 343.477 136.177C343.477 114.219 341.604 99.4802 337.857 91.9604C334.185 84.3654 328.64 80.5679 321.221 80.5679C313.653 80.5679 308.183 84.4406 304.811 92.186C301.439 99.8562 299.752 114.106 299.752 134.936Z" fill="white"/>
<path d="M55.4 75.8C57.3 76.8 60.3 77.9 64.5 79C69.2 80.3 73.1 81.7 76.2 83.1C79.3 84.5 81.9 86.6 84.2 89.4C86.5 92.2 87.6 95.9 87.6 100.5C87.6 106.4 85.6 111.2 81.7 114.7C77.8 118.3 72.6 120.5 66.3 121.4V136H51.9V121.2C47.4 120.5 43 119.3 38.8 117.5C34.6 115.7 30.9 113.6 27.7 111L35.1 95.9C38.5 98.8 42.6 101.3 47.5 103.3C52.4 105.3 56.6 106.3 60.1 106.3C62.3 106.3 64 105.9 65.2 105.1C66.4 104.3 67 103.1 67 101.6C67 99.8 66 98.3 64 97.4C62 96.4 59 95.4 54.8 94.3C50.2 93.1 46.3 91.8 43.2 90.5C40.1 89.2 37.5 87.2 35.3 84.4C33.1 81.7 32 78.1 32 73.6C32 68.2 33.8 63.7 37.3 60C40.8 56.4 45.7 54 52 52.9V38.9H66.2V52.7C70.2 53.2 74.1 54.1 77.8 55.4C81.5 56.7 84.8 58.3 87.7 60.1L80.3 75.4C76.7 73.3 72.8 71.5 68.6 70.1C64.3 68.6 60.8 67.9 58.1 67.9C56.4 67.9 55 68.2 54 68.9C53 69.6 52.5 70.5 52.5 71.8C52.5 73.4 53.5 74.8 55.4 75.8Z" fill="white"/>
</svg>
