<svg width="287" height="100" viewBox="0 0 287 100" fill="none" xmlns="http://www.w3.org/2000/svg">
<path d="M26.8 37.1C24.4 36.3 22.2 35.9 20.3 35.9C18.2 35.9 16.6 36.3 15.4 37.1C14.2 37.9 13.6 39 13.6 40.3C13.6 41.6 14 42.6 14.9 43.5C15.7 44.3 16.8 45 18.1 45.6C19.4 46.1 21.1 46.7 23.3 47.4C26.4 48.3 28.9 49.2 30.9 50.1C32.9 51 34.5 52.4 35.9 54.1C37.3 55.9 38 58.2 38 61.1C38 63.9 37.3 66.3 35.8 68.3C34.3 70.4 32.2 71.9 29.6 73C27 74.1 24 74.6 20.6 74.6C17 74.6 13.6 73.9 10.2 72.6C6.8 71.3 3.89999 69.5 1.39999 67.3L5 59.9C7.3 62 9.9 63.7 12.7 64.9C15.6 66.1 18.2 66.7 20.7 66.7C23.1 66.7 25 66.2 26.4 65.3C27.8 64.4 28.5 63.1 28.5 61.5C28.5 60.2 28.1 59.1 27.2 58.3C26.4 57.5 25.3 56.8 24 56.3C22.7 55.8 20.9 55.2 18.7 54.5C15.6 53.6 13.1 52.7 11.2 51.8C9.3 50.9 7.6 49.6 6.2 47.9C4.8 46.1 4.10001 43.8 4.10001 41C4.10001 38.4 4.8 36.1 6.2 34.1C7.6 32.1 9.6 30.6 12.2 29.5C14.8 28.4 17.8 27.9 21.1 27.9C24 27.9 27 28.3 29.8 29.2C32.7 30.1 35.2 31.2 37.5 32.7L34 40.3C31.6 39 29.2 37.9 26.8 37.1Z" fill="white"/>
<path d="M79.8 32.8C82.9 35.5 84.5 39.4 84.5 44.4C84.5 49.6 82.9 53.6 79.8 56.5C76.7 59.4 72.2 60.8 66.5 60.8H56.6V74.2H47.9V28.7H66.6C72.2 28.7 76.6 30.1 79.8 32.8ZM73.6 51C75.4 49.6 76.2 47.4 76.2 44.6C76.2 41.8 75.3 39.7 73.6 38.4C71.8 37 69.3 36.3 66 36.3H56.5V53.1H66C69.3 53.1 71.8 52.4 73.6 51Z" fill="white"/>
<path d="M93.3 28.7H126.6V36.3H102V47.5H124.1V55.1H102V66.5H127.4V74.1H93.3V28.7Z" fill="white"/>
<path d="M165.2 37.5C163 36.5 160.8 35.9 158.5 35.9C155.7 35.9 153.1 36.6 150.8 37.9C148.5 39.2 146.6 41.1 145.3 43.5C144 45.9 143.3 48.5 143.3 51.3C143.3 54.1 144 56.7 145.3 59.1C146.6 61.5 148.5 63.3 150.8 64.7C153.1 66.1 155.7 66.7 158.5 66.7C160.7 66.7 162.8 66.2 165 65.3C167.2 64.3 169.1 63 170.8 61.3L176 67C173.6 69.4 170.8 71.3 167.7 72.8C164.5 74.2 161.3 74.9 158.1 74.9C153.7 74.9 149.7 73.9 146.1 71.8C142.5 69.7 139.6 66.9 137.5 63.3C135.4 59.7 134.4 55.8 134.4 51.4C134.4 47.1 135.5 43.1 137.6 39.6C139.7 36 142.6 33.3 146.3 31.2C150 29.2 154 28.1 158.5 28.1C161.7 28.1 164.9 28.7 168.1 30C171.2 31.3 173.9 33.1 176.1 35.4L171 41.8C169.2 40 167.3 38.5 165.2 37.5Z" fill="white"/>
<path d="M184.7 28.7H193.4V74.2H184.7V28.7Z" fill="white"/>
<path d="M239.9 74.2L235.9 64.6H213.7L209.7 74.2H200.7L220.7 28.7H229.7L249.4 74.2H239.9ZM216.8 57.1H232.8L224.9 38L216.8 57.1Z" fill="white"/>
<path d="M256.4 28.7H265.1V66.3H284.7V74.2H256.4V28.7Z" fill="white"/>
<path d="M13.9 0.399994H17.7V18H14L5.5 6.69999V18H1.7V0.399994H5.3L13.8 11.7L13.9 0.399994Z" fill="white"/>
<path d="M32.1 0.399994H45.5V3.69999H36.1V7.49999H44.5V10.8H36.1V14.7H45.8V18H32.2L32.1 0.399994Z" fill="white"/>
<path d="M80.9 0.399994H85L79.1 18H75L71.3 5.29999L67.6 18H63.5L57.6 0.499992H61.9L65.7 13.9L69.5 0.499992H73.4L77.2 13.9L80.9 0.399994Z" fill="white"/>
<path d="M126.8 1.99999C128 3.09999 128.6 4.59999 128.6 6.49999C128.6 8.49999 128 10.1 126.8 11.3C125.6 12.5 123.8 13 121.6 13H118.1V18H114.1V0.399994H121.5C123.8 0.399994 125.5 0.899992 126.8 1.99999ZM123.9 8.89999C124.5 8.39999 124.8 7.59999 124.8 6.69999C124.8 5.69999 124.5 4.99999 123.9 4.49999C123.3 3.99999 122.4 3.79999 121.3 3.79999H118V9.69999H121.3C122.5 9.59999 123.3 9.39999 123.9 8.89999Z" fill="white"/>
<path d="M153.5 18L152.1 14.6H144L142.6 18H138.5L146.1 0.5H150.2L157.7 18H153.5ZM145.3 11.4H150.8L148 4.6L145.3 11.4Z" fill="white"/>
<path d="M166.6 0.399994H181.3V3.79999H175.9V18H171.9V3.79999H166.6V0.399994Z" fill="white"/>
<path d="M194.1 0.399994H198.1V18H194.1V0.399994Z" fill="white"/>
<path d="M212.6 0.399994H226V3.69999H216.6V7.49999H225V10.8H216.6V14.7H226.3V18H212.7V0.399994H212.6Z" fill="white"/>
<path d="M252.1 0.399994H255.9V18H252.3L243.8 6.69999V18H240V0.399994H243.6L252.1 11.7V0.399994Z" fill="white"/>
<path d="M268.7 0.399994H283.4V3.79999H278V18H274V3.79999H268.7V0.399994Z" fill="white"/>
<path d="M6.7 91.3C6.2 91.1 5.8 91 5.3 91C4.8 91 4.3 91.1 3.8 91.4C3.3 91.7 3 92 2.7 92.5C2.4 93 2.3 93.5 2.3 94C2.3 94.5 2.4 95.1 2.7 95.6C3 96.1 3.3 96.4 3.8 96.7C4.3 97 4.8 97.1 5.3 97.1C5.7 97.1 6.20001 97 6.60001 96.8C7.10001 96.6 7.5 96.3 7.8 96L9.10001 97.4C8.60001 97.9 8 98.4 7.3 98.7C6.6 99 5.9 99.2 5.2 99.2C4.2 99.2 3.40001 99 2.60001 98.5C1.80001 98.1 1.2 97.5 0.800003 96.7C0.400003 95.9 0.100006 95.1 0.100006 94.1C0.100006 93.2 0.300003 92.3 0.800003 91.6C1.3 90.8 1.9 90.2 2.7 89.8C3.5 89.4 4.4 89.1 5.3 89.1C6 89.1 6.69999 89.2 7.39999 89.5C8.09999 89.8 8.7 90.2 9.2 90.7L7.89999 92.3C7.59999 91.8 7.2 91.5 6.7 91.3Z" fill="white"/>
<path d="M18.3 89.7C19.1 90.1 19.7 90.7 20.2 91.5C20.7 92.3 20.9 93.1 20.9 94.1C20.9 95 20.7 95.9 20.2 96.7C19.7 97.5 19.1 98.1 18.3 98.5C17.5 98.9 16.6 99.2 15.6 99.2C14.6 99.2 13.7 99 12.9 98.5C12.1 98.1 11.5 97.5 11 96.7C10.5 95.9 10.3 95.1 10.3 94.1C10.3 93.2 10.5 92.3 11 91.5C11.5 90.7 12.1 90.1 12.9 89.7C13.7 89.3 14.6 89 15.6 89C16.6 89 17.5 89.2 18.3 89.7ZM14.2 91.4C13.7 91.7 13.4 92 13.1 92.5C12.8 93 12.7 93.5 12.7 94.1C12.7 94.7 12.8 95.2 13.1 95.7C13.4 96.2 13.7 96.5 14.2 96.8C14.7 97.1 15.2 97.2 15.7 97.2C16.2 97.2 16.7 97.1 17.2 96.8C17.7 96.5 18 96.2 18.3 95.7C18.6 95.2 18.7 94.7 18.7 94.1C18.7 93.5 18.6 93 18.3 92.5C18 92 17.7 91.7 17.2 91.4C16.7 91.1 16.3 91 15.7 91C15.1 91 14.6 91.1 14.2 91.4Z" fill="white"/>
<path d="M29.8 89.2H31.9V98.9H29.9L25.2 92.6V98.9H23.1V89.2H25.1L29.8 95.5V89.2Z" fill="white"/>
<path d="M39.7 91.2C39.1 91 38.7 90.9 38.3 90.9C37.9 90.9 37.6 91 37.4 91.1C37.2 91.2 37.1 91.4 37.1 91.7C37.1 92 37.3 92.3 37.6 92.5C37.9 92.7 38.4 92.9 39.1 93.1C39.8 93.3 40.3 93.5 40.8 93.7C41.3 93.9 41.6 94.2 41.9 94.6C42.2 95 42.4 95.5 42.4 96.1C42.4 96.7 42.2 97.3 41.9 97.7C41.6 98.1 41.1 98.5 40.5 98.7C39.9 98.9 39.3 99 38.5 99C37.7 99 36.9 98.9 36.2 98.6C35.4 98.3 34.8 97.9 34.2 97.5L35.1 95.7C35.6 96.1 36.2 96.5 36.8 96.8C37.4 97.1 38 97.2 38.6 97.2C39.1 97.2 39.4 97.1 39.7 96.9C40 96.7 40.1 96.5 40.1 96.2C40.1 95.9 40 95.7 39.8 95.6C39.6 95.4 39.4 95.3 39.1 95.2C38.8 95.1 38.5 95 38 94.9C37.3 94.7 36.8 94.5 36.4 94.3C36 94.1 35.6 93.8 35.3 93.5C35 93.1 34.8 92.6 34.8 92C34.8 91.4 35 90.9 35.3 90.5C35.6 90.1 36.1 89.7 36.6 89.5C37.2 89.3 37.8 89.1 38.6 89.1C39.3 89.1 39.9 89.2 40.6 89.4C41.2 89.6 41.8 89.9 42.3 90.2L41.5 92C40.8 91.6 40.2 91.3 39.7 91.2Z" fill="white"/>
<path d="M47.1 96.6C47.5 97 48 97.2 48.7 97.2C49.3 97.2 49.9 97 50.2 96.6C50.6 96.2 50.8 95.6 50.8 94.9V89.2H53V94.9C53 95.8 52.8 96.5 52.5 97.1C52.2 97.7 51.7 98.2 51 98.5C50.3 98.8 49.6 99 48.7 99C47.8 99 47 98.8 46.4 98.5C45.7 98.2 45.2 97.7 44.9 97.1C44.5 96.5 44.4 95.7 44.4 94.9V89.2H46.6V94.9C46.5 95.6 46.7 96.2 47.1 96.6Z" fill="white"/>
<path d="M55.7 89.2H57.9V97H62.1V98.9H55.7V89.2Z" fill="white"/>
<path d="M63.2 89.2H71.3V91H68.3V98.9H66.1V91H63.1V89.2H63.2Z" fill="white"/>
<path d="M79.5 98.9L78.7 97H74.2L73.4 98.9H71.1L75.3 89.2H77.6L81.8 98.9H79.5ZM75 95.3H78.1L76.6 91.5L75 95.3Z" fill="white"/>
<path d="M81.7 89.2H89.8V91H86.8V98.9H84.6V91H81.6V89.2H81.7Z" fill="white"/>
<path d="M91.8 89.2H94V98.9H91.8V89.2Z" fill="white"/>
<path d="M104.1 89.7C104.9 90.1 105.5 90.7 106 91.5C106.5 92.3 106.7 93.1 106.7 94.1C106.7 95 106.5 95.9 106 96.7C105.5 97.5 104.9 98.1 104.1 98.5C103.3 98.9 102.4 99.2 101.4 99.2C100.4 99.2 99.5 99 98.7 98.5C97.9 98.1 97.3 97.5 96.8 96.7C96.3 95.9 96.1 95.1 96.1 94.1C96.1 93.2 96.3 92.3 96.8 91.5C97.3 90.7 97.9 90.1 98.7 89.7C99.5 89.3 100.4 89 101.4 89C102.4 89 103.3 89.2 104.1 89.7ZM99.9 91.4C99.4 91.7 99.1 92 98.8 92.5C98.5 93 98.4 93.5 98.4 94.1C98.4 94.7 98.5 95.2 98.8 95.7C99.1 96.2 99.4 96.5 99.9 96.8C100.4 97.1 100.9 97.2 101.4 97.2C101.9 97.2 102.4 97.1 102.9 96.8C103.4 96.5 103.7 96.2 104 95.7C104.3 95.2 104.4 94.7 104.4 94.1C104.4 93.5 104.3 93 104 92.5C103.7 92 103.4 91.7 102.9 91.4C102.4 91.1 102 91 101.4 91C100.9 91 100.4 91.1 99.9 91.4Z" fill="white"/>
<path d="M115.6 89.2H117.7V98.9H115.7L111 92.6V98.9H108.9V89.2H110.9L115.6 95.5V89.2Z" fill="white"/>
<path d="M128.7 89.2H136.1V91H130.9V93.1H135.6V94.9H130.9V97.1H136.3V98.9H128.7V89.2Z" fill="white"/>
<path d="M138 89.2H140.6L142.6 92.2L144.6 89.2H147.2L144 93.9L147.5 99H144.9L142.6 95.8L140.3 99H137.7L141.2 94L138 89.2Z" fill="white"/>
<path d="M156.7 98.9L156 97H151.5L150.7 98.9H148.4L152.6 89.2H154.9L159.1 98.9H156.7ZM152.2 95.3H155.3L153.8 91.5L152.2 95.3Z" fill="white"/>
<path d="M160.9 89.2H163.4L166.4 95.2L169.4 89.2H171.8V98.9H169.8V92.3L167 97.9H165.6L162.8 92.3V98.9H160.8L160.9 89.2Z" fill="white"/>
<path d="M190 98.9L189.2 97H184.7L183.9 98.9H181.6L185.8 89.2H188.1L192.3 98.9H190ZM185.4 95.3H188.5L187 91.5L185.4 95.3Z" fill="white"/>
<path d="M200.9 89.8C201.7 90.2 202.3 90.8 202.7 91.5C203.1 92.2 203.3 93.1 203.3 94C203.3 94.9 203.1 95.8 202.6 96.5C202.2 97.2 201.5 97.8 200.8 98.2C200 98.6 199.1 98.8 198.1 98.8H194V89.1H198.1C199.2 89.2 200.1 89.4 200.9 89.8ZM199.8 96.7C200.2 96.4 200.6 96.1 200.8 95.6C201 95.1 201.2 94.6 201.2 94C201.2 93.4 201.1 92.9 200.8 92.4C200.5 91.9 200.2 91.6 199.8 91.3C199.4 91 198.9 90.9 198.3 90.9H196.4V96.9H198.4C198.8 97.1 199.3 97 199.8 96.7Z" fill="white"/>
<path d="M209.7 98.2C209.1 98.8 208.3 99 207.3 99C206 99 205 98.5 204.1 97.5L205.1 95.9C205.4 96.3 205.8 96.5 206.2 96.7C206.6 96.9 206.9 97 207.2 97C207.6 97 207.9 96.9 208.1 96.7C208.3 96.5 208.4 96.2 208.4 95.8V91H205V89.1H210.6V95.7C210.6 96.8 210.3 97.6 209.7 98.2Z" fill="white"/>
<path d="M215.9 96.6C216.3 97 216.8 97.2 217.5 97.2C218.1 97.2 218.7 97 219 96.6C219.4 96.2 219.6 95.6 219.6 94.9V89.2H221.8V94.9C221.8 95.8 221.6 96.5 221.3 97.1C221 97.7 220.5 98.2 219.8 98.5C219.1 98.8 218.4 99 217.5 99C216.6 99 215.8 98.8 215.2 98.5C214.5 98.2 214 97.7 213.7 97.1C213.3 96.5 213.2 95.7 213.2 94.9V89.2H215.4V94.9C215.3 95.6 215.5 96.2 215.9 96.6Z" fill="white"/>
<path d="M229.4 91.2C228.8 91 228.4 90.9 228 90.9C227.6 90.9 227.3 91 227.1 91.1C226.9 91.2 226.8 91.4 226.8 91.7C226.8 92 227 92.3 227.3 92.5C227.6 92.7 228.1 92.9 228.8 93.1C229.5 93.3 230 93.5 230.5 93.7C231 93.9 231.3 94.2 231.6 94.6C231.9 95 232.1 95.5 232.1 96.1C232.1 96.7 231.9 97.3 231.6 97.7C231.3 98.2 230.8 98.5 230.2 98.7C229.6 98.9 229 99 228.2 99C227.4 99 226.6 98.9 225.9 98.6C225.1 98.3 224.5 97.9 223.9 97.5L224.8 95.7C225.3 96.1 225.9 96.5 226.5 96.8C227.1 97.1 227.7 97.2 228.3 97.2C228.8 97.2 229.1 97.1 229.4 96.9C229.7 96.7 229.8 96.5 229.8 96.2C229.8 95.9 229.7 95.7 229.5 95.6C229.3 95.4 229.1 95.3 228.8 95.2C228.5 95.1 228.2 95 227.7 94.9C227 94.7 226.5 94.5 226.1 94.3C225.7 94.1 225.3 93.8 225 93.5C224.7 93.2 224.5 92.6 224.5 92C224.5 91.4 224.7 90.9 225 90.5C225.3 90.1 225.8 89.7 226.3 89.5C226.9 89.3 227.5 89.1 228.3 89.1C229 89.1 229.6 89.2 230.3 89.4C230.9 89.6 231.5 89.9 232 90.2L231.2 92C230.5 91.6 229.9 91.3 229.4 91.2Z" fill="white"/>
<path d="M233.2 89.2H241.3V91H238.3V98.9H236.1V91H233.1V89.2H233.2Z" fill="white"/>
<path d="M243.3 89.2H245.8L248.8 95.2L251.8 89.2H254.2V98.9H252.2V92.3L249.4 97.9H248L245.2 92.3V98.9H243.2L243.3 89.2Z" fill="white"/>
<path d="M257.2 89.2H264.6V91H259.4V93.1H264.1V94.9H259.4V97.1H264.8V98.9H257.2V89.2Z" fill="white"/>
<path d="M274 89.2H276.1V98.9H274.1L269.4 92.6V98.9H267.3V89.2H269.3L274 95.5V89.2Z" fill="white"/>
<path d="M278 89.2H286.1V91H283.1V98.9H281V91H278V89.2Z" fill="white"/>
</svg>
